Eczar-Regular.ufo
<glyph name="exclam" format="1">
  <advance width="297"/>
  <unicode hex="0021"/>
  <outline>
    <contour>
      <point x="88" y="636" type="curve"/>
      <point x="120" y="210" type="line"/>
      <point x="177" y="210" type="line"/>
      <point x="211" y="634" type="line"/>
      <point x="192" y="664"/>
      <point x="114" y="662"/>
    </contour>
    <contour>
      <point x="156" y="-20" type="curve"/>
      <point x="186" y="-6"/>
      <point x="207" y="18"/>
      <point x="217" y="52" type="curve"/>
      <point x="211" y="84"/>
      <point x="184" y="109"/>
      <point x="144" y="124" type="curve"/>
      <point x="108" y="106"/>
      <point x="86" y="79"/>
      <point x="80" y="41" type="curve"/>
      <point x="94" y="8"/>
      <point x="120" y="-13"/>
    </contour>
  </outline>
</glyph>
<glyph name="quotedbl" format="1">
  <advance width="343"/>
  <unicode hex="0022"/>
  <outline>
    <contour>
      <point x="94" y="454" type="line"/>
      <point x="157" y="559"/>
      <point x="169" y="678"/>
      <point x="169" y="678" type="curve"/>
      <point x="97" y="694" type="line"/>
      <point x="70" y="674" type="line"/>
      <point x="67" y="639"/>
      <point x="63" y="571"/>
      <point x="28" y="475" type="curve"/>
    </contour>
    <contour>
      <point x="262" y="454" type="line"/>
      <point x="325" y="559"/>
      <point x="337" y="678"/>
      <point x="337" y="678" type="curve"/>
      <point x="265" y="694" type="line"/>
      <point x="238" y="674" type="line"/>
      <point x="235" y="639"/>
      <point x="231" y="571"/>
      <point x="196" y="475" type="curve"/>
    </contour>
  </outline>
</glyph>
<glyph name="numbersign" format="1">
  <advance width="622"/>
  <unicode hex="0023"/>
  <outline>
    <contour>
      <point x="135" y="0" type="line"/>
      <point x="198" y="-9" type="line"/>
      <point x="279" y="522" type="line"/>
      <point x="216" y="530" type="line"/>
    </contour>
    <contour>
      <point x="343" y="0" type="line"/>
      <point x="406" y="-9" type="line"/>
      <point x="487" y="522" type="line"/>
      <point x="424" y="530" type="line"/>
    </contour>
    <contour>
      <point x="89" y="355" type="line"/>
      <point x="562" y="355" type="line"/>
      <point x="562" y="407" type="line"/>
      <point x="89" y="407" type="line"/>
    </contour>
    <contour>
      <point x="60" y="138" type="line"/>
      <point x="533" y="138" type="line"/>
      <point x="533" y="190" type="line"/>
      <point x="60" y="190" type="line"/>
    </contour>
  </outline>
</glyph>
<glyph name="dollar" format="1">
  <advance width="530"/>
  <unicode hex="0024"/>
  <outline>
    <contour>
      <point x="260" y="633" type="line"/>
      <point x="322" y="633" type="line"/>
      <point x="322" y="785" type="line"/>
      <point x="260" y="785" type="line"/>
    </contour>
    <contour>
      <point x="323" y="-145" type="line"/>
      <point x="323" y="35" type="line"/>
      <point x="260" y="35" type="line"/>
      <point x="260" y="-145" type="line"/>
    </contour>
    <component base="S"/>
  </outline>
</glyph>
<glyph name="quotesingle" format="1">
  <advance width="169"/>
  <unicode hex="0027"/>
  <outline>
    <contour>
      <point x="44" y="504" type="line"/>
      <point x="85" y="577"/>
      <point x="110" y="651"/>
      <point x="119" y="728" type="curve"/>
      <point x="47" y="744" type="line"/>
      <point x="20" y="724" type="line"/>
      <point x="18" y="689"/>
      <point x="14" y="621"/>
      <point x="-21" y="525" type="curve"/>
    </contour>
  </outline>
</glyph>
<glyph name="parenleft" format="1">
  <advance width="275"/>
  <unicode hex="0028"/>
  <outline>
    <contour>
      <point x="244" y="-128" type="line"/>
      <point x="166" y="4"/>
      <point x="118" y="152"/>
      <point x="118" y="299" type="curve" smooth="yes"/>
      <point x="118" y="424"/>
      <point x="159" y="566"/>
      <point x="253" y="706" type="curve"/>
      <point x="201" y="732" type="line"/>
      <point x="75" y="579"/>
      <point x="24" y="427"/>
      <point x="24" y="294" type="curve" smooth="yes"/>
      <point x="24" y="135"/>
      <point x="88" y="-15"/>
      <point x="190" y="-155" type="curve"/>
    </contour>
  </outline>
</glyph>
<glyph name="comma" format="1">
  <advance width="244"/>
  <unicode hex="002C"/>
  <outline>
    <contour>
      <point x="42" y="-108" type="curve"/>
      <point x="71" y="-146" type="line"/>
      <point x="148" y="-104"/>
      <point x="190" y="-34"/>
      <point x="190" y="25" type="curve"/>
      <point x="190" y="69"/>
      <point x="163" y="106"/>
      <point x="119" y="120" type="curve"/>
      <point x="87" y="104"/>
      <point x="64" y="78"/>
      <point x="58" y="40" type="curve"/>
      <point x="110" y="0" type="line"/>
      <point x="107" y="-36"/>
      <point x="85" y="-72"/>
    </contour>
  </outline>
</glyph>
<glyph name="zero" format="1">
  <advance width="564"/>
  <unicode hex="0030"/>
  <outline>
    <contour>
      <point x="277" y="-10" type="curve"/>
      <point x="435" y="-10"/>
      <point x="515" y="152"/>
      <point x="515" y="341" type="curve"/>
      <point x="515" y="516"/>
      <point x="446" y="661"/>
      <point x="293" y="661" type="curve"/>
      <point x="122" y="661"/>
      <point x="46" y="481"/>
      <point x="46" y="316" type="curve"/>
      <point x="46" y="158"/>
      <point x="116" y="-10"/>
    </contour>
    <contour>
      <point x="298" y="55" type="curve"/>
      <point x="180" y="55"/>
      <point x="138" y="222"/>
      <point x="138" y="330" type="curve"/>
      <point x="138" y="405"/>
      <point x="160" y="533"/>
      <point x="220" y="588" type="curve"/>
      <point x="237" y="593"/>
      <point x="252" y="595"/>
      <point x="266" y="595" type="curve"/>
      <point x="374" y="595"/>
      <point x="422" y="466"/>
      <point x="422" y="327" type="curve"/>
      <point x="422" y="243"/>
      <point x="403" y="119"/>
      <point x="340" y="62" type="curve"/>
      <point x="325" y="57"/>
      <point x="311" y="55"/>
    </contour>
  </outline>
</glyph>
<glyph name="three" format="1">
  <advance width="531"/>
  <unicode hex="0033"/>
  <outline>
    <contour>
      <point x="253" y="-19" type="curve"/>
      <point x="411" y="-19"/>
      <point x="476" y="85"/>
      <point x="476" y="170" type="curve"/>
      <point x="476" y="264"/>
      <point x="397" y="350"/>
      <point x="302" y="357" type="curve"/>
      <point x="288" y="357" type="line"/>
      <point x="151" y="355" type="line"/>
      <point x="147" y="355" type="line"/>
      <point x="149" y="287" type="line"/>
      <point x="220" y="290" type="line"/>
      <point x="332" y="290"/>
      <point x="386" y="228"/>
      <point x="386" y="161" type="curve"/>
      <point x="386" y="129"/>
      <point x="374" y="96"/>
      <point x="349" y="69" type="curve"/>
      <point x="269" y="51"/>
      <point x="156" y="78"/>
      <point x="78" y="118" type="curve"/>
      <point x="60" y="28" type="line"/>
      <point x="115" y="0"/>
      <point x="186" y="-19"/>
    </contour>
    <contour>
      <point x="75" y="487" type="curve"/>
      <point x="133" y="486" type="line"/>
      <point x="152" y="604" type="line"/>
      <point x="67" y="616" type="line"/>
      <point x="64" y="566"/>
      <point x="66" y="537"/>
    </contour>
    <contour>
      <point x="151" y="355" type="curve"/>
      <point x="159" y="290" type="line"/>
      <point x="303" y="330" type="line"/>
      <point x="303" y="346" type="line"/>
      <point x="398" y="373"/>
      <point x="442" y="441"/>
      <point x="442" y="508" type="curve"/>
      <point x="442" y="590"/>
      <point x="375" y="670"/>
      <point x="250" y="670" type="curve"/>
      <point x="187" y="670"/>
      <point x="116" y="650"/>
      <point x="67" y="616" type="curve"/>
      <point x="104" y="576" type="line"/>
      <point x="139" y="596"/>
      <point x="181" y="607"/>
      <point x="220" y="607" type="curve"/>
      <point x="303" y="607"/>
      <point x="347" y="556"/>
      <point x="347" y="494" type="curve"/>
      <point x="347" y="429"/>
      <point x="299" y="355"/>
    </contour>
  </outline>
</glyph>
<glyph name="four" format="1">
  <advance width="566"/>
  <unicode hex="0034"/>
  <outline>
    <contour>
      <point x="101" y="204" type="line"/>
      <point x="343" y="582" type="line"/>
      <point x="379" y="553" type="line"/>
      <point x="415" y="660" type="line"/>
      <point x="338" y="670" type="line"/>
      <point x="25" y="232" type="line"/>
      <point x="48" y="175" type="line"/>
      <point x="503" y="175" type="line"/>
      <point x="531" y="200" type="line"/>
      <point x="530" y="250" type="line"/>
      <point x="82" y="238" type="line"/>
    </contour>
    <contour>
      <point x="326" y="0" type="line"/>
      <point x="415" y="0" type="line"/>
      <point x="415" y="660" type="line"/>
      <point x="328" y="635" type="line"/>
      <point x="342" y="604" type="line"/>
      <point x="326" y="483" type="line"/>
    </contour>
    <contour>
      <point x="362" y="0" type="line"/>
      <point x="376" y="82" type="line"/>
      <point x="320" y="69"/>
      <point x="267" y="54"/>
      <point x="215" y="34" type="curve"/>
      <point x="221" y="0" type="line"/>
    </contour>
    <contour>
      <point x="492" y="0" type="line"/>
      <point x="498" y="48" type="line"/>
      <point x="358" y="67" type="line"/>
      <point x="357" y="0" type="line"/>
    </contour>
  </outline>
</glyph>
<glyph name="five" format="1">
  <advance width="547"/>
  <unicode hex="0035"/>
  <outline>
    <contour>
      <point x="459" y="538"/>
      <point x="461" y="600"/>
      <point x="458" y="650" type="curve"/>
      <point x="373" y="638" type="line"/>
      <point x="393" y="487" type="line"/>
      <point x="450" y="488" type="line"/>
    </contour>
    <contour>
      <point x="49" y="51" type="line"/>
      <point x="113" y="8"/>
      <point x="200" y="-20"/>
      <point x="272" y="-20" type="curve" smooth="yes"/>
      <point x="401" y="-20"/>
      <point x="492" y="67"/>
      <point x="492" y="189" type="curve" smooth="yes"/>
      <point x="492" y="331"/>
      <point x="370" y="391"/>
      <point x="260" y="391" type="curve" smooth="yes"/>
      <point x="229" y="391"/>
      <point x="188" y="386"/>
      <point x="162" y="373" type="curve"/>
      <point x="182" y="580" type="line"/>
      <point x="448" y="568" type="line"/>
      <point x="458" y="650" type="line"/>
      <point x="118" y="650" type="line"/>
      <point x="83" y="327" type="line"/>
      <point x="132" y="284" type="line"/>
      <point x="165" y="297"/>
      <point x="209" y="307"/>
      <point x="248" y="307" type="curve" smooth="yes"/>
      <point x="328" y="307"/>
      <point x="406" y="266"/>
      <point x="406" y="169" type="curve" smooth="yes"/>
      <point x="406" y="140"/>
      <point x="399" y="104"/>
      <point x="357" y="66" type="curve"/>
      <point x="269" y="49"/>
      <point x="173" y="75"/>
      <point x="88" y="133" type="curve"/>
    </contour>
  </outline>
</glyph>
<glyph name="seven" format="1">
  <advance width="459"/>
  <unicode hex="0037"/>
  <outline>
    <contour>
      <point x="91" y="15" type="curve"/>
      <point x="183" y="-11" type="line"/>
      <point x="250" y="194"/>
      <point x="333" y="390"/>
      <point x="450" y="575" type="curve"/>
      <point x="414" y="650" type="line"/>
      <point x="26" y="650" type="line"/>
      <point x="72" y="565" type="line"/>
      <point x="360" y="577" type="line"/>
      <point x="367" y="568" type="line"/>
      <point x="255" y="402"/>
      <point x="163" y="215"/>
    </contour>
    <contour>
      <point x="34" y="483" type="curve"/>
      <point x="91" y="482" type="line"/>
      <point x="111" y="638" type="line"/>
      <point x="26" y="650" type="line"/>
      <point x="23" y="600"/>
      <point x="25" y="533"/>
    </contour>
  </outline>
</glyph>
<glyph name="eight" format="1">
  <advance width="505"/>
  <unicode hex="0038"/>
  <outline>
    <contour>
      <point x="397" y="385"/>
      <point x="445" y="450"/>
      <point x="445" y="518" type="curve" smooth="yes"/>
      <point x="445" y="601"/>
      <point x="375" y="668"/>
      <point x="256" y="668" type="curve" smooth="yes"/>
      <point x="131" y="668"/>
      <point x="55" y="593"/>
      <point x="55" y="502" type="curve" smooth="yes"/>
      <point x="55" y="433"/>
      <point x="99" y="373"/>
      <point x="182" y="329" type="curve"/>
      <point x="227" y="307" type="line"/>
      <point x="329" y="256"/>
      <point x="374" y="206"/>
      <point x="374" y="148" type="curve" smooth="yes"/>
      <point x="374" y="120"/>
      <point x="363" y="90"/>
      <point x="343" y="56" type="curve"/>
      <point x="313" y="46"/>
      <point x="286" y="41"/>
      <point x="262" y="41" type="curve" smooth="yes"/>
      <point x="181" y="41"/>
      <point x="139" y="98"/>
      <point x="139" y="162" type="curve" smooth="yes"/>
      <point x="139" y="217"/>
      <point x="170" y="277"/>
      <point x="233" y="309" type="curve"/>
      <point x="200" y="339" type="line"/>
      <point x="97" y="293"/>
      <point x="40" y="229"/>
      <point x="40" y="150" type="curve" smooth="yes"/>
      <point x="40" y="58"/>
      <point x="115" y="-20"/>
      <point x="247" y="-20" type="curve" smooth="yes"/>
      <point x="385" y="-20"/>
      <point x="465" y="66"/>
      <point x="465" y="164" type="curve" smooth="yes"/>
      <point x="465" y="266"/>
      <point x="377" y="318"/>
      <point x="293" y="363" type="curve" smooth="yes"/>
      <point x="220" y="402"/>
      <point x="144" y="439"/>
      <point x="144" y="512" type="curve" smooth="yes"/>
      <point x="144" y="538"/>
      <point x="154" y="567"/>
      <point x="179" y="598" type="curve"/>
      <point x="204" y="608"/>
      <point x="227" y="613"/>
      <point x="249" y="613" type="curve" smooth="yes"/>
      <point x="317" y="613"/>
      <point x="362" y="564"/>
      <point x="362" y="504" type="curve" smooth="yes"/>
      <point x="362" y="474"/>
      <point x="351" y="418"/>
      <point x="258" y="362" type="curve"/>
      <point x="286" y="332" type="line"/>
    </contour>
  </outline>
</glyph>
<glyph name="nine" format="1">
  <advance width="502"/>
  <unicode hex="0039"/>
  <outline>
    <contour>
      <point x="211" y="281"/>
      <point x="125" y="355"/>
      <point x="125" y="461" type="curve" smooth="yes"/>
      <point x="125" y="516"/>
      <point x="148" y="575"/>
      <point x="194" y="602" type="curve"/>
      <point x="326" y="639"/>
      <point x="378" y="511"/>
      <point x="378" y="374" type="curve" smooth="yes"/>
      <point x="378" y="267"/>
      <point x="347" y="155"/>
      <point x="247" y="92" type="curve"/>
      <point x="89" y="101" type="line"/>
      <point x="105" y="-8" type="line"/>
      <point x="293" y="-6"/>
      <point x="472" y="139"/>
      <point x="472" y="381" type="curve" smooth="yes"/>
      <point x="472" y="549"/>
      <point x="386" y="670"/>
      <point x="245" y="670" type="curve" smooth="yes"/>
      <point x="131" y="670"/>
      <point x="30" y="591"/>
      <point x="30" y="459" type="curve" smooth="yes"/>
      <point x="30" y="317"/>
      <point x="146" y="198"/>
      <point x="336" y="261" type="curve"/>
      <point x="325" y="314" type="line"/>
    </contour>
  </outline>
</glyph>
<glyph name="colon" format="1">
  <advance width="327"/>
  <unicode hex="003A"/>
  <outline>
    <contour>
      <point x="221" y="84"/>
      <point x="194" y="109"/>
      <point x="154" y="124" type="curve"/>
      <point x="118" y="106"/>
      <point x="96" y="79"/>
      <point x="90" y="41" type="curve"/>
      <point x="104" y="8"/>
      <point x="130" y="-13"/>
      <point x="166" y="-20" type="curve"/>
      <point x="196" y="-6"/>
      <point x="217" y="18"/>
      <point x="227" y="52" type="curve"/>
    </contour>
    <contour>
      <point x="221" y="391"/>
      <point x="194" y="416"/>
      <point x="154" y="431" type="curve"/>
      <point x="118" y="413"/>
      <point x="96" y="386"/>
      <point x="90" y="348" type="curve"/>
      <point x="104" y="315"/>
      <point x="130" y="294"/>
      <point x="166" y="287" type="curve"/>
      <point x="196" y="301"/>
      <point x="217" y="325"/>
      <point x="227" y="359" type="curve"/>
    </contour>
  </outline>
</glyph>
<glyph name="semicolon" format="1">
  <advance width="245"/>
  <unicode hex="003B"/>
  <outline>
    <contour>
      <point x="185" y="391"/>
      <point x="158" y="416"/>
      <point x="118" y="431" type="curve"/>
      <point x="82" y="413"/>
      <point x="60" y="386"/>
      <point x="54" y="348" type="curve"/>
      <point x="68" y="315"/>
      <point x="94" y="294"/>
      <point x="130" y="287" type="curve"/>
      <point x="160" y="301"/>
      <point x="181" y="325"/>
      <point x="191" y="359" type="curve"/>
    </contour>
    <contour>
      <point x="71" y="-146" type="line"/>
      <point x="148" y="-104"/>
      <point x="190" y="-34"/>
      <point x="190" y="25" type="curve" smooth="yes"/>
      <point x="190" y="69"/>
      <point x="163" y="106"/>
      <point x="119" y="120" type="curve"/>
      <point x="87" y="104"/>
      <point x="64" y="78"/>
      <point x="58" y="40" type="curve"/>
      <point x="110" y="0" type="line"/>
      <point x="107" y="-36"/>
      <point x="85" y="-72"/>
      <point x="42" y="-108" type="curve"/>
    </contour>
  </outline>
</glyph>
<glyph name="less" format="1">
  <advance width="573"/>
  <unicode hex="003C"/>
  <outline>
    <contour>
      <point x="88" y="202" type="line"/>
      <point x="457" y="-6" type="line"/>
      <point x="490" y="52" type="line"/>
      <point x="165" y="235" type="line"/>
      <point x="164" y="241" type="line"/>
      <point x="493" y="446" type="line"/>
      <point x="458" y="500" type="line"/>
      <point x="80" y="272" type="line"/>
    </contour>
  </outline>
</glyph>
<glyph name="equal" format="1">
  <advance width="592"/>
  <unicode hex="003D"/>
  <outline>
    <contour>
      <point x="60" y="189" type="line"/>
      <point x="60" y="124" type="line"/>
      <point x="532" y="124" type="line"/>
      <point x="532" y="189" type="line"/>
    </contour>
    <contour>
      <point x="60" y="369" type="line"/>
      <point x="60" y="304" type="line"/>
      <point x="532" y="304" type="line"/>
      <point x="532" y="369" type="line"/>
    </contour>
  </outline>
</glyph>
<glyph name="greater" format="1">
  <advance width="573"/>
  <unicode hex="003E"/>
  <outline>
    <contour>
      <point x="83" y="52" type="line"/>
      <point x="116" y="-6" type="line"/>
      <point x="485" y="202" type="line"/>
      <point x="493" y="272" type="line"/>
      <point x="115" y="500" type="line"/>
      <point x="80" y="446" type="line"/>
      <point x="409" y="241" type="line"/>
      <point x="408" y="235" type="line"/>
    </contour>
  </outline>
</glyph>
<glyph name="A" format="1">
  <advance width="696"/>
  <unicode hex="0041"/>
  <outline>
    <contour>
      <point x="290" y="647" type="line"/>
      <point x="545" y="0" type="line"/>
      <point x="646" y="0" type="line"/>
      <point x="369" y="674" type="line"/>
    </contour>
    <contour>
      <point x="-20" y="32" type="curve"/>
      <point x="-14" y="0" type="line"/>
      <point x="80" y="0" type="line"/>
      <point x="79" y="67" type="line"/>
      <point x="46" y="57"/>
      <point x="10" y="46"/>
    </contour>
    <contour>
      <point x="107" y="63" type="line"/>
      <point x="104" y="0" type="line"/>
      <point x="244" y="0" type="line"/>
      <point x="245" y="47" type="line"/>
    </contour>
    <contour>
      <point x="300" y="637" type="line"/>
      <point x="37" y="0" type="line"/>
      <point x="117" y="0" type="line"/>
      <point x="357" y="612" type="line"/>
    </contour>
    <contour>
      <point x="421" y="32" type="curve"/>
      <point x="427" y="0" type="line"/>
      <point x="573" y="0" type="line"/>
      <point x="520" y="67" type="line"/>
      <point x="487" y="57"/>
      <point x="451" y="46"/>
    </contour>
    <contour>
      <point x="182" y="262" type="line"/>
      <point x="182" y="201" type="line"/>
      <point x="473" y="201" type="line"/>
      <point x="473" y="262" type="line"/>
    </contour>
    <contour>
      <point x="558" y="63" type="line"/>
      <point x="555" y="0" type="line"/>
      <point x="695" y="0" type="line"/>
      <point x="696" y="47" type="line"/>
    </contour>
    <contour>
      <point x="628" y="1" type="move" name="ogonek"/>
    </contour>
    <contour>
      <point x="334" y="650" type="move" name="top"/>
    </contour>
  </outline>
</glyph>
<glyph name="B" format="1">
  <advance width="619"/>
  <unicode hex="0042"/>
  <outline>
    <contour>
      <point x="224" y="658"/>
      <point x="128" y="654"/>
      <point x="45" y="650" type="curve"/>
      <point x="195" y="583" type="line"/>
      <point x="345" y="599" type="line"/>
      <point x="404" y="589"/>
      <point x="446" y="538"/>
      <point x="446" y="485" type="curve" smooth="yes"/>
      <point x="446" y="426"/>
      <point x="395" y="368"/>
      <point x="258" y="368" type="curve" smooth="yes"/>
      <point x="180" y="368" type="line"/>
      <point x="180" y="315" type="line"/>
      <point x="262" y="323" type="line"/>
      <point x="393" y="346" type="line"/>
      <point x="502" y="352"/>
      <point x="549" y="422"/>
      <point x="549" y="492" type="curve" smooth="yes"/>
      <point x="549" y="577"/>
      <point x="480" y="658"/>
      <point x="306" y="658" type="curve"/>
    </contour>
    <contour>
      <point x="96" y="57"/>
      <point x="60" y="46"/>
      <point x="30" y="32" type="curve"/>
      <point x="36" y="0" type="line"/>
      <point x="130" y="0" type="line"/>
      <point x="129" y="67" type="line"/>
    </contour>
    <contour>
      <point x="115" y="648" type="line"/>
      <point x="115" y="0" type="line"/>
      <point x="208" y="0" type="line"/>
      <point x="208" y="648" type="line"/>
    </contour>
    <contour>
      <point x="204" y="332" type="line"/>
      <point x="187" y="314" type="line"/>
      <point x="306" y="314" type="line" smooth="yes"/>
      <point x="418" y="314"/>
      <point x="476" y="243"/>
      <point x="476" y="177" type="curve" smooth="yes"/>
      <point x="476" y="112"/>
      <point x="422" y="52"/>
      <point x="308" y="61" type="curve" smooth="yes"/>
      <point x="187" y="71" type="line"/>
      <point x="184" y="0" type="line"/>
      <point x="318" y="0" type="line" smooth="yes"/>
      <point x="498" y="0"/>
      <point x="584" y="84"/>
      <point x="584" y="179" type="curve" smooth="yes"/>
      <point x="584" y="274"/>
      <point x="497" y="361"/>
      <point x="336" y="348" type="curve"/>
    </contour>
    <contour>
      <point x="45" y="650" type="line"/>
      <point x="44" y="602" type="line"/>
      <point x="140" y="596" type="line"/>
      <point x="138" y="650" type="line"/>
    </contour>
  </outline>
</glyph>
<glyph name="C" format="1">
  <advance width="558"/>
  <unicode hex="0043"/>
  <outline>
    <contour>
      <point x="342" y="-15" type="curve"/>
      <point x="538" y="73" type="line"/>
      <point x="520" y="122" type="line"/>
      <point x="366" y="68" type="line"/>
      <point x="206" y="56"/>
      <point x="122" y="184"/>
      <point x="122" y="340" type="curve"/>
      <point x="122" y="434"/>
      <point x="152" y="547"/>
      <point x="241" y="597" type="curve"/>
      <point x="344" y="609"/>
      <point x="424" y="576"/>
      <point x="496" y="513" type="curve"/>
      <point x="522" y="609" type="line"/>
      <point x="489" y="634"/>
      <point x="422" y="670"/>
      <point x="329" y="670" type="curve"/>
      <point x="122" y="670"/>
      <point x="20" y="491"/>
      <point x="20" y="317" type="curve"/>
      <point x="20" y="142"/>
      <point x="122" y="-17"/>
    </contour>
    <contour>
      <point x="437" y="564" type="line"/>
      <point x="445" y="454" type="line"/>
      <point x="505" y="454" type="line"/>
      <point x="524" y="511"/>
      <point x="525" y="576"/>
      <point x="522" y="609" type="curve"/>
    </contour>
    <contour>
      <point x="319" y="0" type="move" name="bottom"/>
    </contour>
    <contour>
      <point x="319" y="650" type="move" name="top"/>
    </contour>
  </outline>
</glyph>
<glyph name="F" format="1">
  <advance width="552"/>
  <unicode hex="0046"/>
  <outline>
    <contour>
      <point x="115" y="650" type="line"/>
      <point x="115" y="0" type="line"/>
      <point x="208" y="0" type="line"/>
      <point x="208" y="650" type="line"/>
    </contour>
    <contour>
      <point x="96" y="57"/>
      <point x="60" y="46"/>
      <point x="30" y="32" type="curve"/>
      <point x="36" y="0" type="line"/>
      <point x="130" y="0" type="line"/>
      <point x="129" y="67" type="line"/>
    </contour>
    <contour>
      <point x="184" y="0" type="line"/>
      <point x="324" y="0" type="line"/>
      <point x="325" y="47" type="line"/>
      <point x="187" y="63" type="line"/>
    </contour>
    <contour>
      <point x="197" y="333" type="line"/>
      <point x="197" y="274" type="line"/>
      <point x="437" y="264" type="line"/>
      <point x="437" y="351" type="line"/>
    </contour>
    <contour>
      <point x="109" y="650" type="line"/>
      <point x="184" y="594" type="line"/>
      <point x="485" y="573" type="line"/>
      <point x="502" y="650" type="line"/>
    </contour>
    <contour>
      <point x="45" y="650" type="line"/>
      <point x="44" y="602" type="line"/>
      <point x="140" y="596" type="line"/>
      <point x="138" y="650" type="line"/>
    </contour>
    <contour>
      <point x="492" y="485" type="line"/>
      <point x="503" y="546"/>
      <point x="505" y="617"/>
      <point x="502" y="650" type="curve"/>
      <point x="422" y="605" type="line"/>
      <point x="438" y="485" type="line"/>
    </contour>
    <contour>
      <point x="290" y="650" type="move" name="top"/>
    </contour>
    <contour>
      <point x="290" y="0" type="move" name="bottom"/>
    </contour>
  </outline>
</glyph>
<glyph name="G" format="1">
  <advance width="675"/>
  <unicode hex="0047"/>
  <outline>
    <contour>
      <point x="374" y="-20" type="curve"/>
      <point x="569" y="71" type="line"/>
      <point x="525" y="96" type="line"/>
      <point x="483" y="75"/>
      <point x="412" y="54"/>
      <point x="347" y="54" type="curve"/>
      <point x="198" y="54"/>
      <point x="122" y="184"/>
      <point x="122" y="319" type="curve"/>
      <point x="122" y="433"/>
      <point x="159" y="547"/>
      <point x="250" y="597" type="curve"/>
      <point x="418" y="619"/>
      <point x="536" y="516"/>
      <point x="536" y="516" type="curve"/>
      <point x="564" y="609" type="line"/>
      <point x="533" y="633"/>
      <point x="462" y="670"/>
      <point x="364" y="670" type="curve"/>
      <point x="131" y="670"/>
      <point x="20" y="491"/>
      <point x="20" y="311" type="curve"/>
      <point x="20" y="138"/>
      <point x="135" y="-33"/>
    </contour>
    <contour>
      <point x="499" y="221" type="curve"/>
      <point x="484" y="301" type="line"/>
      <point x="372" y="301" type="line"/>
      <point x="366" y="266" type="line"/>
      <point x="409" y="246"/>
      <point x="462" y="231"/>
    </contour>
    <contour>
      <point x="476" y="301" type="line"/>
      <point x="476" y="59" type="line"/>
      <point x="569" y="71" type="line"/>
      <point x="569" y="301" type="line"/>
    </contour>
    <contour>
      <point x="462" y="301" type="line"/>
      <point x="493" y="233" type="line"/>
      <point x="645" y="252" type="line"/>
      <point x="644" y="301" type="line"/>
    </contour>
    <contour>
      <point x="479" y="564" type="line"/>
      <point x="488" y="464" type="line"/>
      <point x="547" y="464" type="line"/>
      <point x="564" y="523"/>
      <point x="567" y="576"/>
      <point x="564" y="609" type="curve"/>
    </contour>
    <contour>
      <point x="344" y="0" type="move" name="bottom"/>
    </contour>
    <contour>
      <point x="344" y="650" type="move" name="top"/>
    </contour>
  </outline>
</glyph>
<glyph name="K" format="1">
  <advance width="651"/>
  <unicode hex="004B"/>
  <outline>
    <contour>
      <point x="506" y="650" type="line"/>
      <point x="177" y="297" type="line"/>
      <point x="189" y="218" type="line"/>
      <point x="566" y="621" type="line"/>
      <point x="566" y="650" type="line"/>
    </contour>
    <contour>
      <point x="96" y="57"/>
      <point x="60" y="46"/>
      <point x="30" y="32" type="curve"/>
      <point x="36" y="0" type="line"/>
      <point x="130" y="0" type="line"/>
      <point x="129" y="67" type="line"/>
    </contour>
    <contour>
      <point x="164" y="0" type="line"/>
      <point x="304" y="0" type="line"/>
      <point x="305" y="47" type="line"/>
      <point x="167" y="63" type="line"/>
    </contour>
    <contour>
      <point x="115" y="650" type="line"/>
      <point x="115" y="0" type="line"/>
      <point x="208" y="0" type="line"/>
      <point x="208" y="650" type="line"/>
    </contour>
    <contour>
      <point x="193" y="650" type="line"/>
      <point x="194" y="583" type="line"/>
      <point x="227" y="593"/>
      <point x="263" y="604"/>
      <point x="293" y="618" type="curve"/>
      <point x="287" y="650" type="line"/>
    </contour>
    <contour>
      <point x="386" y="650" type="line"/>
      <point x="385" y="603" type="line"/>
      <point x="523" y="587" type="line"/>
      <point x="526" y="650" type="line"/>
    </contour>
    <contour>
      <point x="509" y="650" type="line"/>
      <point x="510" y="583" type="line"/>
      <point x="543" y="593"/>
      <point x="579" y="604"/>
      <point x="609" y="618" type="curve"/>
      <point x="603" y="650" type="line"/>
    </contour>
    <contour>
      <point x="38" y="650" type="line"/>
      <point x="37" y="603" type="line"/>
      <point x="175" y="587" type="line"/>
      <point x="178" y="650" type="line"/>
    </contour>
    <contour>
      <point x="263" y="324" type="line"/>
      <point x="499" y="0" type="line"/>
      <point x="619" y="0" type="line"/>
      <point x="328" y="387" type="line"/>
    </contour>
    <contour>
      <point x="544" y="0" type="line"/>
      <point x="637" y="0" type="line"/>
      <point x="638" y="48" type="line"/>
      <point x="542" y="54" type="line"/>
    </contour>
    <contour>
      <point x="325" y="650" type="move" name="top"/>
    </contour>
    <contour>
      <point x="365" y="0" type="move" name="bottom"/>
    </contour>
  </outline>
</glyph>
<glyph name="P" format="1">
  <advance width="581"/>
  <unicode hex="0050"/>
  <outline>
    <contour>
      <point x="45" y="650" type="line"/>
      <point x="193" y="583" type="line"/>
      <point x="381" y="599" type="line"/>
      <point x="433" y="574"/>
      <point x="459" y="516"/>
      <point x="459" y="454" type="curve" smooth="yes"/>
      <point x="459" y="378"/>
      <point x="417" y="303"/>
      <point x="310" y="303" type="curve" smooth="yes"/>
      <point x="286" y="303"/>
      <point x="223" y="307"/>
      <point x="178" y="317" type="curve"/>
      <point x="175" y="245" type="line"/>
      <point x="333" y="245" type="line" smooth="yes"/>
      <point x="485" y="245"/>
      <point x="561" y="349"/>
      <point x="561" y="451" type="curve" smooth="yes"/>
      <point x="561" y="554"/>
      <point x="483" y="658"/>
      <point x="324" y="658" type="curve" smooth="yes"/>
    </contour>
    <contour>
      <point x="96" y="57"/>
      <point x="60" y="46"/>
      <point x="30" y="32" type="curve"/>
      <point x="36" y="0" type="line"/>
      <point x="130" y="0" type="line"/>
      <point x="129" y="67" type="line"/>
    </contour>
    <contour>
      <point x="184" y="0" type="line"/>
      <point x="324" y="0" type="line"/>
      <point x="325" y="47" type="line"/>
      <point x="187" y="63" type="line"/>
    </contour>
    <contour>
      <point x="115" y="650" type="line"/>
      <point x="115" y="0" type="line"/>
      <point x="208" y="0" type="line"/>
      <point x="208" y="650" type="line"/>
    </contour>
    <contour>
      <point x="45" y="650" type="line"/>
      <point x="44" y="602" type="line"/>
      <point x="140" y="596" type="line"/>
      <point x="138" y="650" type="line"/>
    </contour>
  </outline>
</glyph>
<glyph name="Q" format="1">
  <advance width="691"/>
  <unicode hex="0051"/>
  <outline>
    <contour>
      <point x="368" y="-3" type="line"/>
      <point x="712" y="-162" type="line"/>
      <point x="751" y="-64" type="line"/>
      <point x="403" y="34" type="line"/>
    </contour>
    <component base="O"/>
  </outline>
</glyph>
<glyph name="S" format="1">
  <advance width="533"/>
  <unicode hex="0053"/>
  <outline>
    <contour>
      <point x="267" y="-20" type="curve"/>
      <point x="382" y="-20"/>
      <point x="488" y="50"/>
      <point x="488" y="172" type="curve"/>
      <point x="488" y="285"/>
      <point x="396" y="331"/>
      <point x="302" y="375" type="curve"/>
      <point x="216" y="415"/>
      <point x="153" y="444"/>
      <point x="153" y="510" type="curve"/>
      <point x="153" y="544"/>
      <point x="169" y="582"/>
      <point x="201" y="601" type="curve"/>
      <point x="271" y="612"/>
      <point x="352" y="599"/>
      <point x="407" y="541" type="curve"/>
      <point x="458" y="639" type="line"/>
      <point x="418" y="652"/>
      <point x="357" y="670"/>
      <point x="293" y="670" type="curve"/>
      <point x="174" y="670"/>
      <point x="60" y="607"/>
      <point x="60" y="489" type="curve"/>
      <point x="60" y="380"/>
      <point x="157" y="333"/>
      <point x="243" y="292" type="curve"/>
      <point x="332" y="250"/>
      <point x="393" y="220"/>
      <point x="393" y="150" type="curve"/>
      <point x="393" y="112"/>
      <point x="375" y="69"/>
      <point x="335" y="48" type="curve"/>
      <point x="259" y="40"/>
      <point x="148" y="56"/>
      <point x="79" y="154" type="curve"/>
      <point x="56" y="49" type="line"/>
      <point x="101" y="3"/>
      <point x="202" y="-20"/>
    </contour>
    <contour>
      <point x="56" y="49" type="curve"/>
      <point x="139" y="49" type="line"/>
      <point x="120" y="218" type="line"/>
      <point x="66" y="218" type="line"/>
      <point x="55" y="157"/>
      <point x="53" y="82"/>
    </contour>
    <contour>
      <point x="378" y="620" type="line"/>
      <point x="394" y="470" type="line"/>
      <point x="448" y="470" type="line"/>
      <point x="459" y="531"/>
      <point x="461" y="606"/>
      <point x="458" y="639" type="curve"/>
    </contour>
    <contour>
      <point x="257" y="0" type="move" name="bottom"/>
    </contour>
    <contour>
      <point x="270" y="650" type="move" name="top"/>
    </contour>
  </outline>
</glyph>
<glyph name="T" format="1">
  <advance width="597"/>
  <unicode hex="0054"/>
  <outline>
    <contour>
      <point x="252" y="650" type="line"/>
      <point x="252" y="0" type="line"/>
      <point x="345" y="0" type="line"/>
      <point x="345" y="650" type="line"/>
    </contour>
    <contour>
      <point x="224" y="57"/>
      <point x="173" y="46"/>
      <point x="143" y="32" type="curve"/>
      <point x="149" y="0" type="line"/>
      <point x="258" y="0" type="line"/>
      <point x="257" y="67" type="line"/>
    </contour>
    <contour>
      <point x="318" y="0" type="line"/>
      <point x="458" y="0" type="line"/>
      <point x="459" y="47" type="line"/>
      <point x="321" y="63" type="line"/>
    </contour>
    <contour>
      <point x="403" y="650"/>
      <point x="196" y="650"/>
      <point x="11" y="656" type="curve"/>
      <point x="28" y="585" type="line"/>
      <point x="299" y="595" type="line"/>
      <point x="570" y="585" type="line"/>
      <point x="586" y="656" type="line"/>
    </contour>
    <contour>
      <point x="576" y="487" type="line"/>
      <point x="587" y="548"/>
      <point x="589" y="623"/>
      <point x="586" y="656" type="curve"/>
      <point x="506" y="611" type="line"/>
      <point x="522" y="487" type="line" smooth="yes"/>
    </contour>
    <contour>
      <point x="91" y="611" type="line"/>
      <point x="11" y="656" type="line"/>
      <point x="8" y="623"/>
      <point x="10" y="548"/>
      <point x="21" y="487" type="curve"/>
      <point x="75" y="487" type="line"/>
    </contour>
    <contour>
      <point x="299" y="325" type="move" name="center"/>
    </contour>
    <contour>
      <point x="299" y="0" type="move" name="bottom"/>
    </contour>
    <contour>
      <point x="299" y="650" type="move" name="top"/>
    </contour>
  </outline>
</glyph>
<glyph name="U" format="1">
  <advance width="700"/>
  <unicode hex="0055"/>
  <outline>
    <contour>
      <point x="531" y="650" type="line"/>
      <point x="531" y="273" type="line" smooth="yes"/>
      <point x="531" y="174"/>
      <point x="507" y="108"/>
      <point x="463" y="77" type="curve"/>
      <point x="435" y="65"/>
      <point x="406" y="57"/>
      <point x="368" y="57" type="curve" smooth="yes"/>
      <point x="249" y="57"/>
      <point x="180" y="135"/>
      <point x="180" y="273" type="curve" smooth="yes"/>
      <point x="180" y="650" type="line"/>
      <point x="87" y="650" type="line"/>
      <point x="87" y="283" type="line" smooth="yes"/>
      <point x="87" y="87"/>
      <point x="200" y="-18"/>
      <point x="364" y="-18" type="curve" smooth="yes"/>
      <point x="517" y="-18"/>
      <point x="605" y="73"/>
      <point x="605" y="293" type="curve" smooth="yes"/>
      <point x="605" y="650" type="line"/>
    </contour>
    <contour>
      <point x="11" y="650" type="line"/>
      <point x="10" y="603" type="line"/>
      <point x="148" y="587" type="line"/>
      <point x="151" y="650" type="line"/>
    </contour>
    <contour>
      <point x="165" y="650" type="line"/>
      <point x="166" y="583" type="line"/>
      <point x="199" y="593"/>
      <point x="235" y="604"/>
      <point x="265" y="618" type="curve"/>
      <point x="259" y="650" type="line"/>
    </contour>
    <contour>
      <point x="443" y="650" type="line"/>
      <point x="442" y="603" type="line"/>
      <point x="580" y="587" type="line"/>
      <point x="583" y="650" type="line"/>
    </contour>
    <contour>
      <point x="590" y="650" type="line"/>
      <point x="591" y="583" type="line"/>
      <point x="624" y="593"/>
      <point x="660" y="604"/>
      <point x="690" y="618" type="curve"/>
      <point x="684" y="650" type="line"/>
    </contour>
    <contour>
      <point x="457" y="1" type="move" name="ogonek"/>
    </contour>
    <contour>
      <point x="355" y="650" type="move" name="top"/>
    </contour>
  </outline>
</glyph>
<glyph name="V" format="1">
  <advance width="680"/>
  <unicode hex="0056"/>
  <outline>
    <contour>
      <point x="60" y="650" type="line"/>
      <point x="287" y="-10" type="line"/>
      <point x="320" y="-11"/>
      <point x="357" y="-8"/>
      <point x="388" y="-2" type="curve"/>
      <point x="355" y="59" type="line"/>
      <point x="335" y="59" type="line"/>
      <point x="322" y="177" type="line"/>
      <point x="161" y="650" type="line"/>
    </contour>
    <contour>
      <point x="1" y="650" type="line"/>
      <point x="0" y="603" type="line"/>
      <point x="138" y="587" type="line"/>
      <point x="141" y="650" type="line"/>
    </contour>
    <contour>
      <point x="388" y="-2" type="line"/>
      <point x="624" y="650" type="line"/>
      <point x="545" y="650" type="line"/>
      <point x="331" y="33" type="line"/>
    </contour>
    <contour>
      <point x="154" y="650" type="line"/>
      <point x="175" y="583" type="line"/>
      <point x="208" y="593"/>
      <point x="244" y="604"/>
      <point x="274" y="618" type="curve"/>
      <point x="268" y="650" type="line"/>
    </contour>
    <contour>
      <point x="435" y="650" type="line"/>
      <point x="434" y="603" type="line"/>
      <point x="572" y="587" type="line"/>
      <point x="575" y="650" type="line"/>
    </contour>
    <contour>
      <point x="560" y="650" type="line"/>
      <point x="581" y="583" type="line"/>
      <point x="614" y="593"/>
      <point x="650" y="604"/>
      <point x="680" y="618" type="curve"/>
      <point x="674" y="650" type="line"/>
    </contour>
  </outline>
</glyph>
<glyph name="W" format="1">
  <advance width="919"/>
  <unicode hex="0057"/>
  <outline>
    <contour>
      <point x="1" y="650" type="line"/>
      <point x="0" y="603" type="line"/>
      <point x="138" y="587" type="line"/>
      <point x="141" y="650" type="line"/>
    </contour>
    <contour>
      <point x="144" y="650" type="line"/>
      <point x="165" y="583" type="line"/>
      <point x="198" y="593"/>
      <point x="234" y="604"/>
      <point x="264" y="618" type="curve"/>
      <point x="258" y="650" type="line"/>
    </contour>
    <contour>
      <point x="59" y="650" type="line"/>
      <point x="246" y="-10" type="line"/>
      <point x="283" y="-13"/>
      <point x="318" y="-10"/>
      <point x="353" y="-3" type="curve"/>
      <point x="325" y="59" type="line"/>
      <point x="300" y="59" type="line"/>
      <point x="289" y="175" type="line"/>
      <point x="159" y="650" type="line"/>
    </contour>
    <contour>
      <point x="296" y="33" type="line"/>
      <point x="353" y="-3" type="line"/>
      <point x="435" y="259" type="line"/>
      <point x="454" y="372" type="line"/>
      <point x="471" y="372" type="line"/>
      <point x="498" y="442" type="line"/>
      <point x="428" y="483" type="line"/>
    </contour>
    <contour>
      <point x="388" y="614" type="line"/>
      <point x="564" y="-10" type="line"/>
      <point x="601" y="-13"/>
      <point x="638" y="-10"/>
      <point x="673" y="-3" type="curve"/>
      <point x="645" y="59" type="line"/>
      <point x="615" y="59" type="line"/>
      <point x="601" y="173" type="line"/>
      <point x="483" y="639" type="line"/>
    </contour>
    <contour>
      <point x="673" y="-3" type="line"/>
      <point x="857" y="650" type="line"/>
      <point x="780" y="650" type="line"/>
      <point x="611" y="33" type="line"/>
    </contour>
    <contour>
      <point x="664" y="650" type="line"/>
      <point x="663" y="603" type="line"/>
      <point x="801" y="587" type="line"/>
      <point x="804" y="650" type="line"/>
    </contour>
    <contour>
      <point x="799" y="650" type="line"/>
      <point x="820" y="583" type="line"/>
      <point x="853" y="593"/>
      <point x="889" y="604"/>
      <point x="919" y="618" type="curve"/>
      <point x="913" y="650" type="line"/>
    </contour>
    <contour>
      <point x="445" y="650" type="move" name="top"/>
    </contour>
  </outline>
</glyph>
<glyph name="X" format="1">
  <advance width="670"/>
  <unicode hex="0058"/>
  <outline>
    <contour>
      <point x="186" y="587" type="line"/>
      <point x="189" y="650" type="line"/>
      <point x="49" y="650" type="line"/>
      <point x="48" y="603" type="line"/>
    </contour>
    <contour>
      <point x="162" y="650" type="line"/>
      <point x="183" y="583" type="line"/>
      <point x="216" y="593"/>
      <point x="252" y="604"/>
      <point x="282" y="618" type="curve"/>
      <point x="276" y="650" type="line"/>
    </contour>
    <contour>
      <point x="399" y="650" type="line"/>
      <point x="398" y="603" type="line"/>
      <point x="536" y="587" type="line"/>
      <point x="539" y="650" type="line"/>
    </contour>
    <contour>
      <point x="505" y="650" type="line"/>
      <point x="526" y="583" type="line"/>
      <point x="559" y="593"/>
      <point x="595" y="604"/>
      <point x="625" y="618" type="curve"/>
      <point x="619" y="650" type="line"/>
    </contour>
    <contour>
      <point x="76" y="57"/>
      <point x="40" y="46"/>
      <point x="10" y="32" type="curve"/>
      <point x="16" y="0" type="line"/>
      <point x="130" y="0" type="line"/>
      <point x="109" y="67" type="line"/>
    </contour>
    <contour>
      <point x="122" y="0" type="line"/>
      <point x="262" y="0" type="line"/>
      <point x="263" y="47" type="line"/>
      <point x="125" y="63" type="line"/>
    </contour>
    <contour>
      <point x="468" y="57"/>
      <point x="432" y="46"/>
      <point x="402" y="32" type="curve"/>
      <point x="408" y="0" type="line"/>
      <point x="522" y="0" type="line"/>
      <point x="501" y="67" type="line"/>
    </contour>
    <contour>
      <point x="519" y="0" type="line"/>
      <point x="659" y="0" type="line"/>
      <point x="660" y="47" type="line"/>
      <point x="502" y="63" type="line"/>
    </contour>
    <contour>
      <point x="80" y="650" type="line"/>
      <point x="511" y="0" type="line"/>
      <point x="625" y="0" type="line"/>
      <point x="187" y="650" type="line"/>
    </contour>
    <contour>
      <point x="505" y="650" type="line"/>
      <point x="338" y="370" type="line"/>
      <point x="383" y="334" type="line"/>
      <point x="589" y="650" type="line"/>
    </contour>
    <contour>
      <point x="48" y="0" type="line"/>
      <point x="137" y="0" type="line"/>
      <point x="353" y="332" type="line"/>
      <point x="301" y="368" type="line"/>
    </contour>
  </outline>
</glyph>
<glyph name="bracketleft" format="1">
  <advance width="346"/>
  <unicode hex="005B"/>
  <outline>
    <contour>
      <point x="99" y="712" type="line"/>
      <point x="99" y="-122" type="line"/>
      <point x="306" y="-122" type="line"/>
      <point x="312" y="-66" type="line"/>
      <point x="182" y="-44" type="line"/>
      <point x="182" y="634" type="line"/>
      <point x="312" y="656" type="line"/>
      <point x="306" y="712" type="line"/>
    </contour>
  </outline>
</glyph>
<glyph name="backslash" format="1">
  <advance width="388"/>
  <unicode hex="005C"/>
  <outline>
    <contour>
      <point x="4" y="681" type="line"/>
      <point x="310" y="-126" type="line"/>
      <point x="378" y="-102" type="line"/>
      <point x="70" y="707" type="line"/>
    </contour>
  </outline>
</glyph>
<glyph name="bracketright" format="1">
  <advance width="350"/>
  <unicode hex="005D"/>
  <outline>
    <contour>
      <point x="35" y="-66" type="line"/>
      <point x="41" y="-122" type="line"/>
      <point x="248" y="-122" type="line"/>
      <point x="248" y="712" type="line"/>
      <point x="41" y="712" type="line"/>
      <point x="35" y="656" type="line"/>
      <point x="165" y="634" type="line"/>
      <point x="165" y="-44" type="line"/>
    </contour>
  </outline>
</glyph>
<glyph name="asciicircum" format="1">
  <advance width="539"/>
  <unicode hex="005E"/>
  <outline>
    <contour>
      <point x="40" y="358" type="line"/>
      <point x="88" y="325" type="line"/>
      <point x="267" y="595" type="line"/>
      <point x="274" y="595" type="line"/>
      <point x="462" y="331" type="line"/>
      <point x="509" y="365" type="line"/>
      <point x="301" y="648" type="line"/>
      <point x="236" y="648" type="line"/>
    </contour>
  </outline>
</glyph>
<glyph name="underscore" format="1">
  <advance width="532"/>
  <unicode hex="005F"/>
  <outline>
    <contour>
      <point x="10" y="-139" type="line"/>
      <point x="10" y="-204" type="line"/>
      <point x="522" y="-204" type="line"/>
      <point x="522" y="-139" type="line"/>
    </contour>
  </outline>
</glyph>
<glyph name="a" format="1">
  <advance width="507"/>
  <unicode hex="0061"/>
  <outline>
    <contour>
      <point x="70" y="183"/>
      <point x="50" y="142"/>
      <point x="50" y="104" type="curve" smooth="yes"/>
      <point x="50" y="46"/>
      <point x="97" y="-26"/>
      <point x="207" y="-14" type="curve"/>
      <point x="329" y="60" type="line"/>
      <point x="329" y="102" type="line"/>
      <point x="298" y="87"/>
      <point x="228" y="56"/>
      <point x="170" y="58" type="curve"/>
      <point x="152" y="69"/>
      <point x="144" y="86"/>
      <point x="144" y="104" type="curve" smooth="yes"/>
      <point x="144" y="168"/>
      <point x="246" y="171"/>
      <point x="320" y="164" type="curve"/>
      <point x="336" y="163" type="line"/>
      <point x="340" y="217" type="line"/>
      <point x="120" y="211" type="line"/>
    </contour>
    <contour>
      <point x="65" y="379"/>
      <point x="74" y="334"/>
      <point x="92" y="301" type="curve"/>
      <point x="145" y="305" type="line"/>
      <point x="153" y="409" type="line"/>
      <point x="180" y="417"/>
      <point x="228" y="425"/>
      <point x="266" y="426" type="curve"/>
      <point x="302" y="408"/>
      <point x="315" y="381"/>
      <point x="315" y="319" type="curve" smooth="yes"/>
      <point x="315" y="82" type="line"/>
      <point x="315" y="68" type="line"/>
      <point x="324" y="29"/>
      <point x="369" y="-13"/>
      <point x="391" y="-15" type="curve"/>
      <point x="492" y="31" type="line"/>
      <point x="477" y="75" type="line"/>
      <point x="463" y="71"/>
      <point x="445" y="66"/>
      <point x="431" y="66" type="curve" smooth="yes"/>
      <point x="416" y="66"/>
      <point x="405" y="71"/>
      <point x="405" y="86" type="curve"/>
      <point x="405" y="319" type="line"/>
      <point x="405" y="389"/>
      <point x="402" y="406"/>
      <point x="393" y="423" type="curve" smooth="yes"/>
      <point x="378" y="451"/>
      <point x="329" y="493"/>
      <point x="286" y="493" type="curve" smooth="yes"/>
      <point x="245" y="493"/>
      <point x="123" y="455"/>
      <point x="63" y="421" type="curve"/>
    </contour>
    <contour>
      <point x="246" y="468" type="move" name="top"/>
    </contour>
  </outline>
</glyph>
<glyph name="b" format="1">
  <advance width="520"/>
  <unicode hex="0062"/>
  <outline>
    <contour>
      <point x="116" y="735" type="line"/>
      <point x="66" y="698" type="line"/>
      <point x="66" y="24" type="line"/>
      <point x="155" y="47" type="line"/>
      <point x="155" y="699" type="line"/>
    </contour>
    <contour>
      <point x="127" y="334" type="line"/>
      <point x="178" y="370"/>
      <point x="230" y="403"/>
      <point x="278" y="403" type="curve" smooth="yes"/>
      <point x="352" y="403"/>
      <point x="401" y="320"/>
      <point x="401" y="230" type="curve" smooth="yes"/>
      <point x="401" y="158"/>
      <point x="370" y="83"/>
      <point x="316" y="50" type="curve"/>
      <point x="213" y="34"/>
      <point x="143" y="84"/>
      <point x="128" y="113" type="curve"/>
      <point x="66" y="24" type="line"/>
      <point x="127" y="-4"/>
      <point x="183" y="-19"/>
      <point x="237" y="-19" type="curve" smooth="yes"/>
      <point x="388" y="-19"/>
      <point x="495" y="96"/>
      <point x="495" y="250" type="curve" smooth="yes"/>
      <point x="495" y="390"/>
      <point x="406" y="509"/>
      <point x="273" y="481" type="curve"/>
      <point x="118" y="383" type="line"/>
    </contour>
    <contour>
      <point x="-8" y="657" type="line"/>
      <point x="85" y="664" type="line"/>
      <point x="129" y="710" type="line"/>
      <point x="116" y="735" type="line"/>
      <point x="74" y="734"/>
      <point x="20" y="722"/>
      <point x="-20" y="704" type="curve"/>
    </contour>
  </outline>
</glyph>
<glyph name="c" format="1">
  <advance width="415"/>
  <unicode hex="0063"/>
  <outline>
    <contour>
      <point x="258" y="-15" type="curve"/>
      <point x="394" y="40" type="line"/>
      <point x="377" y="82" type="line"/>
      <point x="341" y="66"/>
      <point x="302" y="59"/>
      <point x="273" y="59" type="curve"/>
      <point x="170" y="59"/>
      <point x="113" y="142"/>
      <point x="113" y="254" type="curve"/>
      <point x="113" y="320"/>
      <point x="133" y="376"/>
      <point x="175" y="425" type="curve"/>
      <point x="234" y="421"/>
      <point x="296" y="391"/>
      <point x="347" y="351" type="curve"/>
      <point x="400" y="422" type="line"/>
      <point x="356" y="465"/>
      <point x="309" y="488"/>
      <point x="248" y="488" type="curve"/>
      <point x="117" y="488"/>
      <point x="20" y="384"/>
      <point x="20" y="234" type="curve"/>
      <point x="20" y="97"/>
      <point x="101" y="-17"/>
    </contour>
    <contour>
      <point x="236" y="0" type="move" name="bottom"/>
    </contour>
    <contour>
      <point x="236" y="468" type="move" name="top"/>
    </contour>
  </outline>
</glyph>
<glyph name="d" format="1">
  <advance width="541"/>
  <unicode hex="0064"/>
  <outline>
    <contour>
      <point x="516" y="75" type="line"/>
      <point x="502" y="71"/>
      <point x="484" y="66"/>
      <point x="470" y="66" type="curve" smooth="yes"/>
      <point x="455" y="66"/>
      <point x="444" y="71"/>
      <point x="444" y="86" type="curve" smooth="yes"/>
      <point x="444" y="699" type="line"/>
      <point x="404" y="735" type="line"/>
      <point x="355" y="698" type="line"/>
      <point x="355" y="82" type="line"/>
      <point x="355" y="68" type="line"/>
      <point x="364" y="29"/>
      <point x="408" y="-13"/>
      <point x="430" y="-15" type="curve"/>
      <point x="531" y="31" type="line"/>
    </contour>
    <contour>
      <point x="407" y="138" type="line"/>
      <point x="345" y="89"/>
      <point x="292" y="67"/>
      <point x="250" y="67" type="curve" smooth="yes"/>
      <point x="167" y="67"/>
      <point x="114" y="144"/>
      <point x="114" y="244" type="curve" smooth="yes"/>
      <point x="114" y="312"/>
      <point x="139" y="379"/>
      <point x="185" y="420" type="curve"/>
      <point x="271" y="439"/>
      <point x="355" y="395"/>
      <point x="388" y="344" type="curve"/>
      <point x="431" y="417" type="line"/>
      <point x="409" y="455"/>
      <point x="349" y="490"/>
      <point x="272" y="490" type="curve" smooth="yes"/>
      <point x="140" y="490"/>
      <point x="20" y="388"/>
      <point x="20" y="233" type="curve" smooth="yes"/>
      <point x="20" y="96"/>
      <point x="114" y="-17"/>
      <point x="249" y="-15" type="curve"/>
      <point x="404" y="89" type="line"/>
    </contour>
    <contour>
      <point x="373" y="664" type="line"/>
      <point x="417" y="710" type="line"/>
      <point x="404" y="735" type="line"/>
      <point x="362" y="734"/>
      <point x="308" y="722"/>
      <point x="268" y="704" type="curve"/>
      <point x="280" y="657" type="line"/>
    </contour>
    <contour>
      <point x="268" y="234" type="move" name="center"/>
    </contour>
    <contour>
      <point x="520" y="650" type="move" name="topright"/>
    </contour>
  </outline>
</glyph>
<glyph name="f" format="1">
  <advance width="326"/>
  <unicode hex="0066"/>
  <outline>
    <contour>
      <point x="83" y="563" type="curve"/>
      <point x="83" y="0" type="line"/>
      <point x="172" y="0" type="line"/>
      <point x="172" y="435" type="line"/>
      <point x="178" y="458" type="line"/>
      <point x="154" y="663" type="line"/>
      <point x="202" y="682"/>
      <point x="259" y="667"/>
      <point x="305" y="622" type="curve"/>
      <point x="361" y="702" type="line"/>
      <point x="328" y="736"/>
      <point x="287" y="751"/>
      <point x="248" y="751" type="curve"/>
      <point x="164" y="751"/>
      <point x="83" y="681"/>
    </contour>
    <contour>
      <point x="15" y="33" type="curve"/>
      <point x="20" y="0" type="line"/>
      <point x="99" y="0" type="line"/>
      <point x="113" y="67" type="line"/>
      <point x="88" y="60"/>
      <point x="39" y="45"/>
    </contour>
    <contour>
      <point x="165" y="67" type="curve"/>
      <point x="164" y="0" type="line"/>
      <point x="257" y="0" type="line"/>
      <point x="263" y="48" type="line"/>
      <point x="240" y="58"/>
      <point x="199" y="64"/>
    </contour>
    <contour>
      <point x="15" y="440" type="curve"/>
      <point x="21" y="391" type="line"/>
      <point x="107" y="394" type="line"/>
      <point x="150" y="444" type="line"/>
      <point x="128" y="468" type="line"/>
      <point x="93" y="465"/>
      <point x="55" y="458"/>
    </contour>
    <contour>
      <point x="128" y="468" type="line"/>
      <point x="128" y="391" type="line"/>
      <point x="238" y="391" type="line"/>
      <point x="285" y="440" type="line"/>
      <point x="282" y="468" type="line"/>
    </contour>
  </outline>
</glyph>
<glyph name="j" format="1">
  <advance width="272"/>
  <unicode hex="006A"/>
  <outline>
    <contour>
      <point x="178" y="588"/>
      <point x="204" y="621"/>
      <point x="214" y="648" type="curve"/>
      <point x="199" y="668"/>
      <point x="167" y="697"/>
      <point x="139" y="708" type="curve"/>
      <point x="117" y="694"/>
      <point x="92" y="662"/>
      <point x="78" y="632" type="curve"/>
      <point x="94" y="609"/>
      <point x="130" y="582"/>
      <point x="155" y="572" type="curve"/>
    </contour>
    <contour>
      <point x="155" y="484" type="line"/>
      <point x="106" y="447" type="line"/>
      <point x="106" y="-11" type="line" smooth="yes"/>
      <point x="106" y="-94"/>
      <point x="86" y="-136"/>
      <point x="0" y="-165" type="curve"/>
      <point x="13" y="-210" type="line"/>
      <point x="154" y="-176"/>
      <point x="195" y="-103"/>
      <point x="195" y="-61" type="curve" smooth="yes"/>
      <point x="195" y="449" type="line"/>
    </contour>
    <contour>
      <point x="124" y="413" type="line"/>
      <point x="168" y="459" type="line"/>
      <point x="155" y="484" type="line"/>
      <point x="113" y="483"/>
      <point x="59" y="471"/>
      <point x="19" y="453" type="curve"/>
      <point x="31" y="406" type="line"/>
    </contour>
    <contour>
      <point x="149" y="500" type="move" name="top"/>
    </contour>
  </outline>
</glyph>
<glyph name="k" format="1">
  <advance width="564"/>
  <unicode hex="006B"/>
  <outline>
    <contour>
      <point x="120" y="664" type="line"/>
      <point x="164" y="710" type="line"/>
      <point x="151" y="735" type="line"/>
      <point x="109" y="734"/>
      <point x="55" y="722"/>
      <point x="15" y="704" type="curve"/>
      <point x="27" y="657" type="line"/>
    </contour>
    <contour>
      <point x="102" y="0" type="line"/>
      <point x="191" y="0" type="line"/>
      <point x="191" y="700" type="line"/>
      <point x="151" y="735" type="line"/>
      <point x="102" y="698" type="line"/>
    </contour>
    <contour>
      <point x="112" y="0" type="line"/>
      <point x="126" y="67" type="line"/>
      <point x="101" y="60"/>
      <point x="52" y="45"/>
      <point x="28" y="33" type="curve"/>
      <point x="33" y="0" type="line"/>
    </contour>
    <contour>
      <point x="240" y="0" type="line"/>
      <point x="246" y="48" type="line"/>
      <point x="223" y="58"/>
      <point x="182" y="64"/>
      <point x="148" y="67" type="curve"/>
      <point x="147" y="0" type="line"/>
    </contour>
    <contour>
      <point x="304" y="406" type="line"/>
      <point x="430" y="423" type="line"/>
      <point x="461" y="450" type="line"/>
      <point x="460" y="484" type="line"/>
      <point x="419" y="483"/>
      <point x="341" y="471"/>
      <point x="292" y="453" type="curve"/>
    </contour>
    <contour>
      <point x="460" y="484" type="line"/>
      <point x="414" y="448" type="line"/>
      <point x="267" y="276" type="line"/>
      <point x="121" y="195" type="line"/>
      <point x="128" y="176" type="line"/>
      <point x="289" y="200" type="line"/>
      <point x="491" y="434" type="line"/>
    </contour>
    <contour>
      <point x="484" y="62"/>
      <point x="464" y="62"/>
      <point x="455" y="75" type="curve" smooth="yes"/>
      <point x="323" y="265" type="line"/>
      <point x="250" y="227" type="line"/>
      <point x="367" y="47" type="line" smooth="yes"/>
      <point x="392" y="9"/>
      <point x="408" y="-8"/>
      <point x="439" y="-15" type="curve"/>
      <point x="534" y="28" type="line"/>
      <point x="519" y="72" type="line"/>
    </contour>
    <contour>
      <point x="279" y="0" type="move" name="bottom"/>
    </contour>
  </outline>
</glyph>
<glyph name="l" format="1">
  <advance width="298"/>
  <unicode hex="006C"/>
  <outline>
    <contour>
      <point x="102" y="0" type="line"/>
      <point x="191" y="0" type="line"/>
      <point x="191" y="700" type="line"/>
      <point x="151" y="735" type="line"/>
      <point x="102" y="698" type="line"/>
    </contour>
    <contour>
      <point x="120" y="664" type="line"/>
      <point x="164" y="710" type="line"/>
      <point x="151" y="735" type="line"/>
      <point x="109" y="734"/>
      <point x="55" y="722"/>
      <point x="15" y="704" type="curve"/>
      <point x="27" y="657" type="line"/>
    </contour>
    <contour>
      <point x="257" y="0" type="line"/>
      <point x="263" y="48" type="line"/>
      <point x="240" y="58"/>
      <point x="199" y="64"/>
      <point x="165" y="67" type="curve"/>
      <point x="164" y="0" type="line"/>
    </contour>
    <contour>
      <point x="110" y="0" type="line"/>
      <point x="124" y="67" type="line"/>
      <point x="99" y="60"/>
      <point x="50" y="45"/>
      <point x="26" y="33" type="curve"/>
      <point x="31" y="0" type="line"/>
    </contour>
    <contour>
      <point x="141" y="735" type="move" name="top"/>
    </contour>
    <contour>
      <point x="150" y="0" type="move" name="bottom"/>
    </contour>
    <contour>
      <point x="266" y="468" type="move" name="topright"/>
    </contour>
  </outline>
</glyph>
<glyph name="m" format="1">
  <advance width="878"/>
  <unicode hex="006D"/>
  <outline>
    <contour>
      <point x="120" y="413" type="line"/>
      <point x="164" y="459" type="line"/>
      <point x="151" y="484" type="line"/>
      <point x="109" y="483"/>
      <point x="55" y="471"/>
      <point x="15" y="453" type="curve"/>
      <point x="27" y="406" type="line"/>
    </contour>
    <contour>
      <point x="102" y="0" type="line"/>
      <point x="191" y="0" type="line"/>
      <point x="191" y="449" type="line"/>
      <point x="151" y="484" type="line"/>
      <point x="102" y="447" type="line"/>
    </contour>
    <contour>
      <point x="400" y="0" type="line"/>
      <point x="489" y="0" type="line"/>
      <point x="489" y="300" type="line" smooth="yes"/>
      <point x="489" y="370"/>
      <point x="485" y="398"/>
      <point x="475" y="417" type="curve" smooth="yes"/>
      <point x="460" y="445"/>
      <point x="422" y="477"/>
      <point x="384" y="484" type="curve"/>
      <point x="348" y="484"/>
      <point x="255" y="435"/>
      <point x="161" y="370" type="curve"/>
      <point x="179" y="328" type="line"/>
      <point x="227" y="365"/>
      <point x="296" y="404"/>
      <point x="336" y="404" type="curve" smooth="yes"/>
      <point x="370" y="404"/>
      <point x="400" y="377"/>
      <point x="400" y="296" type="curve" smooth="yes"/>
    </contour>
    <contour>
      <point x="699" y="0" type="line"/>
      <point x="788" y="0" type="line"/>
      <point x="788" y="300" type="line" smooth="yes"/>
      <point x="788" y="370"/>
      <point x="784" y="398"/>
      <point x="774" y="417" type="curve" smooth="yes"/>
      <point x="759" y="445"/>
      <point x="721" y="477"/>
      <point x="683" y="484" type="curve"/>
      <point x="647" y="484"/>
      <point x="554" y="435"/>
      <point x="460" y="370" type="curve"/>
      <point x="478" y="328" type="line"/>
      <point x="526" y="365"/>
      <point x="595" y="404"/>
      <point x="635" y="404" type="curve" smooth="yes"/>
      <point x="669" y="404"/>
      <point x="699" y="377"/>
      <point x="699" y="296" type="curve" smooth="yes"/>
    </contour>
    <contour>
      <point x="115" y="0" type="line"/>
      <point x="129" y="67" type="line"/>
      <point x="104" y="60"/>
      <point x="55" y="45"/>
      <point x="31" y="33" type="curve"/>
      <point x="36" y="0" type="line"/>
    </contour>
    <contour>
      <point x="250" y="0" type="line"/>
      <point x="256" y="48" type="line"/>
      <point x="233" y="58"/>
      <point x="192" y="64"/>
      <point x="158" y="67" type="curve"/>
      <point x="157" y="0" type="line"/>
    </contour>
    <contour>
      <point x="427" y="0" type="line"/>
      <point x="441" y="67" type="line"/>
      <point x="416" y="60"/>
      <point x="367" y="45"/>
      <point x="343" y="33" type="curve"/>
      <point x="348" y="0" type="line"/>
    </contour>
    <contour>
      <point x="553" y="0" type="line"/>
      <point x="559" y="48" type="line"/>
      <point x="536" y="58"/>
      <point x="491" y="64"/>
      <point x="457" y="67" type="curve"/>
      <point x="456" y="0" type="line"/>
    </contour>
    <contour>
      <point x="726" y="0" type="line"/>
      <point x="740" y="67" type="line"/>
      <point x="715" y="60"/>
      <point x="666" y="45"/>
      <point x="642" y="33" type="curve"/>
      <point x="647" y="0" type="line"/>
    </contour>
    <contour>
      <point x="852" y="0" type="line"/>
      <point x="858" y="48" type="line"/>
      <point x="835" y="58"/>
      <point x="790" y="64"/>
      <point x="756" y="67" type="curve"/>
      <point x="755" y="0" type="line"/>
    </contour>
  </outline>
</glyph>
<glyph name="r" format="1">
  <advance width="427"/>
  <unicode hex="0072"/>
  <outline>
    <contour>
      <point x="120" y="413" type="line"/>
      <point x="164" y="459" type="line"/>
      <point x="151" y="484" type="line"/>
      <point x="109" y="483"/>
      <point x="55" y="471"/>
      <point x="15" y="453" type="curve"/>
      <point x="27" y="406" type="line"/>
    </contour>
    <contour>
      <point x="102" y="0" type="line"/>
      <point x="191" y="0" type="line"/>
      <point x="191" y="449" type="line"/>
      <point x="151" y="484" type="line"/>
      <point x="102" y="447" type="line"/>
    </contour>
    <contour>
      <point x="113" y="0" type="line"/>
      <point x="127" y="67" type="line"/>
      <point x="102" y="60"/>
      <point x="53" y="45"/>
      <point x="29" y="33" type="curve"/>
      <point x="34" y="0" type="line"/>
    </contour>
    <contour>
      <point x="288" y="0" type="line"/>
      <point x="294" y="48" type="line"/>
      <point x="271" y="58"/>
      <point x="210" y="66"/>
      <point x="176" y="67" type="curve"/>
      <point x="175" y="0" type="line"/>
    </contour>
    <contour>
      <point x="142" y="306" type="line"/>
      <point x="162" y="248" type="line"/>
      <point x="204" y="324"/>
      <point x="278" y="382"/>
      <point x="328" y="411" type="curve"/>
      <point x="339" y="301" type="line"/>
      <point x="393" y="301" type="line"/>
      <point x="406" y="352"/>
      <point x="414" y="412"/>
      <point x="411" y="463" type="curve"/>
      <point x="379" y="483"/>
      <point x="341" y="489"/>
      <point x="296" y="470" type="curve"/>
    </contour>
    <contour>
      <point x="222" y="468" type="move" name="top"/>
    </contour>
    <contour>
      <point x="179" y="0" type="move" name="bottom"/>
    </contour>
  </outline>
</glyph>
<glyph name="s" format="1">
  <advance width="419"/>
  <unicode hex="0073"/>
  <outline>
    <contour>
      <point x="202" y="-20" type="curve"/>
      <point x="303" y="-20"/>
      <point x="374" y="39"/>
      <point x="374" y="125" type="curve"/>
      <point x="374" y="286"/>
      <point x="123" y="263"/>
      <point x="123" y="370" type="curve"/>
      <point x="123" y="388"/>
      <point x="130" y="411"/>
      <point x="155" y="427" type="curve"/>
      <point x="208" y="432"/>
      <point x="281" y="416"/>
      <point x="326" y="378" type="curve"/>
      <point x="357" y="458" type="line"/>
      <point x="320" y="477"/>
      <point x="275" y="488"/>
      <point x="229" y="488" type="curve"/>
      <point x="131" y="488"/>
      <point x="39" y="439"/>
      <point x="39" y="345" type="curve"/>
      <point x="39" y="190"/>
      <point x="287" y="217"/>
      <point x="287" y="100" type="curve"/>
      <point x="287" y="76"/>
      <point x="277" y="57"/>
      <point x="260" y="42" type="curve"/>
      <point x="185" y="52"/>
      <point x="112" y="86"/>
      <point x="62" y="120" type="curve"/>
      <point x="25" y="32" type="line"/>
      <point x="90" y="-4"/>
      <point x="149" y="-20"/>
    </contour>
    <contour>
      <point x="275" y="452" type="line"/>
      <point x="286" y="329" type="line"/>
      <point x="340" y="329" type="line"/>
      <point x="355" y="370"/>
      <point x="359" y="415"/>
      <point x="357" y="458" type="curve"/>
    </contour>
  </outline>
</glyph>
<glyph name="t" format="1">
  <advance width="343"/>
  <unicode hex="0074"/>
  <outline>
    <contour>
      <point x="303" y="91" type="line"/>
      <point x="273" y="80"/>
      <point x="236" y="68"/>
      <point x="211" y="68" type="curve" smooth="yes"/>
      <point x="185" y="68"/>
      <point x="178" y="82"/>
      <point x="178" y="122" type="curve" smooth="yes"/>
      <point x="178" y="447" type="line"/>
      <point x="178" y="589" type="line"/>
      <point x="131" y="589" type="line"/>
      <point x="89" y="455" type="line"/>
      <point x="89" y="69" type="line" smooth="yes"/>
      <point x="89" y="27"/>
      <point x="147" y="-18"/>
      <point x="190" y="-15" type="curve"/>
      <point x="320" y="45" type="line"/>
    </contour>
    <contour>
      <point x="112" y="394" type="line"/>
      <point x="156" y="444" type="line"/>
      <point x="133" y="469" type="line"/>
      <point x="98" y="465"/>
      <point x="60" y="458"/>
      <point x="20" y="440" type="curve"/>
      <point x="27" y="392" type="line"/>
    </contour>
    <contour>
      <point x="107" y="391" type="line"/>
      <point x="275" y="391" type="line"/>
      <point x="322" y="439" type="line"/>
      <point x="318" y="468" type="line"/>
      <point x="107" y="468" type="line"/>
    </contour>
    <contour>
      <point x="169" y="234" type="move" name="center"/>
    </contour>
    <contour>
      <point x="189" y="0" type="move" name="bottom"/>
    </contour>
    <contour>
      <point x="323" y="468" type="move" name="topright"/>
    </contour>
  </outline>
</glyph>
<glyph name="v" format="1">
  <advance width="505"/>
  <unicode hex="0076"/>
  <outline>
    <contour>
      <point x="-10" y="419" type="line"/>
      <point x="111" y="412" type="line"/>
      <point x="130" y="468" type="line"/>
      <point x="-9" y="468" type="line"/>
    </contour>
    <contour>
      <point x="112" y="468" type="line"/>
      <point x="98" y="397" type="line"/>
      <point x="132" y="407"/>
      <point x="165" y="418"/>
      <point x="197" y="432" type="curve"/>
      <point x="191" y="468" type="line"/>
    </contour>
    <contour>
      <point x="228" y="-8"/>
      <point x="274" y="-8"/>
      <point x="305" y="3" type="curve"/>
      <point x="365" y="151"/>
      <point x="422" y="320"/>
      <point x="472" y="468" type="curve"/>
      <point x="375" y="468" type="line"/>
      <point x="344" y="345"/>
      <point x="302" y="189"/>
      <point x="260" y="66" type="curve"/>
      <point x="236" y="66" type="line"/>
      <point x="222" y="173" type="line"/>
      <point x="130" y="468" type="line"/>
      <point x="28" y="467" type="line"/>
      <point x="189" y="-2" type="line"/>
    </contour>
    <contour>
      <point x="429" y="412" type="line"/>
      <point x="448" y="468" type="line"/>
      <point x="309" y="468" type="line"/>
      <point x="308" y="419" type="line"/>
    </contour>
    <contour>
      <point x="430" y="468" type="line"/>
      <point x="416" y="397" type="line"/>
      <point x="450" y="407"/>
      <point x="483" y="418"/>
      <point x="515" y="432" type="curve"/>
      <point x="509" y="468" type="line"/>
    </contour>
  </outline>
</glyph>
<glyph name="w" format="1">
  <advance width="738"/>
  <unicode hex="0077"/>
  <outline>
    <contour>
      <point x="-10" y="419" type="line"/>
      <point x="111" y="412" type="line"/>
      <point x="124" y="468" type="line"/>
      <point x="-9" y="468" type="line"/>
    </contour>
    <contour>
      <point x="112" y="468" type="line"/>
      <point x="98" y="397" type="line"/>
      <point x="132" y="407"/>
      <point x="165" y="418"/>
      <point x="197" y="432" type="curve"/>
      <point x="191" y="468" type="line"/>
    </contour>
    <contour>
      <point x="703" y="468" type="line"/>
      <point x="615" y="468" type="line"/>
      <point x="502" y="59" type="line"/>
      <point x="495" y="59" type="line"/>
      <point x="476" y="171" type="line"/>
      <point x="381" y="461" type="line"/>
      <point x="293" y="438" type="line"/>
      <point x="444" y="-2" type="line"/>
      <point x="480" y="-10"/>
      <point x="531" y="-6"/>
      <point x="565" y="6" type="curve"/>
    </contour>
    <contour>
      <point x="659" y="412" type="line"/>
      <point x="678" y="468" type="line"/>
      <point x="539" y="468" type="line"/>
      <point x="538" y="419" type="line"/>
    </contour>
    <contour>
      <point x="663" y="468" type="line"/>
      <point x="649" y="397" type="line"/>
      <point x="683" y="407"/>
      <point x="716" y="418"/>
      <point x="748" y="432" type="curve"/>
      <point x="742" y="468" type="line"/>
    </contour>
    <contour>
      <point x="356" y="359" type="line"/>
      <point x="244" y="59" type="line"/>
      <point x="236" y="59" type="line"/>
      <point x="213" y="171" type="line"/>
      <point x="127" y="468" type="line"/>
      <point x="30" y="467" type="line"/>
      <point x="174" y="-2" type="line"/>
      <point x="212" y="-8"/>
      <point x="258" y="-6"/>
      <point x="290" y="6" type="curve"/>
      <point x="360" y="176" type="line"/>
      <point x="378" y="275" type="line"/>
    </contour>
    <contour>
      <point x="365" y="468" type="move" name="top"/>
    </contour>
  </outline>
</glyph>
<glyph name="x" format="1">
  <advance width="540"/>
  <unicode hex="0078"/>
  <outline>
    <contour>
      <point x="31" y="419" type="line"/>
      <point x="144" y="412" type="line"/>
      <point x="173" y="468" type="line"/>
      <point x="32" y="468" type="line"/>
    </contour>
    <contour>
      <point x="168" y="407"/>
      <point x="201" y="418"/>
      <point x="233" y="432" type="curve"/>
      <point x="227" y="468" type="line"/>
      <point x="148" y="468" type="line"/>
      <point x="134" y="397" type="line" smooth="yes"/>
    </contour>
    <contour>
      <point x="439" y="412" type="line"/>
      <point x="458" y="468" type="line"/>
      <point x="319" y="468" type="line"/>
      <point x="318" y="419" type="line"/>
    </contour>
    <contour>
      <point x="422" y="468" type="line"/>
      <point x="408" y="397" type="line"/>
      <point x="442" y="407"/>
      <point x="475" y="418"/>
      <point x="507" y="432" type="curve"/>
      <point x="501" y="468" type="line"/>
    </contour>
    <contour>
      <point x="409" y="0" type="line"/>
      <point x="507" y="0" type="line"/>
      <point x="153" y="468" type="line"/>
      <point x="70" y="439" type="line"/>
    </contour>
    <contour>
      <point x="454" y="418" type="line"/>
      <point x="466" y="468" type="line"/>
      <point x="409" y="468" type="line"/>
      <point x="260" y="264" type="line"/>
      <point x="301" y="225" type="line"/>
    </contour>
    <contour>
      <point x="21" y="0" type="line"/>
      <point x="99" y="0" type="line"/>
      <point x="114" y="0" type="line"/>
      <point x="267" y="208" type="line"/>
      <point x="226" y="254" type="line"/>
    </contour>
    <contour>
      <point x="89" y="0" type="line"/>
      <point x="103" y="67" type="line"/>
      <point x="78" y="60"/>
      <point x="29" y="45"/>
      <point x="5" y="33" type="curve"/>
      <point x="10" y="0" type="line"/>
    </contour>
    <contour>
      <point x="213" y="0" type="line"/>
      <point x="219" y="48" type="line"/>
      <point x="196" y="58"/>
      <point x="155" y="64"/>
      <point x="121" y="67" type="curve"/>
      <point x="110" y="0" type="line"/>
    </contour>
    <contour>
      <point x="444" y="0" type="line"/>
      <point x="408" y="67" type="line"/>
      <point x="383" y="60"/>
      <point x="334" y="45"/>
      <point x="310" y="33" type="curve"/>
      <point x="315" y="0" type="line"/>
    </contour>
    <contour>
      <point x="519" y="0" type="line"/>
      <point x="525" y="48" type="line"/>
      <point x="502" y="58"/>
      <point x="461" y="64"/>
      <point x="427" y="67" type="curve"/>
      <point x="416" y="0" type="line"/>
    </contour>
  </outline>
</glyph>
<glyph name="y" format="1">
  <advance width="503"/>
  <unicode hex="0079"/>
  <outline>
    <contour>
      <point x="-10" y="419" type="line"/>
      <point x="111" y="412" type="line"/>
      <point x="130" y="468" type="line"/>
      <point x="-9" y="468" type="line"/>
    </contour>
    <contour>
      <point x="122" y="468" type="line"/>
      <point x="108" y="397" type="line"/>
      <point x="142" y="407"/>
      <point x="175" y="418"/>
      <point x="207" y="432" type="curve"/>
      <point x="201" y="468" type="line"/>
    </contour>
    <contour>
      <point x="302" y="419" type="line"/>
      <point x="423" y="412" type="line"/>
      <point x="442" y="468" type="line"/>
      <point x="303" y="468" type="line"/>
    </contour>
    <contour>
      <point x="428" y="468" type="line"/>
      <point x="414" y="397" type="line"/>
      <point x="448" y="407"/>
      <point x="481" y="418"/>
      <point x="513" y="432" type="curve"/>
      <point x="507" y="468" type="line"/>
    </contour>
    <contour>
      <point x="221" y="-146"/>
      <point x="285" y="-53"/>
      <point x="332" y="56" type="curve"/>
      <point x="376" y="176"/>
      <point x="428" y="336"/>
      <point x="467" y="468" type="curve"/>
      <point x="373" y="468" type="line"/>
      <point x="349" y="346"/>
      <point x="303" y="181"/>
      <point x="261" y="67" type="curve"/>
      <point x="242" y="67" type="line"/>
      <point x="225" y="182" type="line"/>
      <point x="129" y="468" type="line"/>
      <point x="30" y="457" type="line"/>
      <point x="186" y="27" type="line"/>
      <point x="200" y="14"/>
      <point x="222" y="2"/>
      <point x="239" y="-4" type="curve"/>
      <point x="187" y="-62"/>
      <point x="124" y="-96"/>
      <point x="53" y="-126" type="curve"/>
      <point x="103" y="-217" type="line"/>
    </contour>
    <contour>
      <point x="255" y="468" type="move" name="top"/>
    </contour>
  </outline>
</glyph>
<glyph name="z" format="1">
  <advance width="482"/>
  <unicode hex="007A"/>
  <outline>
    <contour>
      <point x="54" y="400" type="line"/>
      <point x="348" y="409" type="line"/>
      <point x="391" y="468" type="line"/>
      <point x="50" y="468" type="line"/>
    </contour>
    <contour>
      <point x="421" y="490" type="line"/>
      <point x="371" y="455" type="line"/>
      <point x="345" y="447" type="line"/>
      <point x="30" y="21" type="line"/>
      <point x="74" y="-15" type="line"/>
      <point x="128" y="34" type="line"/>
      <point x="162" y="64" type="line"/>
      <point x="455" y="460" type="line"/>
    </contour>
    <contour>
      <point x="406" y="147" type="line"/>
      <point x="385" y="71" type="line"/>
      <point x="120" y="84" type="line"/>
      <point x="81" y="22" type="line"/>
      <point x="434" y="-10" type="line"/>
      <point x="445" y="27"/>
      <point x="455" y="81"/>
      <point x="457" y="140" type="curve"/>
    </contour>
    <contour>
      <point x="108" y="302" type="line"/>
      <point x="122" y="420" type="line"/>
      <point x="50" y="468" type="line"/>
      <point x="45" y="418"/>
      <point x="48" y="352"/>
      <point x="59" y="302" type="curve"/>
    </contour>
    <contour>
      <point x="245" y="468" type="move" name="top"/>
    </contour>
  </outline>
</glyph>
<glyph name="braceleft" format="1">
  <advance width="419"/>
  <unicode hex="007B"/>
  <outline>
    <contour>
      <point x="329" y="-72" type="line"/>
      <point x="239" y="-60" type="line"/>
      <point x="239" y="149" type="line" smooth="yes"/>
      <point x="239" y="201"/>
      <point x="226" y="246"/>
      <point x="189" y="295" type="curve"/>
      <point x="189" y="304" type="line"/>
      <point x="226" y="352"/>
      <point x="239" y="398"/>
      <point x="239" y="449" type="curve" smooth="yes"/>
      <point x="239" y="656" type="line"/>
      <point x="332" y="656" type="line"/>
      <point x="326" y="729" type="line"/>
      <point x="197" y="715"/>
      <point x="144" y="640"/>
      <point x="144" y="561" type="curve" smooth="yes"/>
      <point x="144" y="443" type="line" smooth="yes"/>
      <point x="144" y="374"/>
      <point x="137" y="333"/>
      <point x="75" y="327" type="curve"/>
      <point x="69" y="268" type="line"/>
      <point x="139" y="262"/>
      <point x="144" y="223"/>
      <point x="144" y="142" type="curve" smooth="yes"/>
      <point x="144" y="10" type="line" smooth="yes"/>
      <point x="144" y="-60"/>
      <point x="211" y="-135"/>
      <point x="319" y="-145" type="curve"/>
    </contour>
  </outline>
</glyph>
<glyph name="bar" format="1">
  <advance width="293"/>
  <unicode hex="007C"/>
  <outline>
    <contour>
      <point x="107" y="735" type="line"/>
      <point x="107" y="-225" type="line"/>
      <point x="184" y="-225" type="line"/>
      <point x="184" y="735" type="line"/>
    </contour>
  </outline>
</glyph>
<glyph name="sterling" format="1">
  <advance width="511"/>
  <unicode hex="00A3"/>
  <outline>
    <contour>
      <point x="145" y="670"/>
      <point x="83" y="569"/>
      <point x="83" y="495" type="curve" smooth="yes"/>
      <point x="83" y="387"/>
      <point x="217" y="240"/>
      <point x="40" y="0" type="curve"/>
      <point x="99" y="0" type="line"/>
      <point x="322" y="232"/>
      <point x="172" y="358"/>
      <point x="172" y="498" type="curve" smooth="yes"/>
      <point x="172" y="532"/>
      <point x="181" y="583"/>
      <point x="213" y="608" type="curve"/>
      <point x="282" y="614"/>
      <point x="349" y="601"/>
      <point x="388" y="550" type="curve"/>
      <point x="439" y="639" type="line"/>
      <point x="399" y="652"/>
      <point x="347" y="670"/>
      <point x="287" y="670" type="curve" smooth="yes"/>
    </contour>
    <contour>
      <point x="76" y="57"/>
      <point x="40" y="46"/>
      <point x="10" y="32" type="curve"/>
      <point x="16" y="0" type="line"/>
      <point x="110" y="0" type="line"/>
      <point x="109" y="67" type="line"/>
    </contour>
    <contour>
      <point x="151" y="66" type="line"/>
      <point x="89" y="0" type="line"/>
      <point x="462" y="0" type="line"/>
      <point x="445" y="79" type="line"/>
    </contour>
    <contour>
      <point x="377" y="312" type="line"/>
      <point x="371" y="341" type="line"/>
      <point x="190" y="341" type="line"/>
      <point x="154" y="331" type="line"/>
      <point x="79" y="331" type="line"/>
      <point x="36" y="296" type="line"/>
      <point x="42" y="267" type="line"/>
      <point x="150" y="267" type="line"/>
      <point x="187" y="277" type="line"/>
      <point x="334" y="277" type="line"/>
    </contour>
    <contour>
      <point x="440" y="531"/>
      <point x="442" y="606"/>
      <point x="439" y="639" type="curve"/>
      <point x="359" y="594" type="line"/>
      <point x="375" y="472" type="line"/>
      <point x="429" y="470" type="line"/>
    </contour>
    <contour>
      <point x="414" y="175" type="line"/>
      <point x="384" y="40" type="line"/>
      <point x="462" y="0" type="line"/>
      <point x="469" y="43"/>
      <point x="472" y="109"/>
      <point x="470" y="171" type="curve"/>
    </contour>
  </outline>
</glyph>
<glyph name="currency" format="1">
  <advance width="510"/>
  <unicode hex="00A4"/>
  <outline>
    <contour>
      <point x="82" y="254"/>
      <point x="155" y="174"/>
      <point x="253" y="174" type="curve" smooth="yes"/>
      <point x="340" y="174"/>
      <point x="426" y="238"/>
      <point x="426" y="358" type="curve" smooth="yes"/>
      <point x="426" y="475"/>
      <point x="345" y="536"/>
      <point x="260" y="536" type="curve" smooth="yes"/>
      <point x="169" y="536"/>
      <point x="82" y="467"/>
      <point x="82" y="356" type="curve" smooth="yes"/>
    </contour>
    <contour>
      <point x="296" y="234"/>
      <point x="282" y="233"/>
      <point x="271" y="233" type="curve" smooth="yes"/>
      <point x="184" y="233"/>
      <point x="152" y="297"/>
      <point x="152" y="359" type="curve" smooth="yes"/>
      <point x="152" y="407"/>
      <point x="171" y="452"/>
      <point x="196" y="471" type="curve"/>
      <point x="210" y="474"/>
      <point x="221" y="475"/>
      <point x="233" y="475" type="curve" smooth="yes"/>
      <point x="328" y="475"/>
      <point x="355" y="405"/>
      <point x="355" y="347" type="curve" smooth="yes"/>
      <point x="355" y="294"/>
      <point x="332" y="243"/>
      <point x="311" y="237" type="curve"/>
    </contour>
    <contour>
      <point x="132" y="251" type="line"/>
      <point x="66" y="170" type="line"/>
      <point x="112" y="129" type="line"/>
      <point x="181" y="213" type="line"/>
    </contour>
    <contour>
      <point x="330" y="212" type="line"/>
      <point x="404" y="131" type="line"/>
      <point x="448" y="174" type="line"/>
      <point x="374" y="255" type="line"/>
    </contour>
    <contour>
      <point x="177" y="500" type="line"/>
      <point x="107" y="579" type="line"/>
      <point x="60" y="538" type="line"/>
      <point x="133" y="455" type="line"/>
    </contour>
    <contour>
      <point x="380" y="454" type="line"/>
      <point x="450" y="539" type="line"/>
      <point x="402" y="578" type="line"/>
      <point x="333" y="495" type="line"/>
    </contour>
  </outline>
</glyph>
<glyph name="yen" format="1">
  <advance width="587"/>
  <unicode hex="00A5"/>
  <outline>
    <contour>
      <point x="116" y="267" type="line"/>
      <point x="122" y="238" type="line"/>
      <point x="426" y="238" type="line"/>
      <point x="469" y="263" type="line"/>
      <point x="463" y="292" type="line"/>
      <point x="159" y="292" type="line"/>
    </contour>
    <contour>
      <point x="116" y="146" type="line"/>
      <point x="122" y="117" type="line"/>
      <point x="426" y="117" type="line"/>
      <point x="469" y="142" type="line"/>
      <point x="463" y="171" type="line"/>
      <point x="159" y="171" type="line"/>
    </contour>
    <component base="Y" xOffset="-10"/>
  </outline>
</glyph>
<glyph name="section" format="1">
  <advance width="521"/>
  <unicode hex="00A7"/>
  <outline>
    <contour>
      <point x="348" y="141" type="curve"/>
      <point x="381" y="102" type="line"/>
      <point x="444" y="144"/>
      <point x="476" y="181"/>
      <point x="476" y="236" type="curve"/>
      <point x="476" y="338"/>
      <point x="365" y="378"/>
      <point x="294" y="404" type="curve"/>
      <point x="204" y="437"/>
      <point x="149" y="455"/>
      <point x="149" y="510" type="curve"/>
      <point x="149" y="539"/>
      <point x="164" y="572"/>
      <point x="188" y="594" type="curve"/>
      <point x="285" y="619"/>
      <point x="365" y="593"/>
      <point x="413" y="543" type="curve"/>
      <point x="453" y="639" type="line"/>
      <point x="413" y="652"/>
      <point x="352" y="670"/>
      <point x="288" y="670" type="curve"/>
      <point x="170" y="670"/>
      <point x="64" y="607"/>
      <point x="64" y="504" type="curve"/>
      <point x="64" y="416"/>
      <point x="140" y="373"/>
      <point x="238" y="337" type="curve"/>
      <point x="321" y="307"/>
      <point x="395" y="289"/>
      <point x="395" y="218" type="curve"/>
      <point x="395" y="187"/>
      <point x="380" y="170"/>
    </contour>
    <contour>
      <point x="268" y="-147" type="curve"/>
      <point x="374" y="-147"/>
      <point x="466" y="-81"/>
      <point x="466" y="16" type="curve"/>
      <point x="466" y="98"/>
      <point x="402" y="139"/>
      <point x="274" y="185" type="curve"/>
      <point x="184" y="217"/>
      <point x="131" y="237"/>
      <point x="131" y="290" type="curve"/>
      <point x="131" y="320"/>
      <point x="148" y="348"/>
      <point x="176" y="370" type="curve"/>
      <point x="144" y="414" type="line"/>
      <point x="102" y="386"/>
      <point x="55" y="340"/>
      <point x="55" y="274" type="curve"/>
      <point x="55" y="187"/>
      <point x="138" y="146"/>
      <point x="221" y="115" type="curve"/>
      <point x="307" y="83"/>
      <point x="388" y="67"/>
      <point x="388" y="2" type="curve"/>
      <point x="388" y="-18"/>
      <point x="380" y="-40"/>
      <point x="361" y="-61" type="curve"/>
      <point x="293" y="-82"/>
      <point x="183" y="-52"/>
      <point x="105" y="-3" type="curve"/>
      <point x="68" y="-88" type="line"/>
      <point x="126" y="-130"/>
      <point x="214" y="-147"/>
    </contour>
    <contour>
      <point x="389" y="472" type="line"/>
      <point x="443" y="470" type="line"/>
      <point x="454" y="531"/>
      <point x="456" y="606"/>
      <point x="453" y="639" type="curve"/>
      <point x="373" y="594" type="line"/>
    </contour>
  </outline>
</glyph>
<glyph name="copyright" format="1">
  <advance width="830"/>
  <unicode hex="00A9"/>
  <outline>
    <contour>
      <point x="616" y="-19"/>
      <point x="767" y="140"/>
      <point x="767" y="332" type="curve" smooth="yes"/>
      <point x="767" y="529"/>
      <point x="609" y="686"/>
      <point x="414" y="686" type="curve" smooth="yes"/>
      <point x="220" y="686"/>
      <point x="62" y="530"/>
      <point x="62" y="331" type="curve" smooth="yes"/>
      <point x="62" y="131"/>
      <point x="220" y="-19"/>
      <point x="415" y="-19" type="curve" smooth="yes"/>
    </contour>
    <contour>
      <point x="254" y="42"/>
      <point x="123" y="166"/>
      <point x="123" y="331" type="curve" smooth="yes"/>
      <point x="123" y="495"/>
      <point x="254" y="625"/>
      <point x="415" y="625" type="curve" smooth="yes"/>
      <point x="576" y="625"/>
      <point x="706" y="494"/>
      <point x="706" y="334" type="curve" smooth="yes"/>
      <point x="706" y="173"/>
      <point x="576" y="42"/>
      <point x="413" y="42" type="curve" smooth="yes"/>
    </contour>
    <contour>
      <point x="548" y="232" type="line"/>
      <point x="506" y="213"/>
      <point x="470" y="205"/>
      <point x="439" y="205" type="curve" smooth="yes"/>
      <point x="351" y="205"/>
      <point x="306" y="270"/>
      <point x="306" y="341" type="curve" smooth="yes"/>
      <point x="306" y="388"/>
      <point x="326" y="437"/>
      <point x="367" y="472" type="curve"/>
      <point x="431" y="470"/>
      <point x="478" y="444"/>
      <point x="516" y="403" type="curve"/>
      <point x="575" y="457" type="line"/>
      <point x="535" y="509"/>
      <point x="483" y="529"/>
      <point x="426" y="529" type="curve" smooth="yes"/>
      <point x="299" y="529"/>
      <point x="231" y="429"/>
      <point x="231" y="329" type="curve" smooth="yes"/>
      <point x="231" y="232"/>
      <point x="295" y="135"/>
      <point x="429" y="133" type="curve"/>
      <point x="565" y="190" type="line"/>
    </contour>
  </outline>
</glyph>
<glyph name="guillemetleft" format="1">
  <advance width="506"/>
  <unicode hex="00AB"/>
  <outline>
    <contour>
      <point x="251" y="233" type="line"/>
      <point x="391" y="46" type="line"/>
      <point x="446" y="81" type="line"/>
      <point x="350" y="253" type="line"/>
      <point x="441" y="433" type="line"/>
      <point x="385" y="463" type="line"/>
      <point x="251" y="273" type="line"/>
    </contour>
    <contour>
      <point x="60" y="233" type="line"/>
      <point x="200" y="46" type="line"/>
      <point x="255" y="81" type="line"/>
      <point x="159" y="253" type="line"/>
      <point x="250" y="433" type="line"/>
      <point x="194" y="463" type="line"/>
      <point x="60" y="273" type="line"/>
    </contour>
  </outline>
</glyph>
<glyph name="logicalnot" format="1">
  <advance width="592"/>
  <unicode hex="00AC"/>
  <outline>
    <contour>
      <point x="60" y="264" type="line"/>
      <point x="60" y="199" type="line"/>
      <point x="532" y="199" type="line"/>
      <point x="532" y="264" type="line"/>
    </contour>
    <contour>
      <point x="455" y="264" type="line"/>
      <point x="455" y="0" type="line"/>
      <point x="532" y="0" type="line"/>
      <point x="532" y="264" type="line"/>
    </contour>
  </outline>
</glyph>
<glyph name="registered" format="1">
  <advance width="570"/>
  <unicode hex="00AE"/>
  <outline>
    <contour>
      <point x="554" y="658"/>
      <point x="441" y="768"/>
      <point x="285" y="768" type="curve" smooth="yes"/>
      <point x="130" y="768"/>
      <point x="16" y="660"/>
      <point x="16" y="504" type="curve" smooth="yes"/>
      <point x="16" y="352"/>
      <point x="123" y="240"/>
      <point x="283" y="240" type="curve" smooth="yes"/>
      <point x="441" y="240"/>
      <point x="554" y="348"/>
      <point x="554" y="503" type="curve" smooth="yes"/>
    </contour>
    <contour>
      <point x="512" y="368"/>
      <point x="415" y="281"/>
      <point x="281" y="281" type="curve" smooth="yes"/>
      <point x="142" y="281"/>
      <point x="58" y="373"/>
      <point x="58" y="501" type="curve" smooth="yes"/>
      <point x="58" y="634"/>
      <point x="150" y="729"/>
      <point x="285" y="729" type="curve" smooth="yes"/>
      <point x="420" y="729"/>
      <point x="512" y="635"/>
      <point x="512" y="503" type="curve" smooth="yes"/>
    </contour>
    <contour>
      <point x="143" y="650" type="line"/>
      <point x="143" y="620" type="line"/>
      <point x="203" y="616" type="line"/>
      <point x="202" y="650" type="line"/>
    </contour>
    <contour>
      <point x="181" y="373" type="line"/>
      <point x="237" y="373" type="line"/>
      <point x="237" y="650" type="line"/>
      <point x="181" y="650" type="line"/>
    </contour>
    <contour>
      <point x="338" y="603"/>
      <point x="348" y="583"/>
      <point x="348" y="564" type="curve" smooth="yes"/>
      <point x="348" y="536"/>
      <point x="329" y="512"/>
      <point x="260" y="512" type="curve" smooth="yes"/>
      <point x="240" y="512"/>
      <point x="230" y="514"/>
      <point x="216" y="518" type="curve"/>
      <point x="214" y="476" type="line"/>
      <point x="281" y="476" type="line" smooth="yes"/>
      <point x="373" y="476"/>
      <point x="408" y="521"/>
      <point x="408" y="564" type="curve" smooth="yes"/>
      <point x="408" y="611"/>
      <point x="366" y="650"/>
      <point x="285" y="650" type="curve"/>
      <point x="228" y="650" type="line"/>
      <point x="225" y="609" type="line"/>
      <point x="305" y="616" type="line"/>
    </contour>
    <contour>
      <point x="202" y="417"/>
      <point x="157" y="404"/>
      <point x="140" y="395" type="curve"/>
      <point x="144" y="373" type="line"/>
      <point x="193" y="373" type="line"/>
      <point x="202" y="417" type="line"/>
    </contour>
    <contour>
      <point x="216" y="373" type="line"/>
      <point x="285" y="373" type="line"/>
      <point x="286" y="401" type="line"/>
      <point x="218" y="407" type="line"/>
    </contour>
    <contour>
      <point x="273" y="504" type="line"/>
      <point x="352" y="373" type="line"/>
      <point x="421" y="373" type="line"/>
      <point x="330" y="509" type="line"/>
    </contour>
    <contour>
      <point x="364" y="373" type="line"/>
      <point x="433" y="373" type="line"/>
      <point x="434" y="401" type="line"/>
      <point x="366" y="407" type="line"/>
    </contour>
  </outline>
</glyph>
<glyph name="degree" format="1">
  <advance width="353"/>
  <unicode hex="00B0"/>
  <outline>
    <contour>
      <point x="193" y="423"/>
      <point x="181" y="422"/>
      <point x="171" y="422" type="curve" smooth="yes"/>
      <point x="117" y="422"/>
      <point x="88" y="466"/>
      <point x="88" y="511" type="curve" smooth="yes"/>
      <point x="88" y="535"/>
      <point x="96" y="559"/>
      <point x="112" y="578" type="curve"/>
      <point x="127" y="584"/>
      <point x="140" y="587"/>
      <point x="153" y="587" type="curve" smooth="yes"/>
      <point x="203" y="587"/>
      <point x="234" y="541"/>
      <point x="234" y="495" type="curve" smooth="yes"/>
      <point x="234" y="470"/>
      <point x="225" y="445"/>
      <point x="205" y="427" type="curve"/>
    </contour>
    <contour>
      <point x="30" y="426"/>
      <point x="92" y="374"/>
      <point x="164" y="374" type="curve" smooth="yes"/>
      <point x="239" y="374"/>
      <point x="293" y="425"/>
      <point x="293" y="505" type="curve" smooth="yes"/>
      <point x="293" y="579"/>
      <point x="235" y="637"/>
      <point x="160" y="637" type="curve" smooth="yes"/>
      <point x="87" y="637"/>
      <point x="30" y="579"/>
      <point x="30" y="505" type="curve" smooth="yes"/>
    </contour>
  </outline>
</glyph>
<glyph name="plusminus" format="1">
  <advance width="531"/>
  <unicode hex="00B1"/>
  <outline>
    <contour>
      <point x="304" y="383" type="line"/>
      <point x="304" y="563" type="line"/>
      <point x="227" y="563" type="line"/>
      <point x="227" y="383" type="line"/>
      <point x="60" y="383" type="line"/>
      <point x="60" y="321" type="line"/>
      <point x="227" y="321" type="line"/>
      <point x="227" y="138" type="line"/>
      <point x="304" y="138" type="line"/>
      <point x="304" y="321" type="line"/>
      <point x="471" y="321" type="line"/>
      <point x="471" y="383" type="line"/>
    </contour>
    <contour>
      <point x="66" y="62" type="line"/>
      <point x="67" y="0" type="line"/>
      <point x="461" y="0" type="line"/>
      <point x="461" y="62" type="line"/>
    </contour>
  </outline>
</glyph>
<glyph name="twosuperior" format="1">
  <advance width="279"/>
  <unicode hex="00B2"/>
  <outline>
    <contour>
      <point x="71" y="632" type="line"/>
      <point x="88" y="712" type="line"/>
      <point x="25" y="717" type="line"/>
      <point x="23" y="692"/>
      <point x="26" y="657"/>
      <point x="31" y="632" type="curve"/>
    </contour>
    <contour>
      <point x="34" y="426" type="line"/>
      <point x="245" y="426" type="line"/>
      <point x="256" y="493" type="line"/>
      <point x="101" y="472" type="line"/>
      <point x="99" y="478" type="line"/>
      <point x="192" y="547"/>
      <point x="241" y="602"/>
      <point x="241" y="655" type="curve" smooth="yes"/>
      <point x="241" y="702"/>
      <point x="204" y="751"/>
      <point x="131" y="751" type="curve" smooth="yes"/>
      <point x="90" y="751"/>
      <point x="54" y="736"/>
      <point x="25" y="717" type="curve"/>
      <point x="59" y="698" type="line"/>
      <point x="80" y="707"/>
      <point x="106" y="711"/>
      <point x="119" y="711" type="curve" smooth="yes"/>
      <point x="150" y="711"/>
      <point x="176" y="691"/>
      <point x="176" y="654" type="curve" smooth="yes"/>
      <point x="176" y="639"/>
      <point x="172" y="614"/>
      <point x="110" y="552" type="curve" smooth="yes"/>
      <point x="20" y="463" type="line"/>
    </contour>
  </outline>
</glyph>
<glyph name="threesuperior" format="1">
  <advance width="287"/>
  <unicode hex="00B3"/>
  <outline>
    <contour>
      <point x="109" y="720" type="line"/>
      <point x="43" y="722" type="line"/>
      <point x="41" y="698"/>
      <point x="43" y="673"/>
      <point x="48" y="649" type="curve"/>
      <point x="83" y="648" type="line"/>
    </contour>
    <contour>
      <point x="92" y="601" type="line"/>
      <point x="93" y="561" type="line"/>
      <point x="181" y="589" type="line"/>
      <point x="181" y="593" type="line"/>
      <point x="225" y="605"/>
      <point x="242" y="641"/>
      <point x="242" y="670" type="curve" smooth="yes"/>
      <point x="242" y="717"/>
      <point x="196" y="751"/>
      <point x="139" y="751" type="curve" smooth="yes"/>
      <point x="107" y="751"/>
      <point x="68" y="740"/>
      <point x="43" y="722" type="curve"/>
      <point x="61" y="698" type="line"/>
      <point x="81" y="708"/>
      <point x="101" y="713"/>
      <point x="120" y="713" type="curve" smooth="yes"/>
      <point x="154" y="713"/>
      <point x="180" y="695"/>
      <point x="180" y="664" type="curve" smooth="yes"/>
      <point x="180" y="640"/>
      <point x="163" y="601"/>
      <point x="97" y="601" type="curve" smooth="yes"/>
    </contour>
    <contour>
      <point x="30" y="442" type="line"/>
      <point x="67" y="425"/>
      <point x="108" y="416"/>
      <point x="142" y="416" type="curve" smooth="yes"/>
      <point x="205" y="416"/>
      <point x="258" y="447"/>
      <point x="258" y="506" type="curve" smooth="yes"/>
      <point x="258" y="559"/>
      <point x="216" y="597"/>
      <point x="163" y="592" type="curve"/>
      <point x="173" y="602" type="line"/>
      <point x="92" y="601" type="line"/>
      <point x="85" y="601" type="line"/>
      <point x="85" y="560" type="line"/>
      <point x="118" y="560" type="line" smooth="yes"/>
      <point x="173" y="560"/>
      <point x="199" y="531"/>
      <point x="199" y="502" type="curve" smooth="yes"/>
      <point x="199" y="488"/>
      <point x="193" y="474"/>
      <point x="181" y="464" type="curve"/>
      <point x="142" y="461"/>
      <point x="89" y="480"/>
      <point x="49" y="502" type="curve"/>
    </contour>
  </outline>
</glyph>
<glyph name="paragraph" format="1">
  <advance width="610"/>
  <unicode hex="00B6"/>
  <outline>
    <contour>
      <point x="291" y="684" type="line"/>
      <point x="92" y="697"/>
      <point x="0" y="590"/>
      <point x="0" y="483" type="curve" smooth="yes"/>
      <point x="0" y="401"/>
      <point x="55" y="324"/>
      <point x="158" y="289" type="curve"/>
      <point x="196" y="326" type="line"/>
      <point x="156" y="375"/>
      <point x="139" y="408"/>
      <point x="139" y="457" type="curve" smooth="yes"/>
      <point x="139" y="578"/>
      <point x="240" y="614"/>
      <point x="378" y="604" type="curve" smooth="yes"/>
      <point x="553" y="589" type="line"/>
      <point x="560" y="646" type="line"/>
    </contour>
    <contour>
      <point x="280" y="-165" type="line"/>
      <point x="280" y="-91" type="line"/>
      <point x="280" y="-91"/>
      <point x="198" y="-108"/>
      <point x="150" y="-130" type="curve"/>
      <point x="156" y="-165" type="line"/>
    </contour>
    <contour>
      <point x="574" y="-165" type="line"/>
      <point x="575" y="-118" type="line"/>
      <point x="437" y="-102" type="line"/>
      <point x="434" y="-165" type="line"/>
    </contour>
    <contour>
      <point x="268" y="-165" type="line"/>
      <point x="333" y="-165" type="line"/>
      <point x="333" y="609" type="line"/>
      <point x="268" y="609" type="line"/>
    </contour>
    <contour>
      <point x="413" y="-165" type="line"/>
      <point x="478" y="-165" type="line"/>
      <point x="478" y="609" type="line"/>
      <point x="413" y="609" type="line"/>
    </contour>
  </outline>
</glyph>
<glyph name="periodcentered" format="1">
  <advance width="199"/>
  <unicode hex="00B7"/>
  <outline>
    <contour>
      <point x="118" y="205"/>
      <point x="140" y="233"/>
      <point x="149" y="257" type="curve"/>
      <point x="136" y="274"/>
      <point x="108" y="300"/>
      <point x="84" y="309" type="curve"/>
      <point x="64" y="297"/>
      <point x="43" y="269"/>
      <point x="30" y="243" type="curve"/>
      <point x="44" y="223"/>
      <point x="76" y="199"/>
      <point x="97" y="191" type="curve"/>
    </contour>
  </outline>
</glyph>
<glyph name="ordmasculine" format="1">
  <advance width="414"/>
  <unicode hex="00BA"/>
  <outline>
    <contour>
      <point x="191" y="286" type="curve"/>
      <point x="269" y="286"/>
      <point x="344" y="340"/>
      <point x="344" y="453" type="curve"/>
      <point x="344" y="565"/>
      <point x="270" y="629"/>
      <point x="193" y="629" type="curve"/>
      <point x="117" y="629"/>
      <point x="37" y="568"/>
      <point x="37" y="457" type="curve"/>
      <point x="37" y="356"/>
      <point x="103" y="286"/>
    </contour>
    <contour>
      <point x="20" y="255" type="line"/>
      <point x="20" y="204" type="line"/>
      <point x="364" y="204" type="line"/>
      <point x="364" y="255" type="line"/>
    </contour>
    <contour>
      <point x="204" y="332" type="curve"/>
      <point x="134" y="332"/>
      <point x="109" y="396"/>
      <point x="109" y="461" type="curve"/>
      <point x="109" y="513"/>
      <point x="125" y="563"/>
      <point x="145" y="578" type="curve"/>
      <point x="155" y="582"/>
      <point x="164" y="584"/>
      <point x="176" y="584" type="curve"/>
      <point x="252" y="584"/>
      <point x="271" y="497"/>
      <point x="271" y="439" type="curve"/>
      <point x="271" y="373"/>
      <point x="246" y="341"/>
      <point x="235" y="336" type="curve"/>
      <point x="224" y="333"/>
      <point x="213" y="332"/>
    </contour>
  </outline>
</glyph>
<glyph name="AE" format="1">
  <advance width="909"/>
  <unicode hex="00C6"/>
  <outline>
    <contour>
      <point x="337" y="650" type="line"/>
      <point x="336" y="602" type="line"/>
      <point x="432" y="596" type="line"/>
      <point x="492" y="650" type="line"/>
    </contour>
    <contour>
      <point x="848" y="650" type="line"/>
      <point x="455" y="650" type="line"/>
      <point x="530" y="586" type="line"/>
      <point x="831" y="573" type="line"/>
    </contour>
    <contour>
      <point x="417" y="647" type="line"/>
      <point x="67" y="0" type="line"/>
      <point x="147" y="0" type="line"/>
      <point x="474" y="622" type="line"/>
    </contour>
    <contour>
      <point x="461" y="650" type="line"/>
      <point x="461" y="0" type="line"/>
      <point x="554" y="0" type="line"/>
      <point x="554" y="650" type="line"/>
    </contour>
    <contour>
      <point x="253" y="262" type="line"/>
      <point x="253" y="201" type="line"/>
      <point x="544" y="201" type="line"/>
      <point x="544" y="262" type="line"/>
    </contour>
    <contour>
      <point x="109" y="70"/>
      <point x="37" y="49"/>
      <point x="10" y="35" type="curve"/>
      <point x="16" y="0" type="line"/>
      <point x="110" y="0" type="line"/>
      <point x="109" y="70" type="line"/>
    </contour>
    <contour>
      <point x="134" y="0" type="line"/>
      <point x="274" y="0" type="line"/>
      <point x="275" y="47" type="line"/>
      <point x="137" y="63" type="line"/>
    </contour>
    <contour>
      <point x="475" y="70"/>
      <point x="403" y="49"/>
      <point x="376" y="35" type="curve"/>
      <point x="382" y="0" type="line"/>
      <point x="476" y="0" type="line"/>
      <point x="475" y="70" type="line"/>
    </contour>
    <contour>
      <point x="530" y="64" type="line"/>
      <point x="455" y="0" type="line"/>
      <point x="848" y="0" type="line"/>
      <point x="831" y="77" type="line"/>
    </contour>
    <contour>
      <point x="543" y="353" type="line"/>
      <point x="543" y="294" type="line"/>
      <point x="783" y="284" type="line"/>
      <point x="783" y="371" type="line"/>
    </contour>
    <contour>
      <point x="773" y="40" type="line"/>
      <point x="848" y="0" type="line"/>
      <point x="856" y="43"/>
      <point x="862" y="126"/>
      <point x="860" y="179" type="curve"/>
      <point x="807" y="183" type="line"/>
    </contour>
    <contour>
      <point x="838" y="485" type="line"/>
      <point x="849" y="546"/>
      <point x="851" y="617"/>
      <point x="848" y="650" type="curve"/>
      <point x="768" y="605" type="line"/>
      <point x="784" y="485" type="line"/>
    </contour>
    <contour>
      <point x="534" y="650" type="move" name="top"/>
    </contour>
  </outline>
</glyph>
<glyph name="multiply" format="1">
  <advance width="570"/>
  <unicode hex="00D7"/>
  <outline>
    <contour>
      <point x="285" y="285" type="line"/>
      <point x="127" y="453" type="line"/>
      <point x="75" y="409" type="line"/>
      <point x="238" y="238" type="line"/>
      <point x="77" y="70" type="line"/>
      <point x="127" y="22" type="line"/>
      <point x="285" y="191" type="line"/>
      <point x="443" y="22" type="line"/>
      <point x="492" y="69" type="line"/>
      <point x="331" y="238" type="line"/>
      <point x="495" y="409" type="line"/>
      <point x="443" y="455" type="line"/>
    </contour>
  </outline>
</glyph>
<glyph name="Oslash" format="1">
  <advance width="652"/>
  <unicode hex="00D8"/>
  <outline>
    <contour>
      <point x="118" y="-47" type="line"/>
      <point x="179" y="-81" type="line"/>
      <point x="579" y="693" type="line"/>
      <point x="519" y="729" type="line"/>
    </contour>
    <component base="O"/>
  </outline>
</glyph>
<glyph name="Thorn" format="1">
  <advance width="569"/>
  <unicode hex="00DE"/>
  <outline>
    <contour>
      <point x="165" y="229" type="curve"/>
      <point x="162" y="155" type="line"/>
      <point x="300" y="155" type="line" smooth="yes"/>
      <point x="465" y="155"/>
      <point x="549" y="240"/>
      <point x="549" y="335" type="curve"/>
      <point x="549" y="421"/>
      <point x="479" y="517"/>
      <point x="320" y="517" type="curve"/>
      <point x="184" y="517" type="line"/>
      <point x="189" y="432" type="line"/>
      <point x="368" y="463" type="line"/>
      <point x="422" y="436"/>
      <point x="448" y="390"/>
      <point x="448" y="339" type="curve"/>
      <point x="448" y="276"/>
      <point x="407" y="219"/>
      <point x="273" y="219" type="curve"/>
      <point x="226" y="219"/>
      <point x="199" y="226"/>
    </contour>
    <contour>
      <point x="30" y="35" type="curve"/>
      <point x="36" y="0" type="line"/>
      <point x="130" y="0" type="line"/>
      <point x="129" y="70" type="line"/>
      <point x="129" y="70"/>
      <point x="57" y="49"/>
    </contour>
    <contour>
      <point x="172" y="63" type="line"/>
      <point x="169" y="0" type="line"/>
      <point x="309" y="0" type="line"/>
      <point x="310" y="47" type="line"/>
    </contour>
    <contour>
      <point x="120" y="650" type="line"/>
      <point x="120" y="0" type="line"/>
      <point x="213" y="0" type="line"/>
      <point x="213" y="650" type="line"/>
    </contour>
    <contour>
      <point x="38" y="603" type="line"/>
      <point x="176" y="587" type="line"/>
      <point x="179" y="650" type="line"/>
      <point x="39" y="650" type="line"/>
    </contour>
    <contour>
      <point x="206" y="650" type="line"/>
      <point x="207" y="580" type="line"/>
      <point x="207" y="580"/>
      <point x="279" y="601"/>
      <point x="306" y="615" type="curve"/>
      <point x="300" y="650" type="line"/>
    </contour>
  </outline>
</glyph>
<glyph name="germandbls" format="1">
  <advance width="543"/>
  <unicode hex="00DF"/>
  <outline>
    <contour>
      <point x="171" y="686"/>
      <point x="83" y="623"/>
      <point x="83" y="479" type="curve" smooth="yes"/>
      <point x="83" y="0" type="line"/>
      <point x="169" y="0" type="line"/>
      <point x="169" y="434" type="line"/>
      <point x="157" y="585" type="line"/>
      <point x="212" y="622"/>
      <point x="292" y="622"/>
      <point x="335" y="607" type="curve"/>
      <point x="407" y="505"/>
      <point x="290" y="409"/>
      <point x="247" y="325" type="curve"/>
      <point x="247" y="232"/>
      <point x="434" y="202"/>
      <point x="434" y="104" type="curve" smooth="yes"/>
      <point x="434" y="84"/>
      <point x="426" y="64"/>
      <point x="412" y="44" type="curve"/>
      <point x="353" y="53"/>
      <point x="295" y="84"/>
      <point x="263" y="105" type="curve"/>
      <point x="225" y="21" type="line"/>
      <point x="267" y="-2"/>
      <point x="315" y="-16"/>
      <point x="360" y="-16" type="curve" smooth="yes"/>
      <point x="447" y="-16"/>
      <point x="519" y="34"/>
      <point x="519" y="120" type="curve" smooth="yes"/>
      <point x="519" y="255"/>
      <point x="344" y="277"/>
      <point x="317" y="353" type="curve"/>
      <point x="406" y="404"/>
      <point x="443" y="460"/>
      <point x="443" y="520" type="curve" smooth="yes"/>
      <point x="443" y="604"/>
      <point x="370" y="686"/>
      <point x="264" y="686" type="curve" smooth="yes"/>
    </contour>
    <contour>
      <point x="107" y="394" type="line"/>
      <point x="150" y="444" type="line"/>
      <point x="128" y="468" type="line"/>
      <point x="93" y="465"/>
      <point x="55" y="458"/>
      <point x="15" y="440" type="curve"/>
      <point x="21" y="391" type="line"/>
    </contour>
    <contour>
      <point x="99" y="0" type="line"/>
      <point x="113" y="67" type="line"/>
      <point x="88" y="60"/>
      <point x="39" y="45"/>
      <point x="15" y="33" type="curve"/>
      <point x="20" y="0" type="line"/>
    </contour>
  </outline>
</glyph>
<glyph name="ae" format="1">
  <advance width="746"/>
  <unicode hex="00E6"/>
  <outline>
    <contour>
      <point x="65" y="379"/>
      <point x="74" y="334"/>
      <point x="92" y="301" type="curve"/>
      <point x="145" y="305" type="line"/>
      <point x="153" y="409" type="line"/>
      <point x="180" y="417"/>
      <point x="228" y="425"/>
      <point x="266" y="426" type="curve"/>
      <point x="302" y="408"/>
      <point x="315" y="381"/>
      <point x="315" y="319" type="curve" smooth="yes"/>
      <point x="315" y="192" type="line"/>
      <point x="360" y="173" type="line"/>
      <point x="393" y="413" type="line"/>
      <point x="379" y="443"/>
      <point x="331" y="493"/>
      <point x="285" y="493" type="curve" smooth="yes"/>
      <point x="245" y="493"/>
      <point x="123" y="455"/>
      <point x="63" y="421" type="curve"/>
    </contour>
    <contour>
      <point x="70" y="183"/>
      <point x="50" y="142"/>
      <point x="50" y="104" type="curve" smooth="yes"/>
      <point x="50" y="46"/>
      <point x="97" y="-26"/>
      <point x="207" y="-14" type="curve"/>
      <point x="370" y="69" type="line"/>
      <point x="368" y="117" type="line"/>
      <point x="337" y="102"/>
      <point x="228" y="56"/>
      <point x="170" y="58" type="curve"/>
      <point x="152" y="69"/>
      <point x="144" y="86"/>
      <point x="144" y="104" type="curve" smooth="yes"/>
      <point x="144" y="168"/>
      <point x="246" y="171"/>
      <point x="320" y="164" type="curve"/>
      <point x="336" y="163" type="line"/>
      <point x="340" y="217" type="line"/>
      <point x="120" y="211" type="line"/>
    </contour>
    <contour>
      <point x="401" y="262" type="line"/>
      <point x="666" y="257" type="line"/>
      <point x="723" y="313" type="line"/>
      <point x="712" y="328" type="line"/>
      <point x="401" y="314" type="line"/>
    </contour>
    <contour>
      <point x="701" y="94" type="line"/>
      <point x="656" y="74"/>
      <point x="615" y="61"/>
      <point x="569" y="61" type="curve" smooth="yes"/>
      <point x="481" y="61"/>
      <point x="404" y="110"/>
      <point x="404" y="249" type="curve" smooth="yes"/>
      <point x="404" y="329"/>
      <point x="430" y="393"/>
      <point x="494" y="427" type="curve"/>
      <point x="582" y="433"/>
      <point x="648" y="366"/>
      <point x="638" y="278" type="curve"/>
      <point x="723" y="313" type="line"/>
      <point x="725" y="414"/>
      <point x="648" y="488"/>
      <point x="544" y="488" type="curve" smooth="yes"/>
      <point x="479" y="488"/>
      <point x="424" y="459"/>
      <point x="385" y="415" type="curve"/>
      <point x="353" y="229" type="line"/>
      <point x="315" y="226" type="line"/>
      <point x="315" y="101"/>
      <point x="396" y="-15"/>
      <point x="560" y="-15" type="curve"/>
      <point x="716" y="51" type="line"/>
    </contour>
    <contour>
      <point x="703" y="51" type="move" name="ogonek"/>
    </contour>
    <contour>
      <point x="524" y="0" type="move" name="bottom"/>
    </contour>
    <contour>
      <point x="524" y="468" type="move" name="top"/>
    </contour>
  </outline>
</glyph>
<glyph name="thorn" format="1">
  <advance width="523"/>
  <unicode hex="00FE"/>
  <outline>
    <contour>
      <point x="-8" y="657" type="line"/>
      <point x="85" y="664" type="line"/>
      <point x="129" y="710" type="line"/>
      <point x="116" y="735" type="line"/>
      <point x="74" y="734"/>
      <point x="20" y="722"/>
      <point x="-20" y="704" type="curve"/>
    </contour>
    <contour>
      <point x="116" y="735" type="line"/>
      <point x="66" y="698" type="line"/>
      <point x="66" y="24" type="line"/>
      <point x="156" y="47" type="line"/>
      <point x="156" y="699" type="line"/>
    </contour>
    <contour>
      <point x="67" y="-204" type="line"/>
      <point x="156" y="-204" type="line"/>
      <point x="156" y="449" type="line"/>
      <point x="117" y="484" type="line"/>
      <point x="67" y="447" type="line"/>
    </contour>
    <contour>
      <point x="85" y="-204" type="line"/>
      <point x="99" y="-137" type="line"/>
      <point x="74" y="-144"/>
      <point x="25" y="-159"/>
      <point x="1" y="-171" type="curve"/>
      <point x="6" y="-204" type="line"/>
    </contour>
    <contour>
      <point x="232" y="-204" type="line"/>
      <point x="238" y="-156" type="line"/>
      <point x="215" y="-146"/>
      <point x="174" y="-140"/>
      <point x="140" y="-137" type="curve"/>
      <point x="139" y="-204" type="line"/>
    </contour>
    <contour>
      <point x="130" y="334" type="line"/>
      <point x="181" y="370"/>
      <point x="233" y="403"/>
      <point x="281" y="403" type="curve" smooth="yes"/>
      <point x="355" y="403"/>
      <point x="404" y="320"/>
      <point x="404" y="230" type="curve" smooth="yes"/>
      <point x="404" y="158"/>
      <point x="373" y="83"/>
      <point x="319" y="50" type="curve"/>
      <point x="216" y="34"/>
      <point x="146" y="84"/>
      <point x="131" y="113" type="curve"/>
      <point x="69" y="24" type="line"/>
      <point x="130" y="-4"/>
      <point x="186" y="-19"/>
      <point x="240" y="-19" type="curve" smooth="yes"/>
      <point x="391" y="-19"/>
      <point x="498" y="96"/>
      <point x="498" y="250" type="curve" smooth="yes"/>
      <point x="498" y="390"/>
      <point x="409" y="509"/>
      <point x="276" y="481" type="curve"/>
      <point x="121" y="383" type="line"/>
    </contour>
  </outline>
</glyph>
<glyph name="Dcroat" format="1">
  <advance width="655"/>
  <unicode hex="0110"/>
  <outline>
    <contour>
      <point x="17" y="315" type="line"/>
      <point x="23" y="286" type="line"/>
      <point x="325" y="286" type="line"/>
      <point x="368" y="329" type="line"/>
      <point x="362" y="358" type="line"/>
      <point x="60" y="358" type="line"/>
    </contour>
    <component base="D"/>
  </outline>
</glyph>
<glyph name="dcroat" format="1">
  <advance width="545"/>
  <unicode hex="0111"/>
  <outline>
    <contour>
      <point x="223" y="577" type="line"/>
      <point x="229" y="548" type="line"/>
      <point x="502" y="548" type="line"/>
      <point x="545" y="573" type="line"/>
      <point x="539" y="602" type="line"/>
      <point x="266" y="602" type="line"/>
    </contour>
    <component base="d"/>
  </outline>
</glyph>
<glyph name="eogonek" format="1">
  <advance width="470"/>
  <unicode hex="0119"/>
  <outline>
    <contour>
      <point x="300" y="-226" type="curve"/>
      <point x="416" y="-172" type="line"/>
      <point x="399" y="-133" type="line"/>
      <point x="305" y="-184"/>
      <point x="255" y="-150"/>
      <point x="255" y="-101" type="curve"/>
      <point x="255" y="-52"/>
      <point x="304" y="-6"/>
      <point x="374" y="28" type="curve"/>
      <point x="421" y="51" type="line"/>
      <point x="377" y="61" type="line"/>
      <point x="256" y="18"/>
      <point x="182" y="-56"/>
      <point x="182" y="-124" type="curve"/>
      <point x="182" y="-177"/>
      <point x="225" y="-230"/>
    </contour>
    <component base="e"/>
  </outline>
</glyph>
<glyph name="imacron" format="1">
  <advance width="316"/>
  <unicode hex="012B"/>
  <outline>
    <contour>
      <point x="15" y="626" type="curve"/>
      <point x="21" y="582" type="line"/>
      <point x="249" y="582" type="line"/>
      <point x="296" y="616" type="line"/>
      <point x="291" y="651" type="line"/>
      <point x="128" y="651" type="line"/>
      <point x="97" y="651"/>
      <point x="54" y="646"/>
    </contour>
    <component base="dotlessi" xOffset="26"/>
  </outline>
</glyph>
<glyph name="dotlessi" format="1">
  <advance width="276"/>
  <unicode hex="0131"/>
  <outline>
    <contour>
      <point x="120" y="413" type="line"/>
      <point x="164" y="459" type="line"/>
      <point x="151" y="484" type="line"/>
      <point x="109" y="483"/>
      <point x="55" y="471"/>
      <point x="15" y="453" type="curve"/>
      <point x="27" y="406" type="line"/>
    </contour>
    <contour>
      <point x="102" y="0" type="line"/>
      <point x="191" y="0" type="line"/>
      <point x="191" y="449" type="line"/>
      <point x="151" y="484" type="line"/>
      <point x="102" y="447" type="line"/>
    </contour>
    <contour>
      <point x="250" y="0" type="line"/>
      <point x="256" y="48" type="line"/>
      <point x="233" y="58"/>
      <point x="192" y="64"/>
      <point x="158" y="67" type="curve"/>
      <point x="157" y="0" type="line"/>
    </contour>
    <contour>
      <point x="115" y="0" type="line"/>
      <point x="129" y="67" type="line"/>
      <point x="104" y="60"/>
      <point x="55" y="45"/>
      <point x="31" y="33" type="curve"/>
      <point x="36" y="0" type="line"/>
    </contour>
    <contour>
      <point x="257" y="10" type="move" name="ogonek"/>
    </contour>
    <contour>
      <point x="129" y="468" type="move" name="top"/>
    </contour>
  </outline>
</glyph>
<glyph name="Lslash" format="1">
  <advance width="564"/>
  <unicode hex="0141"/>
  <outline>
    <contour>
      <point x="30" y="258" type="line"/>
      <point x="63" y="199" type="line"/>
      <point x="374" y="380" type="line"/>
      <point x="385" y="433" type="line"/>
      <point x="367" y="456" type="line"/>
    </contour>
    <component base="L" xOffset="16"/>
  </outline>
</glyph>
<glyph name="lslash" format="1">
  <advance width="358"/>
  <unicode hex="0142"/>
  <outline>
    <contour>
      <point x="15" y="318" type="line"/>
      <point x="45" y="265" type="line"/>
      <point x="312" y="415" type="line"/>
      <point x="313" y="458" type="line"/>
      <point x="291" y="475" type="line"/>
    </contour>
    <component base="l" xOffset="20"/>
  </outline>
</glyph>
<glyph name="OE" format="1">
  <advance width="881"/>
  <unicode hex="0152"/>
  <outline>
    <contour>
      <point x="328" y="-11" type="curve"/>
      <point x="393" y="-11"/>
      <point x="457" y="-2"/>
      <point x="509" y="39" type="curve"/>
      <point x="459" y="85" type="line"/>
      <point x="430" y="59"/>
      <point x="385" y="59"/>
      <point x="341" y="59" type="curve"/>
      <point x="188" y="59"/>
      <point x="122" y="191"/>
      <point x="122" y="326" type="curve"/>
      <point x="122" y="426"/>
      <point x="159" y="528"/>
      <point x="223" y="575" type="curve"/>
      <point x="256" y="587"/>
      <point x="294" y="593"/>
      <point x="333" y="593" type="curve"/>
      <point x="409" y="593"/>
      <point x="484" y="570"/>
      <point x="512" y="522" type="curve"/>
      <point x="523" y="622" type="line"/>
      <point x="473" y="650"/>
      <point x="411" y="663"/>
      <point x="353" y="663" type="curve"/>
      <point x="205" y="663"/>
      <point x="20" y="572"/>
      <point x="20" y="334" type="curve"/>
      <point x="20" y="89"/>
      <point x="174" y="-11"/>
    </contour>
    <contour>
      <point x="502" y="64" type="line"/>
      <point x="423" y="0" type="line"/>
      <point x="820" y="0" type="line"/>
      <point x="803" y="77" type="line"/>
    </contour>
    <contour>
      <point x="439" y="650" type="line"/>
      <point x="439" y="0" type="line"/>
      <point x="532" y="0" type="line"/>
      <point x="532" y="650" type="line"/>
    </contour>
    <contour>
      <point x="745" y="40" type="line"/>
      <point x="820" y="0" type="line"/>
      <point x="828" y="43"/>
      <point x="834" y="126"/>
      <point x="832" y="179" type="curve"/>
      <point x="779" y="183" type="line"/>
    </contour>
    <contour>
      <point x="513" y="294" type="line"/>
      <point x="753" y="284" type="line"/>
      <point x="753" y="371" type="line"/>
      <point x="513" y="353" type="line"/>
    </contour>
    <contour>
      <point x="502" y="586" type="line"/>
      <point x="803" y="573" type="line"/>
      <point x="820" y="650" type="line"/>
      <point x="427" y="650" type="line"/>
    </contour>
    <contour>
      <point x="740" y="605" type="line"/>
      <point x="756" y="485" type="line"/>
      <point x="810" y="485" type="line"/>
      <point x="821" y="546"/>
      <point x="823" y="617"/>
      <point x="820" y="650" type="curve"/>
    </contour>
  </outline>
</glyph>
<glyph name="circumflexcomb" format="1">
  <advance width="0"/>
  <unicode hex="0302"/>
  <outline>
    <contour>
      <point x="-115" y="535" type="line"/>
      <point x="1" y="644" type="line"/>
      <point x="127" y="538" type="line"/>
      <point x="170" y="579" type="line"/>
      <point x="45" y="717" type="line"/>
      <point x="-36" y="717" type="line"/>
      <point x="-161" y="573" type="line"/>
    </contour>
    <contour>
      <point x="0" y="468" type="move" name="_top"/>
    </contour>
  </outline>
</glyph>
<glyph name="macroncomb" format="1">
  <advance width="0"/>
  <unicode hex="0304"/>
  <outline>
    <contour>
      <point x="-159" y="606" type="curve"/>
      <point x="-153" y="562" type="line"/>
      <point x="145" y="562" type="line"/>
      <point x="192" y="596" type="line"/>
      <point x="187" y="631" type="line"/>
      <point x="-46" y="631" type="line"/>
      <point x="-77" y="631"/>
      <point x="-120" y="626"/>
    </contour>
    <contour>
      <point x="1" y="468" type="move" name="_top"/>
    </contour>
  </outline>
</glyph>
<glyph name="brevecomb" format="1">
  <advance width="0"/>
  <unicode hex="0306"/>
  <outline>
    <contour>
      <point x="71" y="712" type="line"/>
      <point x="70" y="655"/>
      <point x="44" y="619"/>
      <point x="0" y="619" type="curve" smooth="yes"/>
      <point x="-36" y="619"/>
      <point x="-67" y="642"/>
      <point x="-78" y="715" type="curve"/>
      <point x="-144" y="703" type="line"/>
      <point x="-133" y="595"/>
      <point x="-63" y="551"/>
      <point x="6" y="551" type="curve" smooth="yes"/>
      <point x="82" y="551"/>
      <point x="142" y="603"/>
      <point x="146" y="704" type="curve"/>
    </contour>
    <contour>
      <point x="-1" y="468" type="move" name="_top"/>
    </contour>
  </outline>
</glyph>
<glyph name="dieresiscomb" format="1">
  <advance width="0"/>
  <unicode hex="0308"/>
  <outline>
    <contour>
      <point x="108" y="551" type="curve"/>
      <point x="136" y="563"/>
      <point x="153" y="584"/>
      <point x="161" y="614" type="curve"/>
      <point x="155" y="644"/>
      <point x="129" y="666"/>
      <point x="98" y="677" type="curve"/>
      <point x="70" y="663"/>
      <point x="46" y="638"/>
      <point x="43" y="604" type="curve"/>
      <point x="55" y="576"/>
      <point x="76" y="559"/>
    </contour>
    <contour>
      <point x="-95" y="551" type="curve"/>
      <point x="-67" y="563"/>
      <point x="-50" y="584"/>
      <point x="-42" y="614" type="curve"/>
      <point x="-48" y="644"/>
      <point x="-74" y="666"/>
      <point x="-105" y="677" type="curve"/>
      <point x="-133" y="663"/>
      <point x="-157" y="638"/>
      <point x="-160" y="604" type="curve"/>
      <point x="-148" y="576"/>
      <point x="-127" y="559"/>
    </contour>
    <contour>
      <point x="0" y="468" type="move" name="_top"/>
    </contour>
  </outline>
</glyph>
<glyph name="hungarumlautcomb" format="1">
  <advance width="0"/>
  <unicode hex="030B"/>
  <outline>
    <contour>
      <point x="-88" y="532" type="line"/>
      <point x="-36" y="590"/>
      <point x="17" y="646"/>
      <point x="71" y="700" type="curve"/>
      <point x="-16" y="742" type="line"/>
      <point x="-143" y="570" type="line"/>
    </contour>
    <contour>
      <point x="93" y="532" type="line"/>
      <point x="145" y="590"/>
      <point x="198" y="646"/>
      <point x="252" y="700" type="curve"/>
      <point x="165" y="742" type="line"/>
      <point x="38" y="570" type="line"/>
    </contour>
    <contour>
      <point x="0" y="468" type="move" name="_top"/>
    </contour>
  </outline>
</glyph>
<glyph name="caroncomb" format="1">
  <advance width="0"/>
  <unicode hex="030C"/>
  <outline>
    <contour>
      <point x="-178" y="685" type="line"/>
      <point x="-44" y="541" type="line"/>
      <point x="37" y="543" type="line"/>
      <point x="156" y="701" type="line"/>
      <point x="105" y="743" type="line"/>
      <point x="-1" y="607" type="line"/>
      <point x="-115" y="742" type="line"/>
    </contour>
    <contour>
      <point x="0" y="468" type="move" name="_top"/>
    </contour>
  </outline>
</glyph>
<glyph name="commaaccentcomb" format="1">
  <advance width="0"/>
  <unicode hex="0326"/>
  <outline>
    <contour>
      <point x="-68" y="-239" type="curve"/>
      <point x="-26" y="-264" type="line"/>
      <point x="19" y="-215"/>
      <point x="83" y="-108"/>
      <point x="1" y="-59" type="curve"/>
      <point x="-61" y="-99" type="line"/>
      <point x="-59" y="-124" type="line"/>
      <point x="-20" y="-152"/>
      <point x="-30" y="-189"/>
    </contour>
    <contour>
      <point x="0" y="0" type="move" name="_bottom"/>
    </contour>
  </outline>
</glyph>
<glyph name="ogonekcomb" format="1">
  <advance width="0"/>
  <unicode hex="0328"/>
  <outline>
    <contour>
      <point x="-37" y="26" type="line"/>
      <point x="-134" y="-18"/>
      <point x="-192" y="-83"/>
      <point x="-192" y="-143" type="curve" smooth="yes"/>
      <point x="-192" y="-196"/>
      <point x="-149" y="-249"/>
      <point x="-74" y="-245" type="curve"/>
      <point x="42" y="-191" type="line"/>
      <point x="25" y="-152" type="line"/>
      <point x="-69" y="-203"/>
      <point x="-119" y="-169"/>
      <point x="-119" y="-120" type="curve" smooth="yes"/>
      <point x="-119" y="-71"/>
      <point x="-70" y="-25"/>
      <point x="0" y="9" type="curve" smooth="yes"/>
    </contour>
    <contour>
      <point x="0" y="9" type="move" name="_ogonek"/>
    </contour>
  </outline>
</glyph>
<glyph name="macronbelowcomb" format="1">
  <advance width="0"/>
  <unicode hex="0331"/>
  <outline>
    <contour>
      <point x="-97" y="-156"/>
      <point x="-140" y="-161"/>
      <point x="-179" y="-181" type="curve"/>
      <point x="-173" y="-225" type="line"/>
      <point x="125" y="-225" type="line"/>
      <point x="172" y="-191" type="line"/>
      <point x="167" y="-156" type="line"/>
      <point x="-66" y="-156" type="line"/>
    </contour>
    <contour>
      <point x="0" y="0" type="move" name="_bottom"/>
    </contour>
  </outline>
</glyph>
<glyph name="numeralsign" format="1">
  <advance width="265"/>
  <unicode hex="0374"/>
  <outline>
    <contour>
      <point x="53" y="536" type="line"/>
      <point x="101" y="517" type="line"/>
      <point x="211" y="712" type="line"/>
      <point x="211" y="730" type="line"/>
      <point x="187" y="749"/>
      <point x="154" y="764"/>
      <point x="117" y="765" type="curve"/>
    </contour>
  </outline>
</glyph>
<glyph name="Delta" format="1">
  <advance width="628"/>
  <unicode hex="0394"/>
  <outline>
    <contour>
      <point x="30" y="64" type="line"/>
      <point x="49" y="0" type="line"/>
      <point x="564" y="0" type="line"/>
      <point x="588" y="68" type="line"/>
      <point x="339" y="674" type="line"/>
      <point x="260" y="647" type="line"/>
      <point x="496" y="47" type="line"/>
      <point x="489" y="76" type="line"/>
      <point x="102" y="74" type="line"/>
      <point x="110" y="64" type="line"/>
      <point x="327" y="612" type="line"/>
      <point x="270" y="637" type="line"/>
    </contour>
  </outline>
</glyph>
<glyph name="Theta" format="1">
  <advance width="652"/>
  <unicode hex="0398"/>
  <outline>
    <contour>
      <point x="183" y="291" type="line"/>
      <point x="456" y="282" type="line"/>
      <point x="456" y="374" type="line"/>
      <point x="183" y="352" type="line"/>
    </contour>
    <component base="O"/>
  </outline>
</glyph>
<glyph name="Iota" format="1">
  <advance width="335"/>
  <unicode hex="0399"/>
  <outline>
    <component base="I"/>
    <contour>
      <point x="-112" y="343" type="move" name="left"/>
    </contour>
    <contour>
      <point x="166" y="650" type="move" name="top"/>
    </contour>
  </outline>
</glyph>
<glyph name="Xi" format="1">
  <advance width="616"/>
  <unicode hex="039E"/>
  <outline>
    <contour>
      <point x="57" y="656" type="curve"/>
      <point x="74" y="568" type="line"/>
      <point x="308" y="578" type="line"/>
      <point x="543" y="568" type="line"/>
      <point x="559" y="656" type="line"/>
      <point x="401" y="650"/>
      <point x="221" y="651"/>
    </contour>
    <contour>
      <point x="52" y="0" type="curve"/>
      <point x="127" y="40" type="line"/>
      <point x="93" y="185" type="line"/>
      <point x="40" y="181" type="line"/>
      <point x="38" y="128"/>
      <point x="44" y="43"/>
    </contour>
    <contour>
      <point x="68" y="84" type="line"/>
      <point x="52" y="0" type="line"/>
      <point x="564" y="0" type="line"/>
      <point x="547" y="84" type="line"/>
      <point x="308" y="74" type="line"/>
    </contour>
    <contour>
      <point x="489" y="40" type="line"/>
      <point x="564" y="0" type="line"/>
      <point x="572" y="43"/>
      <point x="578" y="128"/>
      <point x="576" y="181" type="curve"/>
      <point x="523" y="185" type="line"/>
    </contour>
    <contour>
      <point x="136" y="289" type="line"/>
      <point x="484" y="280" type="line"/>
      <point x="484" y="371" type="line"/>
      <point x="136" y="349" type="line"/>
    </contour>
    <contour>
      <point x="67" y="475" type="curve"/>
      <point x="121" y="475" type="line"/>
      <point x="137" y="611" type="line"/>
      <point x="57" y="656" type="line"/>
      <point x="54" y="621"/>
      <point x="55" y="539"/>
    </contour>
    <contour>
      <point x="479" y="611" type="line"/>
      <point x="495" y="475" type="line"/>
      <point x="549" y="475" type="line"/>
      <point x="561" y="539"/>
      <point x="562" y="621"/>
      <point x="559" y="656" type="curve"/>
    </contour>
  </outline>
</glyph>
<glyph name="Sigma" format="1">
  <advance width="580"/>
  <unicode hex="03A3"/>
  <outline>
    <contour>
      <point x="38" y="42" type="line"/>
      <point x="54" y="0" type="line"/>
      <point x="515" y="0" type="line"/>
      <point x="499" y="81" type="line"/>
      <point x="112" y="79" type="line"/>
      <point x="110" y="28" type="line"/>
      <point x="345" y="346" type="line"/>
      <point x="150" y="615" type="line"/>
      <point x="134" y="590" type="line"/>
      <point x="495" y="576" type="line"/>
      <point x="515" y="650" type="line"/>
      <point x="68" y="650" type="line"/>
      <point x="46" y="605" type="line"/>
      <point x="259" y="309" type="line"/>
      <point x="264" y="344" type="line"/>
    </contour>
    <contour>
      <point x="440" y="40" type="line"/>
      <point x="515" y="0" type="line"/>
      <point x="523" y="44"/>
      <point x="533" y="137"/>
      <point x="531" y="191" type="curve"/>
      <point x="478" y="195" type="line"/>
    </contour>
    <contour>
      <point x="435" y="605" type="line"/>
      <point x="451" y="485" type="line"/>
      <point x="505" y="485" type="line"/>
      <point x="516" y="546"/>
      <point x="518" y="617"/>
      <point x="515" y="650" type="curve"/>
    </contour>
  </outline>
</glyph>
<glyph name="Upsilon" format="1">
  <advance width="615"/>
  <unicode hex="03A5"/>
  <outline>
    <contour>
      <point x="257" y="159" type="curve"/>
      <point x="350" y="168" type="line"/>
      <point x="350" y="342"/>
      <point x="442" y="567"/>
      <point x="522" y="589" type="curve"/>
      <point x="512" y="587" type="line"/>
      <point x="605" y="587" type="line"/>
      <point x="615" y="622" type="line"/>
      <point x="592" y="639"/>
      <point x="555" y="654"/>
      <point x="518" y="654" type="curve"/>
      <point x="423" y="654"/>
      <point x="340" y="509"/>
      <point x="302" y="274" type="curve"/>
      <point x="315" y="264" type="line"/>
      <point x="298" y="421" type="line"/>
      <point x="246" y="579"/>
      <point x="186" y="654"/>
      <point x="107" y="654" type="curve"/>
      <point x="73" y="654"/>
      <point x="32" y="639"/>
      <point x="0" y="616" type="curve"/>
      <point x="10" y="581" type="line"/>
      <point x="101" y="587" type="line"/>
      <point x="86" y="589" type="line"/>
      <point x="168" y="547"/>
      <point x="257" y="324"/>
    </contour>
    <contour>
      <point x="171" y="32" type="curve"/>
      <point x="177" y="0" type="line"/>
      <point x="271" y="0" type="line"/>
      <point x="270" y="67" type="line"/>
      <point x="237" y="57"/>
      <point x="201" y="46"/>
    </contour>
    <contour>
      <point x="306" y="63" type="line"/>
      <point x="303" y="0" type="line"/>
      <point x="443" y="0" type="line"/>
      <point x="444" y="47" type="line"/>
    </contour>
    <contour>
      <point x="257" y="294" type="line"/>
      <point x="257" y="0" type="line"/>
      <point x="350" y="0" type="line"/>
      <point x="350" y="294" type="line"/>
    </contour>
    <contour>
      <point x="293" y="318" type="line"/>
      <point x="291" y="248" type="line"/>
      <point x="327" y="248" type="line"/>
      <point x="327" y="318" type="line"/>
    </contour>
    <contour>
      <point x="-126" y="343" type="move" name="left"/>
    </contour>
    <contour>
      <point x="313" y="650" type="move" name="top"/>
    </contour>
  </outline>
</glyph>
<glyph name="Psi" format="1">
  <advance width="798"/>
  <unicode hex="03A8"/>
  <outline>
    <contour>
      <point x="380" y="209" type="curve"/>
      <point x="422" y="209" type="line"/>
      <point x="566" y="217"/>
      <point x="649" y="286"/>
      <point x="676" y="422" type="curve"/>
      <point x="711" y="599" type="line"/>
      <point x="668" y="585" type="line"/>
      <point x="792" y="585" type="line"/>
      <point x="798" y="618" type="line"/>
      <point x="768" y="641"/>
      <point x="733" y="654"/>
      <point x="698" y="654" type="curve"/>
      <point x="651" y="654"/>
      <point x="620" y="619"/>
      <point x="610" y="556" type="curve"/>
      <point x="592" y="439" type="line" smooth="yes"/>
      <point x="582" y="376"/>
      <point x="555" y="312"/>
      <point x="535" y="293" type="curve"/>
      <point x="505" y="274"/>
      <point x="471" y="267"/>
      <point x="437" y="264" type="curve"/>
      <point x="381" y="264" type="line"/>
      <point x="287" y="272"/>
      <point x="231" y="314"/>
      <point x="213" y="439" type="curve"/>
      <point x="196" y="556" type="line" smooth="yes"/>
      <point x="187" y="620"/>
      <point x="155" y="654"/>
      <point x="105" y="654" type="curve"/>
      <point x="70" y="654"/>
      <point x="35" y="641"/>
      <point x="5" y="618" type="curve"/>
      <point x="11" y="585" type="line"/>
      <point x="135" y="585" type="line"/>
      <point x="92" y="599" type="line"/>
      <point x="127" y="420" type="line" smooth="yes"/>
      <point x="154" y="284"/>
      <point x="235" y="216"/>
    </contour>
    <contour>
      <point x="270" y="32" type="curve"/>
      <point x="276" y="0" type="line"/>
      <point x="370" y="0" type="line"/>
      <point x="369" y="67" type="line"/>
      <point x="322" y="52"/>
      <point x="297" y="43"/>
    </contour>
    <contour>
      <point x="407" y="63" type="line"/>
      <point x="404" y="0" type="line"/>
      <point x="544" y="0" type="line"/>
      <point x="545" y="47" type="line"/>
    </contour>
    <contour>
      <point x="355" y="650" type="line"/>
      <point x="355" y="0" type="line"/>
      <point x="448" y="0" type="line"/>
      <point x="448" y="650" type="line"/>
    </contour>
    <contour>
      <point x="278" y="603" type="line"/>
      <point x="416" y="587" type="line"/>
      <point x="419" y="650" type="line"/>
      <point x="279" y="650" type="line"/>
    </contour>
    <contour>
      <point x="433" y="650" type="line"/>
      <point x="434" y="583" type="line"/>
      <point x="466" y="593"/>
      <point x="484" y="600"/>
      <point x="528" y="618" type="curve"/>
      <point x="522" y="650" type="line"/>
    </contour>
  </outline>
</glyph>
<glyph name="Omega" format="1">
  <advance width="780"/>
  <unicode hex="03A9"/>
  <outline>
    <contour>
      <point x="49" y="78" type="line"/>
      <point x="32" y="0" type="line"/>
      <point x="324" y="0" type="line"/>
      <point x="343" y="60" type="line"/>
      <point x="235" y="151"/>
      <point x="189" y="246"/>
      <point x="189" y="376" type="curve"/>
      <point x="189" y="465"/>
      <point x="222" y="546"/>
      <point x="275" y="584" type="curve"/>
      <point x="306" y="595"/>
      <point x="336" y="601"/>
      <point x="369" y="601" type="curve"/>
      <point x="499" y="601"/>
      <point x="587" y="498"/>
      <point x="587" y="345" type="curve"/>
      <point x="587" y="233"/>
      <point x="544" y="150"/>
      <point x="441" y="60" type="curve"/>
      <point x="460" y="0" type="line"/>
      <point x="752" y="0" type="line"/>
      <point x="735" y="78" type="line"/>
      <point x="501" y="66" type="line"/>
      <point x="493" y="45" type="line"/>
      <point x="608" y="111"/>
      <point x="690" y="241"/>
      <point x="690" y="365" type="curve"/>
      <point x="690" y="536"/>
      <point x="560" y="670"/>
      <point x="390" y="670" type="curve"/>
      <point x="219" y="670"/>
      <point x="86" y="535"/>
      <point x="86" y="361" type="curve"/>
      <point x="86" y="223"/>
      <point x="166" y="105"/>
      <point x="300" y="46" type="curve"/>
      <point x="283" y="66" type="line"/>
    </contour>
    <contour>
      <point x="32" y="0" type="curve"/>
      <point x="107" y="40" type="line"/>
      <point x="73" y="183" type="line"/>
      <point x="20" y="179" type="line"/>
      <point x="18" y="134"/>
      <point x="24" y="51"/>
    </contour>
    <contour>
      <point x="677" y="40" type="line"/>
      <point x="752" y="0" type="line"/>
      <point x="760" y="51"/>
      <point x="766" y="134"/>
      <point x="764" y="179" type="curve"/>
      <point x="711" y="183" type="line"/>
    </contour>
    <contour>
      <point x="396" y="0" type="move" name="bottom"/>
    </contour>
    <contour>
      <point x="-15" y="343" type="move" name="left"/>
    </contour>
  </outline>
</glyph>
<glyph name="alpha" format="1">
  <advance width="541"/>
  <unicode hex="03B1"/>
  <note>
    
  </note>
  <outline>
    <contour>
      <point x="202" y="-14" type="curve"/>
      <point x="266" y="-14"/>
      <point x="321" y="38"/>
      <point x="365" y="141" type="curve"/>
      <point x="327" y="128" type="line"/>
      <point x="391" y="128" type="line"/>
      <point x="361" y="144" type="line"/>
      <point x="361" y="53"/>
      <point x="397" y="-14"/>
      <point x="447" y="-14" type="curve"/>
      <point x="480" y="-14"/>
      <point x="523" y="25"/>
      <point x="539" y="70" type="curve"/>
      <point x="526" y="97" type="line"/>
      <point x="387" y="82" type="line"/>
      <point x="412" y="55" type="line"/>
      <point x="478" y="464" type="line"/>
      <point x="464" y="480"/>
      <point x="435" y="492"/>
      <point x="404" y="495" type="curve"/>
      <point x="380" y="482" type="line"/>
      <point x="366" y="374" type="line"/>
      <point x="370" y="359" type="line"/>
      <point x="361" y="299" type="line" smooth="yes"/>
      <point x="341" y="167"/>
      <point x="273" y="79"/>
      <point x="189" y="79" type="curve"/>
      <point x="157" y="79"/>
      <point x="130" y="87"/>
      <point x="110" y="102" type="curve"/>
      <point x="102" y="122"/>
      <point x="98" y="154"/>
      <point x="98" y="190" type="curve"/>
      <point x="98" y="317"/>
      <point x="158" y="398"/>
      <point x="253" y="398" type="curve"/>
      <point x="306" y="398"/>
      <point x="363" y="368"/>
      <point x="399" y="322" type="curve"/>
      <point x="380" y="363" type="line"/>
      <point x="356" y="437"/>
      <point x="292" y="488"/>
      <point x="223" y="488" type="curve"/>
      <point x="116" y="488"/>
      <point x="32" y="376"/>
      <point x="32" y="233" type="curve"/>
      <point x="32" y="94"/>
      <point x="106" y="-14"/>
    </contour>
    <contour>
      <point x="238" y="0" type="move" name="bottom"/>
    </contour>
    <contour>
      <point x="283" y="468" type="move" name="top"/>
    </contour>
  </outline>
</glyph>
<glyph name="beta" format="1">
  <advance width="515"/>
  <unicode hex="03B2"/>
  <outline>
    <contour>
      <point x="50" y="-213" type="line"/>
      <point x="74" y="-225" type="line"/>
      <point x="112" y="-223"/>
      <point x="150" y="-212"/>
      <point x="166" y="-201" type="curve"/>
      <point x="121" y="69" type="line"/>
      <point x="123" y="87" type="line"/>
      <point x="120" y="106"/>
      <point x="117" y="139"/>
      <point x="117" y="182" type="curve"/>
      <point x="117" y="402" type="line" smooth="yes"/>
      <point x="117" y="557"/>
      <point x="179" y="645"/>
      <point x="287" y="645" type="curve"/>
      <point x="318" y="645"/>
      <point x="351" y="640"/>
      <point x="372" y="626" type="curve"/>
      <point x="378" y="610"/>
      <point x="381" y="592"/>
      <point x="381" y="568" type="curve"/>
      <point x="381" y="463"/>
      <point x="314" y="395"/>
      <point x="199" y="383" type="curve"/>
      <point x="272" y="364" type="line"/>
      <point x="380" y="384"/>
      <point x="451" y="460"/>
      <point x="451" y="556" type="curve"/>
      <point x="451" y="660"/>
      <point x="378" y="735"/>
      <point x="275" y="735" type="curve"/>
      <point x="142" y="735"/>
      <point x="61" y="634"/>
      <point x="61" y="468" type="curve"/>
      <point x="61" y="238" type="line" smooth="yes"/>
      <point x="61" y="140"/>
      <point x="60" y="79"/>
      <point x="57" y="-4" type="curve"/>
    </contour>
    <contour>
      <point x="284" y="-20" type="curve"/>
      <point x="396" y="-20"/>
      <point x="483" y="73"/>
      <point x="483" y="195" type="curve"/>
      <point x="483" y="288"/>
      <point x="421" y="360"/>
      <point x="315" y="392" type="curve"/>
      <point x="244" y="335" type="line"/>
      <point x="332" y="325"/>
      <point x="405" y="280"/>
      <point x="422" y="225" type="curve"/>
      <point x="419" y="145"/>
      <point x="363" y="71"/>
      <point x="249" y="70" type="curve"/>
      <point x="186" y="70"/>
      <point x="135" y="85"/>
      <point x="109" y="111" type="curve"/>
      <point x="91" y="91" type="line"/>
      <point x="128" y="29"/>
      <point x="213" y="-20"/>
    </contour>
    <contour>
      <point x="175" y="320" type="curve"/>
      <point x="196" y="306" type="line"/>
      <point x="335" y="343" type="line"/>
      <point x="312" y="405" type="line"/>
      <point x="170" y="414" type="line"/>
      <point x="166" y="387"/>
      <point x="170" y="342"/>
    </contour>
  </outline>
</glyph>
<glyph name="gamma" format="1">
  <advance width="488"/>
  <unicode hex="03B3"/>
  <outline>
    <contour>
      <point x="172" y="-207" type="line"/>
      <point x="204" y="-225" type="line"/>
      <point x="241" y="-225"/>
      <point x="261" y="-222"/>
      <point x="288" y="-212" type="curve"/>
      <point x="266" y="7" type="line"/>
      <point x="251" y="-18" type="line"/>
      <point x="362" y="76"/>
      <point x="461" y="266"/>
      <point x="461" y="385" type="curve"/>
      <point x="461" y="423"/>
      <point x="460" y="440"/>
      <point x="456" y="457" type="curve"/>
      <point x="436" y="472"/>
      <point x="405" y="481"/>
      <point x="366" y="483" type="curve"/>
      <point x="352" y="462" type="line"/>
      <point x="357" y="435"/>
      <point x="359" y="405"/>
      <point x="359" y="364" type="curve"/>
      <point x="359" y="235"/>
      <point x="293" y="88"/>
      <point x="211" y="31" type="curve"/>
      <point x="227" y="30" type="line"/>
      <point x="241" y="151" type="line"/>
      <point x="211" y="368"/>
      <point x="159" y="482"/>
      <point x="90" y="482" type="curve"/>
      <point x="55" y="482"/>
      <point x="14" y="450"/>
      <point x="-11" y="403" type="curve"/>
      <point x="3" y="375" type="line"/>
      <point x="85" y="381" type="line"/>
      <point x="114" y="330"/>
      <point x="135" y="270"/>
      <point x="164" y="158" type="curve"/>
      <point x="209" y="-15" type="line"/>
      <point x="207" y="35" type="line"/>
    </contour>
    <contour>
      <point x="194" y="55" type="line"/>
      <point x="213" y="20" type="line"/>
      <point x="264" y="33" type="line"/>
      <point x="203" y="63" type="line"/>
    </contour>
  </outline>
</glyph>
<glyph name="delta" format="1">
  <advance width="474"/>
  <unicode hex="03B4"/>
  <outline>
    <contour>
      <point x="235" y="-20" type="curve"/>
      <point x="354" y="-20"/>
      <point x="445" y="90"/>
      <point x="445" y="235" type="curve"/>
      <point x="445" y="485"/>
      <point x="154" y="494"/>
      <point x="115" y="585" type="curve"/>
      <point x="117" y="624"/>
      <point x="152" y="649"/>
      <point x="206" y="649" type="curve"/>
      <point x="263" y="649"/>
      <point x="318" y="627"/>
      <point x="402" y="569" type="curve"/>
      <point x="422" y="575" type="line"/>
      <point x="432" y="594"/>
      <point x="445" y="635"/>
      <point x="446" y="654" type="curve"/>
      <point x="423" y="674"/>
      <point x="390" y="694"/>
      <point x="347" y="712" type="curve"/>
      <point x="304" y="728"/>
      <point x="271" y="735"/>
      <point x="233" y="735" type="curve"/>
      <point x="141" y="735"/>
      <point x="76" y="678"/>
      <point x="76" y="597" type="curve"/>
      <point x="76" y="516"/>
      <point x="123" y="454"/>
      <point x="220" y="406" type="curve"/>
      <point x="239" y="393" type="line"/>
      <point x="330" y="347"/>
      <point x="368" y="317"/>
      <point x="392" y="274" type="curve"/>
      <point x="388" y="156"/>
      <point x="312" y="70"/>
      <point x="213" y="70" type="curve"/>
      <point x="175" y="70"/>
      <point x="142" y="77"/>
      <point x="119" y="90" type="curve"/>
      <point x="105" y="112"/>
      <point x="98" y="143"/>
      <point x="98" y="181" type="curve"/>
      <point x="98" y="281"/>
      <point x="166" y="366"/>
      <point x="263" y="387" type="curve"/>
      <point x="207" y="420" type="line"/>
      <point x="107" y="417"/>
      <point x="32" y="327"/>
      <point x="32" y="211" type="curve"/>
      <point x="32" y="77"/>
      <point x="118" y="-20"/>
    </contour>
  </outline>
</glyph>
<glyph name="epsilon" format="1">
  <advance width="447"/>
  <unicode hex="03B5"/>
  <outline>
    <contour>
      <point x="227" y="-14" type="curve"/>
      <point x="300" y="-14"/>
      <point x="390" y="28"/>
      <point x="436" y="84" type="curve"/>
      <point x="423" y="115" type="line"/>
      <point x="357" y="88"/>
      <point x="287" y="73"/>
      <point x="227" y="73" type="curve"/>
      <point x="161" y="73"/>
      <point x="101" y="98"/>
      <point x="86" y="132" type="curve"/>
      <point x="102" y="167"/>
      <point x="147" y="196"/>
      <point x="190" y="200" type="curve"/>
      <point x="322" y="183" type="line"/>
      <point x="330" y="213"/>
      <point x="332" y="254"/>
      <point x="326" y="274" type="curve"/>
      <point x="305" y="288" type="line"/>
      <point x="170" y="262" type="line"/>
      <point x="170" y="251" type="line"/>
      <point x="95" y="234"/>
      <point x="38" y="182"/>
      <point x="38" y="130" type="curve"/>
      <point x="38" y="44"/>
      <point x="115" y="-14"/>
    </contour>
    <contour>
      <point x="170" y="232" type="curve"/>
      <point x="234" y="228" type="line"/>
      <point x="211" y="259" type="line"/>
      <point x="153" y="264"/>
      <point x="107" y="295"/>
      <point x="101" y="333" type="curve"/>
      <point x="114" y="372"/>
      <point x="169" y="396"/>
      <point x="243" y="396" type="curve"/>
      <point x="294" y="396"/>
      <point x="341" y="385"/>
      <point x="390" y="363" type="curve"/>
      <point x="409" y="377" type="line"/>
      <point x="413" y="399"/>
      <point x="411" y="439"/>
      <point x="405" y="459" type="curve"/>
      <point x="383" y="475"/>
      <point x="317" y="488"/>
      <point x="253" y="488" type="curve"/>
      <point x="130" y="488"/>
      <point x="44" y="429"/>
      <point x="44" y="345" type="curve"/>
      <point x="44" y="282"/>
      <point x="90" y="241"/>
    </contour>
    <contour>
      <point x="248" y="468" type="move" name="top"/>
    </contour>
  </outline>
</glyph>
<glyph name="zeta" format="1">
  <advance width="370"/>
  <unicode hex="03B6"/>
  <outline>
    <contour>
      <point x="233" y="-142" type="line"/>
      <point x="266" y="-172" type="line"/>
      <point x="344" y="-112"/>
      <point x="373" y="-68"/>
      <point x="373" y="-24" type="curve"/>
      <point x="373" y="17"/>
      <point x="359" y="45"/>
      <point x="325" y="66" type="curve"/>
      <point x="309" y="76"/>
      <point x="288" y="85"/>
      <point x="226" y="110" type="curve"/>
      <point x="129" y="147"/>
      <point x="107" y="156"/>
      <point x="93" y="170" type="curve"/>
      <point x="93" y="333"/>
      <point x="228" y="521"/>
      <point x="399" y="594" type="curve"/>
      <point x="404" y="618" type="line"/>
      <point x="394" y="649"/>
      <point x="378" y="674"/>
      <point x="358" y="689" type="curve"/>
      <point x="197" y="629"/>
      <point x="37" y="402"/>
      <point x="37" y="234" type="curve"/>
      <point x="37" y="174"/>
      <point x="49" y="129"/>
      <point x="72" y="96" type="curve"/>
      <point x="97" y="61"/>
      <point x="138" y="35"/>
      <point x="202" y="10" type="curve"/>
      <point x="254" y="-11"/>
      <point x="299" y="-31"/>
      <point x="347" y="-57" type="curve"/>
      <point x="341" y="-21" type="line"/>
    </contour>
    <contour>
      <point x="217" y="604" type="curve"/>
      <point x="226" y="593" type="line"/>
      <point x="281" y="637" type="line"/>
      <point x="215" y="637"/>
      <point x="163" y="642"/>
      <point x="135" y="651" type="curve"/>
      <point x="73" y="735" type="line"/>
      <point x="36" y="719" type="line"/>
      <point x="18" y="598"/>
      <point x="68" y="567"/>
    </contour>
  </outline>
</glyph>
<glyph name="eta" format="1">
  <advance width="522"/>
  <unicode hex="03B7"/>
  <outline>
    <contour>
      <point x="444" y="-225" type="curve"/>
      <point x="468" y="-213" type="line"/>
      <point x="468" y="250" type="line" smooth="yes"/>
      <point x="468" y="410"/>
      <point x="421" y="488"/>
      <point x="323" y="488" type="curve"/>
      <point x="239" y="488"/>
      <point x="172" y="408"/>
      <point x="160" y="295" type="curve"/>
      <point x="168" y="266" type="line"/>
      <point x="180" y="221" type="line"/>
      <point x="203" y="324"/>
      <point x="267" y="396"/>
      <point x="335" y="396" type="curve"/>
      <point x="368" y="396"/>
      <point x="386" y="390"/>
      <point x="397" y="374" type="curve"/>
      <point x="400" y="368"/>
      <point x="401" y="355"/>
      <point x="401" y="327" type="curve"/>
      <point x="401" y="206"/>
      <point x="388" y="62"/>
      <point x="355" y="-198" type="curve"/>
      <point x="383" y="-216"/>
      <point x="413" y="-225"/>
    </contour>
    <contour>
      <point x="95" y="5" type="line"/>
      <point x="100" y="-2" type="line"/>
      <point x="118" y="-7"/>
      <point x="163" y="-6"/>
      <point x="193" y="0" type="curve"/>
      <point x="180" y="267" type="line"/>
      <point x="189" y="337" type="line"/>
      <point x="185" y="384"/>
      <point x="173" y="424"/>
      <point x="157" y="451" type="curve"/>
      <point x="143" y="474"/>
      <point x="124" y="488"/>
      <point x="104" y="488" type="curve"/>
      <point x="69" y="488"/>
      <point x="30" y="455"/>
      <point x="6" y="406" type="curve"/>
      <point x="21" y="378" type="line"/>
      <point x="164" y="387" type="line"/>
      <point x="137" y="415" type="line"/>
    </contour>
    <contour>
      <point x="144" y="0" type="move" name="bottom"/>
    </contour>
    <contour>
      <point x="291" y="468" type="move" name="top"/>
    </contour>
  </outline>
</glyph>
<glyph name="iota" format="1">
  <advance width="263"/>
  <unicode hex="03B9"/>
  <outline>
    <contour>
      <point x="155" y="-14" type="curve"/>
      <point x="198" y="-14"/>
      <point x="244" y="19"/>
      <point x="263" y="71" type="curve"/>
      <point x="250" y="99" type="line"/>
      <point x="92" y="81" type="line"/>
      <point x="117" y="54" type="line"/>
      <point x="182" y="471" type="line"/>
      <point x="161" y="483" type="line"/>
      <point x="126" y="482"/>
      <point x="92" y="476"/>
      <point x="62" y="461" type="curve"/>
      <point x="67" y="164" type="line" smooth="yes"/>
      <point x="69" y="49"/>
      <point x="101" y="-14"/>
    </contour>
    <contour>
      <point x="140" y="468" type="move" name="top"/>
    </contour>
  </outline>
</glyph>
<glyph name="mu" format="1">
  <advance width="530"/>
  <unicode hex="03BC"/>
  <note>
    
  </note>
  <outline>
    <contour>
      <point x="62" y="-213" type="line"/>
      <point x="86" y="-225" type="line"/>
      <point x="119" y="-223"/>
      <point x="162" y="-213"/>
      <point x="178" y="-203" type="curve"/>
      <point x="133" y="45" type="line"/>
      <point x="124" y="98" type="line"/>
      <point x="143" y="186" type="line"/>
      <point x="164" y="470" type="line"/>
      <point x="143" y="482" type="line"/>
      <point x="108" y="480"/>
      <point x="76" y="473"/>
      <point x="48" y="461" type="curve"/>
      <point x="87" y="16" type="line"/>
      <point x="84" y="174" type="line"/>
    </contour>
    <contour>
      <point x="242" y="-20" type="curve"/>
      <point x="284" y="-20"/>
      <point x="332" y="12"/>
      <point x="362" y="61" type="curve"/>
      <point x="360" y="114" type="line"/>
      <point x="339" y="89"/>
      <point x="287" y="70"/>
      <point x="238" y="70" type="curve"/>
      <point x="196" y="70"/>
      <point x="135" y="90"/>
      <point x="114" y="111" type="curve"/>
      <point x="111" y="73" type="line"/>
      <point x="128" y="23"/>
      <point x="188" y="-20"/>
    </contour>
    <contour>
      <point x="429" y="-14" type="curve"/>
      <point x="462" y="-14"/>
      <point x="499" y="18"/>
      <point x="518" y="64" type="curve"/>
      <point x="507" y="95" type="line"/>
      <point x="370" y="80" type="line"/>
      <point x="396" y="53" type="line"/>
      <point x="457" y="471" type="line"/>
      <point x="436" y="483" type="line"/>
      <point x="398" y="482"/>
      <point x="367" y="475"/>
      <point x="341" y="462" type="curve"/>
      <point x="353" y="100" type="line"/>
      <point x="350" y="75" type="line"/>
      <point x="356" y="31"/>
      <point x="391" y="-14"/>
    </contour>
  </outline>
</glyph>
<glyph name="nu" format="1">
  <advance width="488"/>
  <unicode hex="03BD"/>
  <outline>
    <contour>
      <point x="265" y="-14" type="curve"/>
      <point x="387" y="98"/>
      <point x="461" y="253"/>
      <point x="461" y="395" type="curve"/>
      <point x="461" y="414"/>
      <point x="459" y="435"/>
      <point x="456" y="457" type="curve"/>
      <point x="436" y="472"/>
      <point x="405" y="481"/>
      <point x="366" y="483" type="curve"/>
      <point x="352" y="462" type="line"/>
      <point x="357" y="433"/>
      <point x="359" y="403"/>
      <point x="359" y="371" type="curve"/>
      <point x="359" y="227"/>
      <point x="308" y="103"/>
      <point x="222" y="38" type="curve"/>
      <point x="226" y="10" type="line"/>
      <point x="241" y="133" type="line"/>
      <point x="205" y="382"/>
      <point x="162" y="482"/>
      <point x="90" y="482" type="curve"/>
      <point x="55" y="482"/>
      <point x="14" y="450"/>
      <point x="-11" y="403" type="curve"/>
      <point x="3" y="375" type="line"/>
      <point x="85" y="381" type="line"/>
      <point x="107" y="336"/>
      <point x="129" y="273"/>
      <point x="149" y="196" type="curve"/>
      <point x="201" y="-1" type="line"/>
      <point x="215" y="-11"/>
      <point x="242" y="-16"/>
    </contour>
    <contour>
      <point x="195" y="35" type="line"/>
      <point x="214" y="0" type="line"/>
      <point x="271" y="29" type="line"/>
      <point x="210" y="59" type="line"/>
    </contour>
  </outline>
</glyph>
<glyph name="xi" format="1">
  <advance width="396"/>
  <unicode hex="03BE"/>
  <outline>
    <contour>
      <point x="243" y="-142" type="line"/>
      <point x="276" y="-172" type="line"/>
      <point x="351" y="-114"/>
      <point x="383" y="-70"/>
      <point x="383" y="-24" type="curve"/>
      <point x="383" y="17"/>
      <point x="368" y="46"/>
      <point x="335" y="66" type="curve"/>
      <point x="311" y="81"/>
      <point x="287" y="92"/>
      <point x="236" y="110" type="curve"/>
      <point x="121" y="148"/>
      <point x="96" y="158"/>
      <point x="85" y="168" type="curve"/>
      <point x="100" y="220"/>
      <point x="185" y="277"/>
      <point x="254" y="285" type="curve"/>
      <point x="178" y="326" type="line"/>
      <point x="82" y="288"/>
      <point x="36" y="222"/>
      <point x="36" y="174" type="curve"/>
      <point x="36" y="149"/>
      <point x="45" y="121"/>
      <point x="60" y="99" type="curve"/>
      <point x="82" y="67"/>
      <point x="117" y="47"/>
      <point x="212" y="10" type="curve"/>
      <point x="251" y="-4"/>
      <point x="296" y="-24"/>
      <point x="352" y="-54" type="curve"/>
      <point x="348" y="-24" type="line"/>
    </contour>
    <contour>
      <point x="197" y="285" type="line"/>
      <point x="353" y="266" type="line"/>
      <point x="362" y="302"/>
      <point x="365" y="343"/>
      <point x="361" y="366" type="curve"/>
      <point x="340" y="380" type="line"/>
      <point x="186" y="350" type="line"/>
      <point x="186" y="316" type="line"/>
    </contour>
    <contour>
      <point x="223" y="309" type="curve"/>
      <point x="280" y="343" type="line"/>
      <point x="202" y="350"/>
      <point x="124" y="394"/>
      <point x="120" y="432" type="curve"/>
      <point x="147" y="487"/>
      <point x="273" y="560"/>
      <point x="399" y="594" type="curve"/>
      <point x="404" y="618" type="line"/>
      <point x="394" y="649"/>
      <point x="378" y="674"/>
      <point x="358" y="689" type="curve"/>
      <point x="177" y="618"/>
      <point x="54" y="517"/>
      <point x="54" y="440" type="curve"/>
      <point x="54" y="377"/>
      <point x="115" y="330"/>
    </contour>
    <contour>
      <point x="205" y="619" type="curve"/>
      <point x="214" y="605" type="line"/>
      <point x="283" y="651" type="line"/>
      <point x="221" y="651"/>
      <point x="172" y="655"/>
      <point x="135" y="663" type="curve"/>
      <point x="80" y="738" type="line"/>
      <point x="42" y="725" type="line"/>
      <point x="25" y="609"/>
      <point x="64" y="583"/>
    </contour>
  </outline>
</glyph>
<glyph name="pi" format="1">
  <advance width="637"/>
  <unicode hex="03C0"/>
  <outline>
    <contour>
      <point x="100" y="457"/>
      <point x="55" y="417"/>
      <point x="30" y="379" type="curve"/>
      <point x="58" y="348" type="line"/>
      <point x="137" y="404" type="line"/>
      <point x="568" y="391" type="line"/>
      <point x="607" y="420" type="line"/>
      <point x="603" y="468" type="line"/>
      <point x="135" y="468" type="line"/>
    </contour>
    <contour>
      <point x="526" y="0" type="line"/>
      <point x="492" y="442" type="line"/>
      <point x="426" y="439" type="line"/>
      <point x="430" y="28" type="line"/>
      <point x="464" y="-4" type="line"/>
    </contour>
    <contour>
      <point x="84" y="-7"/>
      <point x="114" y="-13"/>
      <point x="140" y="-13" type="curve" smooth="yes"/>
      <point x="244" y="-13"/>
      <point x="266" y="86"/>
      <point x="272" y="229" type="curve" smooth="yes"/>
      <point x="281" y="448" type="line"/>
      <point x="192" y="450" type="line"/>
      <point x="183" y="198" type="line" smooth="yes"/>
      <point x="181" y="146"/>
      <point x="179" y="67"/>
      <point x="170" y="42" type="curve"/>
      <point x="140" y="55"/>
      <point x="110" y="69"/>
      <point x="80" y="86" type="curve"/>
      <point x="47" y="6" type="line"/>
    </contour>
  </outline>
</glyph>
<glyph name="rho" format="1">
  <advance width="497"/>
  <unicode hex="03C1"/>
  <outline>
    <contour>
      <point x="45" y="-213" type="line"/>
      <point x="69" y="-225" type="line"/>
      <point x="107" y="-223"/>
      <point x="145" y="-212"/>
      <point x="161" y="-201" type="curve"/>
      <point x="114" y="69" type="line"/>
      <point x="116" y="84" type="line"/>
      <point x="113" y="103"/>
      <point x="112" y="136"/>
      <point x="112" y="179" type="curve"/>
      <point x="112" y="316"/>
      <point x="177" y="398"/>
      <point x="286" y="398" type="curve"/>
      <point x="313" y="398"/>
      <point x="350" y="394"/>
      <point x="378" y="377" type="curve"/>
      <point x="393" y="352"/>
      <point x="399" y="313"/>
      <point x="399" y="276" type="curve"/>
      <point x="399" y="156"/>
      <point x="327" y="70"/>
      <point x="227" y="70" type="curve"/>
      <point x="179" y="70"/>
      <point x="126" y="86"/>
      <point x="101" y="111" type="curve"/>
      <point x="95" y="88" type="line"/>
      <point x="134" y="20"/>
      <point x="192" y="-20"/>
      <point x="254" y="-20" type="curve"/>
      <point x="371" y="-20"/>
      <point x="465" y="101"/>
      <point x="465" y="251" type="curve"/>
      <point x="465" y="393"/>
      <point x="383" y="488"/>
      <point x="260" y="488" type="curve"/>
      <point x="140" y="488"/>
      <point x="56" y="385"/>
      <point x="56" y="238" type="curve"/>
      <point x="56" y="140"/>
      <point x="55" y="79"/>
      <point x="52" y="-4" type="curve"/>
    </contour>
    <contour>
      <point x="283" y="468" type="move" name="top"/>
    </contour>
  </outline>
</glyph>
<glyph name="finalsigma" format="1">
  <advance width="416"/>
  <unicode hex="03C2"/>
  <note>
    
  </note>
  <outline>
    <contour>
      <point x="226" y="-142" type="line"/>
      <point x="259" y="-172" type="line"/>
      <point x="337" y="-110"/>
      <point x="366" y="-69"/>
      <point x="366" y="-22" type="curve"/>
      <point x="366" y="15"/>
      <point x="353" y="44"/>
      <point x="317" y="68" type="curve"/>
      <point x="296" y="82"/>
      <point x="267" y="96"/>
      <point x="211" y="119" type="curve"/>
      <point x="131" y="152"/>
      <point x="87" y="176"/>
      <point x="82" y="194" type="curve"/>
      <point x="93" y="316"/>
      <point x="174" y="387"/>
      <point x="301" y="387" type="curve"/>
      <point x="382" y="374" type="line"/>
      <point x="401" y="388" type="line"/>
      <point x="403" y="431"/>
      <point x="401" y="462"/>
      <point x="395" y="478" type="curve"/>
      <point x="371" y="485"/>
      <point x="342" y="488"/>
      <point x="306" y="488" type="curve"/>
      <point x="149" y="488"/>
      <point x="32" y="381"/>
      <point x="32" y="231" type="curve"/>
      <point x="32" y="185"/>
      <point x="38" y="150"/>
      <point x="53" y="121" type="curve"/>
      <point x="73" y="82"/>
      <point x="116" y="49"/>
      <point x="186" y="18" type="curve"/>
      <point x="265" y="-17"/>
      <point x="295" y="-31"/>
      <point x="323" y="-49" type="curve"/>
      <point x="334" y="-21" type="line"/>
    </contour>
  </outline>
</glyph>
<glyph name="sigma" format="1">
  <advance width="546"/>
  <unicode hex="03C3"/>
  <outline>
    <contour>
      <point x="227" y="-20" type="curve"/>
      <point x="349" y="-20"/>
      <point x="436" y="97"/>
      <point x="436" y="232" type="curve"/>
      <point x="436" y="303"/>
      <point x="415" y="360"/>
      <point x="386" y="400" type="curve"/>
      <point x="332" y="398" type="line"/>
      <point x="356" y="369"/>
      <point x="370" y="319"/>
      <point x="370" y="264" type="curve"/>
      <point x="370" y="143"/>
      <point x="310" y="70"/>
      <point x="210" y="70" type="curve"/>
      <point x="180" y="70"/>
      <point x="144" y="76"/>
      <point x="120" y="91" type="curve"/>
      <point x="103" y="120"/>
      <point x="98" y="153"/>
      <point x="98" y="187" type="curve"/>
      <point x="98" y="309"/>
      <point x="171" y="386"/>
      <point x="284" y="386" type="curve"/>
      <point x="394" y="386" type="line"/>
      <point x="527" y="366" type="line"/>
      <point x="536" y="387" type="line"/>
      <point x="537" y="414"/>
      <point x="528" y="459"/>
      <point x="519" y="478" type="curve"/>
      <point x="339" y="468" type="line"/>
      <point x="249" y="468" type="line" smooth="yes"/>
      <point x="123" y="468"/>
      <point x="32" y="363"/>
      <point x="32" y="218" type="curve"/>
      <point x="32" y="79"/>
      <point x="113" y="-20"/>
    </contour>
  </outline>
</glyph>
<glyph name="phi" format="1">
  <advance width="629"/>
  <unicode hex="03C6"/>
  <outline>
    <contour>
      <point x="251" y="-214" type="line"/>
      <point x="275" y="-226" type="line"/>
      <point x="311" y="-224"/>
      <point x="350" y="-214"/>
      <point x="367" y="-202" type="curve"/>
      <point x="335" y="-10" type="line"/>
      <point x="336" y="29" type="line"/>
      <point x="336" y="174" type="line" smooth="yes"/>
      <point x="336" y="324"/>
      <point x="370" y="390"/>
      <point x="446" y="390" type="curve"/>
      <point x="474" y="390"/>
      <point x="501" y="382"/>
      <point x="516" y="366" type="curve"/>
      <point x="527" y="348"/>
      <point x="532" y="315"/>
      <point x="532" y="274" type="curve"/>
      <point x="532" y="147"/>
      <point x="450" y="70"/>
      <point x="303" y="70" type="curve"/>
      <point x="297" y="70" type="line"/>
      <point x="214" y="70"/>
      <point x="152" y="84"/>
      <point x="113" y="112" type="curve"/>
      <point x="103" y="130"/>
      <point x="99" y="156"/>
      <point x="99" y="194" type="curve"/>
      <point x="99" y="294"/>
      <point x="141" y="356"/>
      <point x="230" y="386" type="curve"/>
      <point x="247" y="405" type="line"/>
      <point x="246" y="440"/>
      <point x="238" y="469"/>
      <point x="223" y="486" type="curve"/>
      <point x="108" y="456"/>
      <point x="32" y="353"/>
      <point x="32" y="225" type="curve"/>
      <point x="32" y="76"/>
      <point x="141" y="-20"/>
      <point x="310" y="-20" type="curve"/>
      <point x="493" y="-20"/>
      <point x="597" y="89"/>
      <point x="597" y="257" type="curve"/>
      <point x="597" y="382"/>
      <point x="521" y="482"/>
      <point x="424" y="482" type="curve"/>
      <point x="331" y="482"/>
      <point x="276" y="398"/>
      <point x="276" y="258" type="curve"/>
      <point x="276" y="28" type="line"/>
      <point x="279" y="-12" type="line"/>
    </contour>
  </outline>
</glyph>
<glyph name="chi" format="1">
  <advance width="515"/>
  <unicode hex="03C7"/>
  <outline>
    <contour>
      <point x="443" y="-228" type="curve"/>
      <point x="475" y="-228"/>
      <point x="514" y="-192"/>
      <point x="527" y="-149" type="curve"/>
      <point x="516" y="-119" type="line"/>
      <point x="376" y="-136" type="line"/>
      <point x="417" y="-155" type="line"/>
      <point x="300" y="152" type="line"/>
      <point x="271" y="168" type="line"/>
      <point x="263" y="259" type="line"/>
      <point x="203" y="415"/>
      <point x="148" y="480"/>
      <point x="72" y="480" type="curve"/>
      <point x="50" y="480"/>
      <point x="20" y="473"/>
      <point x="-3" y="464" type="curve"/>
      <point x="-3" y="437"/>
      <point x="5" y="395"/>
      <point x="15" y="379" type="curve"/>
      <point x="32" y="368" type="line"/>
      <point x="126" y="396" type="line"/>
      <point x="83" y="410" type="line"/>
      <point x="109" y="383"/>
      <point x="119" y="368"/>
      <point x="150" y="309" type="curve"/>
      <point x="192" y="232"/>
      <point x="212" y="187"/>
      <point x="239" y="121" type="curve"/>
      <point x="253" y="93" type="line"/>
      <point x="344" y="-119" type="line" smooth="yes"/>
      <point x="380" y="-204"/>
      <point x="402" y="-228"/>
    </contour>
    <contour>
      <point x="108" y="-230" type="curve"/>
      <point x="132" y="-215" type="line"/>
      <point x="264" y="93" type="line"/>
      <point x="236" y="154" type="line"/>
      <point x="32" y="-178" type="line"/>
      <point x="44" y="-201"/>
      <point x="77" y="-224"/>
    </contour>
    <contour>
      <point x="248" y="178" type="line"/>
      <point x="288" y="174" type="line"/>
      <point x="293" y="191" type="line"/>
      <point x="259" y="198" type="line"/>
    </contour>
    <contour>
      <point x="259" y="165" type="line"/>
      <point x="297" y="123" type="line"/>
      <point x="501" y="433" type="line"/>
      <point x="493" y="449"/>
      <point x="453" y="477"/>
      <point x="423" y="487" type="curve"/>
      <point x="402" y="476" type="line"/>
    </contour>
  </outline>
</glyph>
<glyph name="omega" format="1">
  <advance width="660"/>
  <unicode hex="03C9"/>
  <outline>
    <contour>
      <point x="473" y="-20" type="curve"/>
      <point x="565" y="-20"/>
      <point x="628" y="65"/>
      <point x="628" y="189" type="curve"/>
      <point x="628" y="292"/>
      <point x="596" y="384"/>
      <point x="536" y="454" type="curve"/>
      <point x="522" y="465"/>
      <point x="507" y="473"/>
      <point x="484" y="482" type="curve"/>
      <point x="467" y="464" type="line"/>
      <point x="524" y="396"/>
      <point x="549" y="322"/>
      <point x="550" y="217" type="curve"/>
      <point x="551" y="125"/>
      <point x="519" y="70"/>
      <point x="462" y="70" type="curve"/>
      <point x="407" y="70"/>
      <point x="367" y="105"/>
      <point x="354" y="168" type="curve"/>
      <point x="322" y="111" type="line"/>
      <point x="340" y="29"/>
      <point x="397" y="-20"/>
    </contour>
    <contour>
      <point x="181" y="-20" type="curve"/>
      <point x="256" y="-20"/>
      <point x="311" y="38"/>
      <point x="336" y="143" type="curve"/>
      <point x="308" y="172" type="line"/>
      <point x="289" y="104"/>
      <point x="246" y="70"/>
      <point x="176" y="70" type="curve"/>
      <point x="147" y="70"/>
      <point x="122" y="80"/>
      <point x="105" y="98" type="curve"/>
      <point x="95" y="117"/>
      <point x="90" y="140"/>
      <point x="90" y="167" type="curve"/>
      <point x="90" y="256"/>
      <point x="134" y="345"/>
      <point x="199" y="388" type="curve"/>
      <point x="203" y="411" type="line"/>
      <point x="198" y="435"/>
      <point x="171" y="470"/>
      <point x="149" y="480" type="curve"/>
      <point x="78" y="420"/>
      <point x="32" y="308"/>
      <point x="32" y="193" type="curve"/>
      <point x="32" y="72"/>
      <point x="96" y="-20"/>
    </contour>
    <contour>
      <point x="271" y="304" type="curve"/>
      <point x="303" y="97" type="line"/>
      <point x="355" y="97" type="line"/>
      <point x="387" y="291" type="line"/>
      <point x="374" y="312" type="line"/>
      <point x="340" y="317"/>
      <point x="300" y="314"/>
    </contour>
    <contour>
      <point x="329" y="0" type="move" name="bottom"/>
    </contour>
    <contour>
      <point x="328" y="468" type="move" name="top"/>
    </contour>
  </outline>
</glyph>
<glyph name="kaisymbol" format="1">
  <advance width="491"/>
  <unicode hex="03D7"/>
  <outline>
    <contour>
      <point x="149" y="-223" type="curve"/>
      <point x="234" y="-223"/>
      <point x="331" y="-172"/>
      <point x="402" y="-87" type="curve"/>
      <point x="447" y="-33"/>
      <point x="477" y="21"/>
      <point x="485" y="65" type="curve"/>
      <point x="470" y="94" type="line"/>
      <point x="347" y="77" type="line"/>
      <point x="392" y="55" type="line"/>
      <point x="327" y="169"/>
      <point x="309" y="207"/>
      <point x="279" y="284" type="curve"/>
      <point x="216" y="234" type="line"/>
      <point x="341" y="33" type="line" smooth="yes"/>
      <point x="360" y="2"/>
      <point x="382" y="-10"/>
      <point x="412" y="-11" type="curve"/>
      <point x="412" y="20" type="line"/>
      <point x="389" y="-64"/>
      <point x="244" y="-146"/>
      <point x="139" y="-136" type="curve"/>
      <point x="69" y="-109" type="line"/>
      <point x="46" y="-130" type="line"/>
      <point x="46" y="-152"/>
      <point x="54" y="-188"/>
      <point x="63" y="-205" type="curve"/>
      <point x="84" y="-217"/>
      <point x="116" y="-223"/>
    </contour>
    <contour>
      <point x="147" y="-10" type="curve"/>
      <point x="183" y="90"/>
      <point x="235" y="192"/>
      <point x="273" y="240" type="curve"/>
      <point x="320" y="298"/>
      <point x="378" y="347"/>
      <point x="448" y="388" type="curve"/>
      <point x="461" y="410" type="line"/>
      <point x="453" y="442"/>
      <point x="434" y="475"/>
      <point x="419" y="484" type="curve"/>
      <point x="349" y="448"/>
      <point x="285" y="388"/>
      <point x="231" y="309" type="curve"/>
      <point x="190" y="249"/>
      <point x="147" y="157"/>
      <point x="108" y="48" type="curve"/>
      <point x="117" y="51" type="line"/>
      <point x="160" y="468" type="line"/>
      <point x="139" y="480" type="line"/>
      <point x="94" y="479"/>
      <point x="64" y="472"/>
      <point x="45" y="458" type="curve"/>
      <point x="62" y="301" type="line"/>
      <point x="69" y="1" type="line"/>
      <point x="83" y="-9"/>
      <point x="118" y="-14"/>
    </contour>
  </outline>
</glyph>
<glyph name="dvCandrabinduInverted" format="1">
  <advance width="0"/>
  <unicode hex="0900"/>
  <outline>
    <contour>
      <point x="-301" y="739" type="line"/>
      <point x="-284" y="813"/>
      <point x="-241" y="842"/>
      <point x="-196" y="842" type="curve" smooth="yes"/>
      <point x="-149" y="842"/>
      <point x="-96" y="810"/>
      <point x="-53" y="736" type="curve"/>
      <point x="-19" y="769" type="line"/>
      <point x="-75" y="864"/>
      <point x="-155" y="911"/>
      <point x="-225" y="911" type="curve" smooth="yes"/>
      <point x="-296" y="911"/>
      <point x="-354" y="864"/>
      <point x="-373" y="771" type="curve"/>
    </contour>
    <contour>
      <point x="-201" y="778"/>
      <point x="-233" y="754"/>
      <point x="-247" y="734" type="curve"/>
      <point x="-234" y="708"/>
      <point x="-213" y="680"/>
      <point x="-193" y="668" type="curve"/>
      <point x="-169" y="677"/>
      <point x="-141" y="703"/>
      <point x="-128" y="720" type="curve"/>
      <point x="-137" y="744"/>
      <point x="-159" y="772"/>
      <point x="-180" y="786" type="curve"/>
    </contour>
    <contour>
      <point x="-192" y="650" type="move" name="_abvmCANDRABINDU"/>
    </contour>
  </outline>
</glyph>
<glyph name="dvCandrabindu" format="1">
  <advance width="0"/>
  <unicode hex="0901"/>
  <outline>
    <contour>
      <point x="-77" y="840" type="line"/>
      <point x="-94" y="766"/>
      <point x="-137" y="737"/>
      <point x="-182" y="737" type="curve" smooth="yes"/>
      <point x="-229" y="737"/>
      <point x="-282" y="769"/>
      <point x="-325" y="843" type="curve"/>
      <point x="-359" y="810" type="line"/>
      <point x="-303" y="715"/>
      <point x="-223" y="668"/>
      <point x="-153" y="668" type="curve" smooth="yes"/>
      <point x="-82" y="668"/>
      <point x="-24" y="715"/>
      <point x="-5" y="808" type="curve"/>
    </contour>
    <contour>
      <point x="-159" y="814"/>
      <point x="-137" y="842"/>
      <point x="-128" y="866" type="curve"/>
      <point x="-141" y="883"/>
      <point x="-169" y="909"/>
      <point x="-193" y="918" type="curve"/>
      <point x="-213" y="906"/>
      <point x="-234" y="878"/>
      <point x="-247" y="852" type="curve"/>
      <point x="-233" y="832"/>
      <point x="-201" y="808"/>
      <point x="-180" y="800" type="curve"/>
    </contour>
    <contour>
      <point x="-158" y="650" type="move" name="_abvmCANDRABINDU"/>
    </contour>
  </outline>
</glyph>
<glyph name="dvAnusvara" format="1">
  <advance width="0"/>
  <unicode hex="0902"/>
  <outline>
    <contour>
      <point x="22" y="710"/>
      <point x="46" y="741"/>
      <point x="56" y="767" type="curve"/>
      <point x="42" y="785"/>
      <point x="12" y="813"/>
      <point x="-14" y="823" type="curve"/>
      <point x="-36" y="810"/>
      <point x="-59" y="780"/>
      <point x="-73" y="751" type="curve"/>
      <point x="-58" y="730"/>
      <point x="-23" y="704"/>
      <point x="0" y="695" type="curve"/>
    </contour>
    <contour>
      <point x="0" y="650" type="move" name="_abvmBINDU"/>
    </contour>
  </outline>
</glyph>
<glyph name="dvShortA" format="1">
  <advance width="742"/>
  <unicode hex="0904"/>
  <outline>
    <component base="dvA"/>
    <component base="dvMatraShortE" xOffset="739"/>
    <contour>
      <point x="700" y="610" type="move" name="abvmBINDU"/>
    </contour>
  </outline>
</glyph>
<glyph name="dvA" format="1">
  <advance width="742"/>
  <unicode hex="0905"/>
  <outline>
    <contour>
      <point x="20" y="268" type="line"/>
      <point x="118" y="65"/>
      <point x="226" y="22"/>
      <point x="305" y="22" type="curve" smooth="yes"/>
      <point x="407" y="22"/>
      <point x="470" y="92"/>
      <point x="470" y="177" type="curve" smooth="yes"/>
      <point x="470" y="247"/>
      <point x="427" y="327"/>
      <point x="332" y="364" type="curve"/>
      <point x="308" y="369" type="line"/>
      <point x="261" y="377"/>
      <point x="211" y="369"/>
      <point x="168" y="335" type="curve"/>
      <point x="213" y="256" type="line"/>
      <point x="358" y="331" type="line"/>
      <point x="275" y="317" type="line"/>
      <point x="363" y="316"/>
      <point x="398" y="256"/>
      <point x="398" y="203" type="curve" smooth="yes"/>
      <point x="398" y="146"/>
      <point x="356" y="94"/>
      <point x="281" y="94" type="curve" smooth="yes"/>
      <point x="193" y="94"/>
      <point x="126" y="164"/>
      <point x="65" y="295" type="curve"/>
    </contour>
    <contour>
      <point x="147" y="472" type="line"/>
      <point x="204" y="526"/>
      <point x="279" y="559"/>
      <point x="328" y="554" type="curve"/>
      <point x="347" y="542"/>
      <point x="362" y="516"/>
      <point x="362" y="489" type="curve" smooth="yes"/>
      <point x="362" y="447"/>
      <point x="327" y="385"/>
      <point x="222" y="353" type="curve"/>
      <point x="302" y="310" type="line"/>
      <point x="390" y="343"/>
      <point x="429" y="410"/>
      <point x="429" y="465" type="curve" smooth="yes"/>
      <point x="429" y="541"/>
      <point x="353" y="615"/>
      <point x="264" y="615" type="curve" smooth="yes"/>
      <point x="204" y="615"/>
      <point x="142" y="581"/>
      <point x="98" y="539" type="curve"/>
    </contour>
    <contour>
      <point x="377" y="290" type="line"/>
      <point x="469" y="231"/>
      <point x="531" y="220"/>
      <point x="579" y="244" type="curve"/>
      <point x="579" y="329" type="line"/>
      <point x="536" y="288"/>
      <point x="454" y="283"/>
      <point x="386" y="324" type="curve"/>
    </contour>
    <contour>
      <point x="763" y="538" type="line"/>
      <point x="772" y="558" type="line"/>
      <point x="742" y="608" type="line"/>
      <point x="455" y="608" type="line"/>
      <point x="446" y="588" type="line"/>
      <point x="476" y="538" type="line"/>
    </contour>
    <contour>
      <point x="569" y="5" type="line"/>
      <point x="628" y="-33" type="line"/>
      <point x="652" y="-26" type="line"/>
      <point x="652" y="500" type="line"/>
      <point x="594" y="551" type="line"/>
      <point x="569" y="562" type="line"/>
    </contour>
    <contour>
      <point x="607" y="630" type="move" name="abvmBINDU"/>
    </contour>
    <contour>
      <point x="592" y="630" type="move" name="abvmCANDRABINDU"/>
    </contour>
  </outline>
</glyph>
<glyph name="dvAa" format="1">
  <advance width="1005"/>
  <unicode hex="0906"/>
  <outline>
    <component base="dvA"/>
    <component base="dvMatraAa" xOffset="742"/>
    <contour>
      <point x="750" y="630" type="move" name="abvmBINDU"/>
    </contour>
    <contour>
      <point x="745" y="630" type="move" name="abvmCANDRABINDU"/>
    </contour>
  </outline>
</glyph>
<glyph name="dvI" format="1">
  <advance width="538"/>
  <unicode hex="0907"/>
  <outline>
    <contour>
      <point x="173" y="24" type="line"/>
      <point x="316" y="-200" type="line"/>
      <point x="392" y="-142" type="line"/>
      <point x="216" y="32" type="line"/>
    </contour>
    <contour>
      <point x="559" y="538" type="line"/>
      <point x="568" y="558" type="line"/>
      <point x="538" y="608" type="line"/>
      <point x="-21" y="608" type="line"/>
      <point x="-30" y="588" type="line"/>
      <point x="0" y="538" type="line"/>
    </contour>
    <contour>
      <point x="360" y="394" type="line"/>
      <point x="438" y="383" type="line"/>
      <point x="438" y="500" type="line"/>
      <point x="380" y="551" type="line"/>
      <point x="360" y="562" type="line"/>
    </contour>
    <contour>
      <point x="91" y="42" type="line"/>
      <point x="144" y="1"/>
      <point x="211" y="-18"/>
      <point x="275" y="-18" type="curve" smooth="yes"/>
      <point x="390" y="-18"/>
      <point x="496" y="43"/>
      <point x="496" y="145" type="curve" smooth="yes"/>
      <point x="496" y="215"/>
      <point x="440" y="275"/>
      <point x="368" y="303" type="curve"/>
      <point x="165" y="252" type="line"/>
      <point x="140" y="274"/>
      <point x="124" y="293"/>
      <point x="124" y="318" type="curve" smooth="yes"/>
      <point x="124" y="360"/>
      <point x="170" y="383"/>
      <point x="230" y="383" type="curve" smooth="yes"/>
      <point x="438" y="383" type="line"/>
      <point x="364" y="464" type="line"/>
      <point x="204" y="464" type="line" smooth="yes"/>
      <point x="99" y="464"/>
      <point x="53" y="410"/>
      <point x="53" y="356" type="curve" smooth="yes"/>
      <point x="53" y="283"/>
      <point x="138" y="189"/>
      <point x="239" y="174" type="curve"/>
      <point x="407" y="219" type="line"/>
      <point x="453" y="129"/>
      <point x="358" y="29"/>
      <point x="188" y="42" type="curve"/>
      <point x="244" y="18" type="line"/>
      <point x="161" y="153" type="line"/>
      <point x="118" y="153" type="line"/>
    </contour>
    <contour>
      <point x="388" y="630" type="move" name="abvmBINDU"/>
    </contour>
    <contour>
      <point x="368" y="630" type="move" name="abvmCANDRABINDU"/>
    </contour>
  </outline>
</glyph>
<glyph name="dvU" format="1">
  <advance width="532"/>
  <unicode hex="0909"/>
  <outline>
    <contour>
      <point x="297" y="546" type="line"/>
      <point x="336" y="526"/>
      <point x="353" y="493"/>
      <point x="353" y="459" type="curve" smooth="yes"/>
      <point x="353" y="407"/>
      <point x="314" y="366"/>
      <point x="223" y="344" type="curve"/>
      <point x="301" y="298" type="line"/>
      <point x="400" y="332"/>
      <point x="428" y="386"/>
      <point x="428" y="435" type="curve" smooth="yes"/>
      <point x="428" y="497"/>
      <point x="384" y="542"/>
      <point x="338" y="565" type="curve"/>
    </contour>
    <contour>
      <point x="553" y="538" type="line"/>
      <point x="562" y="558" type="line"/>
      <point x="532" y="608" type="line"/>
      <point x="-21" y="608" type="line"/>
      <point x="-30" y="588" type="line"/>
      <point x="0" y="538" type="line"/>
    </contour>
    <contour>
      <point x="15" y="242" type="line"/>
      <point x="116" y="30"/>
      <point x="224" y="-18"/>
      <point x="308" y="-18" type="curve" smooth="yes"/>
      <point x="413" y="-18"/>
      <point x="488" y="56"/>
      <point x="488" y="149" type="curve" smooth="yes"/>
      <point x="488" y="231"/>
      <point x="430" y="314"/>
      <point x="334" y="350" type="curve"/>
      <point x="309" y="356" type="line"/>
      <point x="260" y="363"/>
      <point x="211" y="357"/>
      <point x="167" y="322" type="curve"/>
      <point x="211" y="242" type="line"/>
      <point x="357" y="317" type="line"/>
      <point x="277" y="301" type="line"/>
      <point x="367" y="300"/>
      <point x="411" y="232"/>
      <point x="411" y="173" type="curve" smooth="yes"/>
      <point x="411" y="106"/>
      <point x="356" y="64"/>
      <point x="289" y="64" type="curve" smooth="yes"/>
      <point x="196" y="64"/>
      <point x="119" y="146"/>
      <point x="61" y="270" type="curve"/>
    </contour>
    <contour>
      <point x="327" y="630" type="move" name="abvmBINDU"/>
    </contour>
    <contour>
      <point x="319" y="630" type="move" name="abvmCANDRABINDU"/>
    </contour>
  </outline>
</glyph>
<glyph name="dvUu" format="1">
  <advance width="735"/>
  <unicode hex="090A"/>
  <outline>
    <contour>
      <point x="756" y="538" type="line"/>
      <point x="765" y="558" type="line"/>
      <point x="735" y="608" type="line"/>
      <point x="169" y="608" type="line"/>
      <point x="160" y="588" type="line"/>
      <point x="190" y="538" type="line"/>
    </contour>
    <contour>
      <point x="615" y="46" type="line"/>
      <point x="686" y="99"/>
      <point x="731" y="154"/>
      <point x="731" y="224" type="curve" smooth="yes"/>
      <point x="731" y="308"/>
      <point x="666" y="379"/>
      <point x="585" y="379" type="curve" smooth="yes"/>
      <point x="527" y="379"/>
      <point x="474" y="342"/>
      <point x="418" y="282" type="curve"/>
      <point x="471" y="219" type="line"/>
      <point x="520" y="282"/>
      <point x="573" y="314"/>
      <point x="614" y="314" type="curve" smooth="yes"/>
      <point x="651" y="314"/>
      <point x="670" y="289"/>
      <point x="670" y="262" type="curve" smooth="yes"/>
      <point x="670" y="215"/>
      <point x="615" y="155"/>
      <point x="557" y="111" type="curve"/>
    </contour>
    <component base="dvU"/>
    <contour>
      <point x="350" y="630" type="move" name="abvmBINDU"/>
    </contour>
    <contour>
      <point x="355" y="630" type="move" name="abvmCANDRABINDU"/>
    </contour>
  </outline>
</glyph>
<glyph name="dvVocalicR" format="1">
  <advance width="809"/>
  <unicode hex="090B"/>
  <outline>
    <contour>
      <point x="620" y="62" type="line"/>
      <point x="660" y="10" type="line"/>
      <point x="743" y="29"/>
      <point x="780" y="91"/>
      <point x="780" y="143" type="curve" smooth="yes"/>
      <point x="780" y="197"/>
      <point x="741" y="255"/>
      <point x="691" y="315" type="curve"/>
      <point x="667" y="270" type="line"/>
      <point x="695" y="242"/>
      <point x="712" y="207"/>
      <point x="712" y="175" type="curve" smooth="yes"/>
      <point x="712" y="136"/>
      <point x="688" y="101"/>
      <point x="627" y="84" type="curve"/>
    </contour>
    <contour>
      <point x="487" y="201" type="line"/>
      <point x="508" y="192"/>
      <point x="531" y="188"/>
      <point x="552" y="188" type="curve" smooth="yes"/>
      <point x="627" y="188"/>
      <point x="695" y="237"/>
      <point x="707" y="292" type="curve"/>
      <point x="672" y="338" type="line"/>
      <point x="666" y="282"/>
      <point x="619" y="247"/>
      <point x="565" y="247" type="curve" smooth="yes"/>
      <point x="539" y="247"/>
      <point x="512" y="255"/>
      <point x="487" y="272" type="curve"/>
    </contour>
    <contour>
      <point x="663" y="299" type="line"/>
      <point x="690" y="269" type="line"/>
      <point x="719" y="301"/>
      <point x="723" y="360"/>
      <point x="702" y="397" type="curve"/>
      <point x="609" y="400" type="line"/>
      <point x="590" y="366" type="line"/>
      <point x="671" y="268" type="line"/>
    </contour>
    <contour>
      <point x="830" y="538" type="line"/>
      <point x="839" y="558" type="line"/>
      <point x="809" y="608" type="line"/>
      <point x="524" y="608" type="line"/>
      <point x="515" y="588" type="line"/>
      <point x="545" y="538" type="line"/>
    </contour>
    <component base="dvTRa" xOffset="15"/>
    <contour>
      <point x="439" y="630" type="move" name="abvmCANDRABINDU"/>
    </contour>
    <contour>
      <point x="444" y="630" type="move" name="abvmBINDU"/>
    </contour>
    <contour>
      <point x="448" y="468" type="move" name="abvmTOP"/>
    </contour>
    <contour>
      <point x="380" y="5" type="move" name="blwmBOTTOM"/>
    </contour>
  </outline>
</glyph>
<glyph name="dvVocalicL" format="1">
  <advance width="683"/>
  <unicode hex="090C"/>
  <outline>
    <contour>
      <point x="361" y="287" type="line"/>
      <point x="252" y="403" type="line"/>
      <point x="231" y="416"/>
      <point x="206" y="423"/>
      <point x="180" y="423" type="curve" smooth="yes"/>
      <point x="109" y="423"/>
      <point x="35" y="367"/>
      <point x="35" y="272" type="curve" smooth="yes"/>
      <point x="35" y="182"/>
      <point x="102" y="79"/>
      <point x="270" y="-39" type="curve"/>
      <point x="304" y="5" type="line"/>
      <point x="205" y="73"/>
      <point x="119" y="150"/>
      <point x="119" y="235" type="curve" smooth="yes"/>
      <point x="119" y="291"/>
      <point x="157" y="337"/>
      <point x="212" y="337" type="curve" smooth="yes"/>
      <point x="244" y="337"/>
      <point x="283" y="322"/>
      <point x="316" y="283" type="curve"/>
      <point x="347" y="247" type="line"/>
    </contour>
    <contour>
      <point x="704" y="538" type="line"/>
      <point x="713" y="558" type="line"/>
      <point x="683" y="608" type="line"/>
      <point x="-21" y="608" type="line"/>
      <point x="-30" y="588" type="line"/>
      <point x="0" y="538" type="line"/>
    </contour>
    <contour>
      <point x="432" y="399" type="line"/>
      <point x="515" y="394" type="line"/>
      <point x="515" y="500" type="line"/>
      <point x="457" y="551" type="line"/>
      <point x="432" y="562" type="line"/>
    </contour>
    <contour>
      <point x="647" y="5" type="line"/>
      <point x="622" y="-41"/>
      <point x="588" y="-87"/>
      <point x="546" y="-87" type="curve" smooth="yes"/>
      <point x="517" y="-87"/>
      <point x="493" y="-66"/>
      <point x="493" y="-34" type="curve" smooth="yes"/>
      <point x="493" y="44"/>
      <point x="633" y="124"/>
      <point x="633" y="246" type="curve" smooth="yes"/>
      <point x="633" y="329"/>
      <point x="567" y="416"/>
      <point x="466" y="416" type="curve" smooth="yes"/>
      <point x="376" y="416"/>
      <point x="271" y="348"/>
      <point x="291" y="164" type="curve"/>
      <point x="352" y="118" type="line"/>
      <point x="370" y="125" type="line"/>
      <point x="354" y="258"/>
      <point x="408" y="361"/>
      <point x="481" y="361" type="curve" smooth="yes"/>
      <point x="528" y="361"/>
      <point x="555" y="318"/>
      <point x="555" y="270" type="curve" smooth="yes"/>
      <point x="555" y="164"/>
      <point x="425" y="99"/>
      <point x="425" y="6" type="curve" smooth="yes"/>
      <point x="425" y="-70"/>
      <point x="510" y="-146"/>
      <point x="583" y="-146" type="curve" smooth="yes"/>
      <point x="635" y="-146"/>
      <point x="681" y="-108"/>
      <point x="708" y="-46" type="curve"/>
    </contour>
    <contour>
      <point x="443" y="630" type="move" name="abvmCANDRABINDU"/>
    </contour>
    <contour>
      <point x="458" y="630" type="move" name="abvmBINDU"/>
    </contour>
    <contour>
      <point x="468" y="468" type="move" name="abvmTOP"/>
    </contour>
    <contour>
      <point x="338" y="5" type="move" name="blwmBOTTOM"/>
    </contour>
  </outline>
</glyph>
<glyph name="dvShortE" format="1">
  <advance width="555"/>
  <unicode hex="090E"/>
  <outline>
    <component base="dvE"/>
    <component base="dvMatraShortE" xOffset="529"/>
    <contour>
      <point x="500" y="610" type="move" name="abvmBINDU"/>
    </contour>
  </outline>
</glyph>
